<?xml version="1.0" standalone="no"?>
<!DOCTYPE svg PUBLIC "-//W3C//DTD SVG 1.1//EN" "http://www.w3.org/Graphics/SVG/1.1/DTD/svg11.dtd" >
<svg>
<metadata>
Created by FontForge 20090914 at Fri Sep 28 07:01:54 2012
 By www-data
Part of the digitally encoded machine readable outline data for producing the Typefaces provided is copyrighted &#194;&#169; 2003 - 2006 Linotype GmbH, www.linotype.com. All rights reserved. This software is the property of Linotype GmbH, and may not be reproduced, modified, disclosed or transferred without the express written approval of Linotype GmbH. Copyright &#194;&#169; 1988, 1990, 1993 Adobe Systems Incorporated. All Rights Reserved. Helvetica is a trademark of Heidelberger Druckmaschinen AG, exclusively licensed through Linotype GmbH, and may be registered in certain jurisdictions. This typeface is original artwork of Linotype Design Studio. The design may be protected in certain jurisdictions.
</metadata>
<defs>
<font id="HelveticaNeueLTCom-Cn" horiz-adv-x="463" >
  <font-face 
    font-family="HelveticaNeueLT Com 57 Cn"
    font-weight="400"
    font-stretch="normal"
    units-per-em="1000"
    panose-1="2 11 5 6 3 5 2 3 2 4"
    ascent="714"
    descent="-286"
    x-height="536"
    cap-height="714"
    bbox="-164 -214 1000 943"
    underline-thickness="50"
    underline-position="-50"
    unicode-range="U+0020-U+FB02"
  />
<missing-glyph horiz-adv-x="512" 
d="M222 117v67h56v-67h-56zM225 234l-2.00195 17c0 36.667 4.33301 63.667 13 81s24 37 46 59c21.333 20.667 35 36.5 41 47.5s9 22.833 9 35.5c0 24 -7.5 44.167 -22.5 60.5s-32.833 24.5 -53.5 24.5s-38.5 -7.33301 -53.5 -22s-24.5 -39 -28.5 -73l-50 8
c4.66699 47.333 19.334 82 44.001 104s55 33 91 33c35.333 0 64.833 -12 88.5 -36s35.5 -55.667 35.5 -95c0 -21.333 -4.16699 -40.833 -12.5 -58.5s-25.166 -38.167 -50.499 -61.5c-24.667 -22 -39 -39.333 -43 -52s-6 -36.667 -6 -72h-46zM461.998 50v617h-412v-617h412z
M511.998 718v-718h-512v718h512z" />
    <glyph glyph-name="IJ" unicode="IJ" horiz-adv-x="622" 
d="M58 714h88v-714h-88v714zM564 205c0 -32 -2.50098 -61.335 -7.50098 -88.002s-14 -49.667 -27 -69s-31.167 -34.5 -54.5 -45.5s-53.333 -16.5 -90 -16.5c-30 0 -55.5 4.5 -76.5 13.5s-38.167 21 -51.5 36s-23.166 32.333 -29.499 52s-9.5 40.167 -9.5 61.5v59h84v-52
c0 -30 6.16699 -53.833 18.5 -71.5s33.5 -26.5 63.5 -26.5c20 0 36 3.16699 48 9.5s21.333 15.833 28 28.5s11 28.334 13 47.001s3 40.334 3 65.001v506h88v-509z" />
    <glyph glyph-name="ij" unicode="ij" horiz-adv-x="410" 
d="M60 714h84v-96h-84v96zM60 536h84v-536h-84v536zM350 618h-84v96h84v-96zM350 -52c0 -44 -9.83301 -77 -29.5 -99s-52.5 -33 -98.5 -33c-6.66699 0 -13.167 0.333008 -19.5 1l-19.5 2v72l15.5 -2c5 -0.666992 10.167 -1 15.5 -1c12.667 0 22.667 2.33301 30 7
s12.5 11 15.5 19s4.83301 17.5 5.5 28.5s1 22.833 1 35.5v558h84v-588z" />
    <glyph glyph-name="napostrophe" unicode="&#x22;n" 
d="M55 536l80.001 0.000976562v-63h2c11.333 24.667 29.333 43.667 54 57s50 20 76 20c35.333 0 62.5 -5.83301 81.5 -17.5s33 -26.167 42 -43.5s14.167 -35.833 15.5 -55.5s2 -37.5 2 -53.5v-380h-84v370c0 10 -0.5 21.333 -1.5 34s-4.16699 24.5 -9.5 35.5
s-13.333 20.167 -24 27.5s-25.334 11 -44.001 11c-11.333 0 -23.166 -2 -35.499 -6s-23.833 -10.333 -34.5 -19s-19.334 -19.834 -26.001 -33.501s-10 -30.167 -10 -49.5v-370h-84v536zM13.001 805.001l83.001 -0.00195312v-80c0 -27.333 -6.5 -47 -19.5 -59
s-32.5 -19 -58.5 -21v26c8.66699 2.66699 16.167 6.33398 22.5 11.001s10.166 15.334 11.499 32.001h-39v91z" />
    <glyph glyph-name="fi" unicode="fi" 
d="M319 714h84v-96h-84v96zM319 536h84v-536h-84v536zM80 470h-78v66h78v63c0 40.667 9.16699 71.334 27.5 92.001s47.833 31 88.5 31h61v-72h-39c-18 0 -31.5 -3.83301 -40.5 -11.5s-13.5 -20.834 -13.5 -39.501v-63h92v-66h-92v-470h-84v470z" />
    <glyph glyph-name="fl" unicode="fl" 
d="M319 714h84v-714h-84v714zM80 470h-78v66h78v63c0 40.667 9.16699 71.334 27.5 92.001s47.833 31 88.5 31h61v-72h-39c-18 0 -31.5 -3.83301 -40.5 -11.5s-13.5 -20.834 -13.5 -39.501v-63h92v-66h-92v-470h-84v470z" />
    <glyph glyph-name=".notdef" horiz-adv-x="512" 
d="M222 117v67h56v-67h-56zM225 234l-2.00195 17c0 36.667 4.33301 63.667 13 81s24 37 46 59c21.333 20.667 35 36.5 41 47.5s9 22.833 9 35.5c0 24 -7.5 44.167 -22.5 60.5s-32.833 24.5 -53.5 24.5s-38.5 -7.33301 -53.5 -22s-24.5 -39 -28.5 -73l-50 8
c4.66699 47.333 19.334 82 44.001 104s55 33 91 33c35.333 0 64.833 -12 88.5 -36s35.5 -55.667 35.5 -95c0 -21.333 -4.16699 -40.833 -12.5 -58.5s-25.166 -38.167 -50.499 -61.5c-24.667 -22 -39 -39.333 -43 -52s-6 -36.667 -6 -72h-46zM461.998 50v617h-412v-617h412z
M511.998 718v-718h-512v718h512z" />
    <glyph glyph-name="space" unicode=" " horiz-adv-x="240" 
 />
    <glyph glyph-name="exclam" unicode="!" horiz-adv-x="258" 
d="M83 96h92v-96h-92v96zM83 714h92l-16 -528h-60z" />
    <glyph glyph-name="quotedbl" unicode="&#x22;" horiz-adv-x="407" 
d="M254 714h66v-254h-66v254zM87 714h66v-254h-66v254z" />
    <glyph glyph-name="numbersign" unicode="#" horiz-adv-x="480" 
d="M179 271h106l19 154h-106zM105 205h-82v66h90l19 154h-87v66h96l25 203h66l-25 -203h106l25 203h66l-25 -203h78v-66h-87l-19 -154h83v-66h-91l-26 -205h-66l26 205h-106l-26 -205h-66z" />
    <glyph glyph-name="dollar" unicode="$" horiz-adv-x="480" 
d="M217 766l42.002 0.00195312v-58c62 -3.33301 107.167 -21 135.5 -53s43.166 -79 44.499 -141h-88c0 16 -1.5 31.167 -4.5 45.5s-8.16699 26.833 -15.5 37.5s-16.833 19.334 -28.5 26.001s-26.167 11 -43.5 13v-245l70 -24c24 -8 45.5 -18.833 64.5 -32.5
s34.667 -31.667 47 -54s18.5 -51.5 18.5 -87.5c0 -37.333 -6 -68.833 -18 -94.5s-27.5 -46.667 -46.5 -63s-40.333 -28.333 -64 -36s-47.5 -12.167 -71.5 -13.5v-94h-42v94c-38 1.33301 -69.5 7.5 -94.5 18.5s-45 26.333 -60 46s-25.667 43.5 -32 71.5s-9.5 60 -9.5 96h88
c0 -18 0.666992 -36 2 -54s5.5 -34.333 12.5 -49s17.833 -27.167 32.5 -37.5s35 -16.833 61 -19.5v262c-22.667 7.33301 -45.167 15.166 -67.5 23.499s-42.333 19.666 -60 33.999s-32 32.5 -43 54.5s-16.5 50 -16.5 84c0 16 2.16699 34.5 6.5 55.5
s13.166 41.167 26.499 60.5s32.333 36.166 57 50.499s57 22.833 97 25.5v58zM217.002 636.002c-30.667 -4 -54.167 -15.3311 -70.5 -33.998s-24.5 -44.334 -24.5 -77.001c0 -34 8.83301 -59.833 26.5 -77.5s40.5 -31.834 68.5 -42.501v231zM259.002 58.0039
c32 2.66699 58.001 14.832 78.001 36.499s30 49.834 30 84.501c0 18.667 -2.83301 34.667 -8.5 48s-13.334 25 -23.001 35s-21.167 18.5 -34.5 25.5s-27.333 13.167 -42 18.5v-248z" />
    <glyph glyph-name="percent" unicode="%" horiz-adv-x="759" 
d="M582 -14c-30 0 -53.667 5.33301 -71 16s-30.5 24.834 -39.5 42.501s-14.667 38 -17 61s-3.5 47.167 -3.5 72.5c0 24.667 1.16699 48.667 3.5 72s8 43.833 17 61.5s22.167 31.834 39.5 42.501s41 16 71 16s53.667 -5.33301 71 -16s30.5 -24.834 39.5 -42.501
s14.667 -38.167 17 -61.5s3.5 -47.333 3.5 -72c0 -25.333 -1.16699 -49.5 -3.5 -72.5s-8 -43.333 -17 -61s-22.167 -31.834 -39.5 -42.501s-41 -16 -71 -16zM177 324c-30 0 -53.667 5.33301 -71 16s-30.5 24.834 -39.5 42.501s-14.667 38 -17 61s-3.5 47.167 -3.5 72.5
c0 24.667 1.16699 48.667 3.5 72s8 43.833 17 61.5s22.167 31.834 39.5 42.501s41 16 71 16s53.667 -5.33301 71 -16s30.5 -24.834 39.5 -42.501s14.667 -38.167 17 -61.5s3.5 -47.333 3.5 -72c0 -25.333 -1.16699 -49.5 -3.5 -72.5s-8 -43.333 -17 -61
s-22.167 -31.834 -39.5 -42.501s-41 -16 -71 -16zM582 40c14 0 25 3.33301 33 10s13.833 16 17.5 28s6 26.5 7 43.5s1.5 35.833 1.5 56.5s-0.5 39.5 -1.5 56.5s-3.33301 31.5 -7 43.5s-9.5 21.333 -17.5 28s-19 10 -33 10s-25 -3.33301 -33 -10s-13.833 -16 -17.5 -28
s-6 -26.5 -7 -43.5s-1.5 -35.833 -1.5 -56.5s0.5 -39.5 1.5 -56.5s3.33301 -31.5 7 -43.5s9.5 -21.333 17.5 -28s19 -10 33 -10zM496 708h70l-310 -722h-70zM177 378c14 0 25 3.33301 33 10s13.833 16 17.5 28s6 26.5 7 43.5s1.5 35.833 1.5 56.5s-0.5 39.5 -1.5 56.5
s-3.33301 31.5 -7 43.5s-9.5 21.333 -17.5 28s-19 10 -33 10s-25 -3.33301 -33 -10s-13.833 -16 -17.5 -28s-6 -26.5 -7 -43.5s-1.5 -35.833 -1.5 -56.5s0.5 -39.5 1.5 -56.5s3.33301 -31.5 7 -43.5s9.5 -21.333 17.5 -28s19 -10 33 -10z" />
    <glyph glyph-name="ampersand" unicode="&#x26;" horiz-adv-x="556" 
d="M416 198c7.33301 18 13.1689 37.6699 17.502 59.0029s7.83301 48 10.5 80h78c0 -13.333 -1.83301 -30 -5.5 -50s-8.16699 -40.333 -13.5 -61s-11.5 -39.834 -18.5 -57.501s-13.833 -30.834 -20.5 -39.501l92 -129h-95l-48 67
c-27.333 -26.667 -53.833 -46.834 -79.5 -60.501s-57.834 -20.5 -96.501 -20.5c-43.333 0 -78.833 7.33301 -106.5 22s-49.334 32.334 -65.001 53.001s-26.334 42.334 -32.001 65.001s-8.5 42 -8.5 58c0 38 8.66699 72.667 26 104s41 58.333 71 81l52 39l-22 36
c-13.333 20 -25.333 40.333 -36 61s-16 43.667 -16 69c0 20.667 3.83301 39.667 11.5 57s18.334 32.166 32.001 44.499s29.5 21.833 47.5 28.5s37 10 57 10c46 0 82.667 -10.5 110 -31.5s41 -55.833 41 -104.5c0 -17.333 -2.83301 -33.333 -8.5 -48s-13 -28.334 -22 -41.001
s-19.5 -24.5 -31.5 -35.5l-36 -31.5l-26 -22zM215.003 354.003c-28.667 -17.333 -52.833 -39.333 -72.5 -66s-29.5 -59 -29.5 -97c0 -22 3.5 -41.167 10.5 -57.5s16.5 -30.166 28.5 -41.499s26 -19.833 42 -25.5s32.667 -8.5 50 -8.5c28 0 52 6.66699 72 20
s38.667 29.666 56 48.999zM257.004 471.003c16 15.333 30.666 31 43.999 47s20 36 20 60c0 20.667 -6.66699 37.5 -20 50.5s-30.666 19.5 -51.999 19.5s-38.5 -6.5 -51.5 -19.5s-19.5 -29.833 -19.5 -50.5c0 -16 4.33301 -32.667 13 -50s18.667 -34.333 30 -51l17 -24z" />
    <glyph glyph-name="quotesingle" unicode="'" horiz-adv-x="240" 
d="M87 714h66v-254h-66v254z" />
    <glyph glyph-name="parenleft" unicode="(" horiz-adv-x="241" 
d="M237 714c-40.667 -66.667 -69.167 -138.5 -85.5 -215.5s-24.5 -154.833 -24.5 -233.5c0 -81.333 9 -158.5 27 -231.5s45.667 -145.5 83 -217.5h-48c-48 64.667 -84.333 135.667 -109 213s-37 156 -37 236c0 80.667 12.333 159.167 37 235.5s61 147.5 109 213.5h48z" />
    <glyph glyph-name="parenright" unicode=")" horiz-adv-x="241" 
d="M4 -184c40.667 66.667 69.167 138.5 85.5 215.5s24.5 154.833 24.5 233.5c0 81.333 -9 158.5 -27 231.5s-45.667 145.5 -83 217.5h48c48 -64.667 84.333 -135.667 109 -213s37 -156 37 -236c0 -80.667 -12.333 -159.167 -37 -235.5s-61 -147.5 -109 -213.5h-48z" />
    <glyph glyph-name="asterisk" unicode="*" horiz-adv-x="352" 
d="M146 714h60v-119l107 41l22 -58l-113 -34l76 -94l-50 -37l-72 102l-72 -102l-50 37l76 94l-113 34l22 58l107 -41v119z" />
    <glyph glyph-name="plus" unicode="+" horiz-adv-x="600" 
d="M267 220h-220v66h220v220h66v-220h220v-66h-220v-220h-66v220z" />
    <glyph glyph-name="comma" unicode="," horiz-adv-x="240" 
d="M74 106l91.999 -0.000976562v-87c0 -19.333 -0.833008 -37.666 -2.5 -54.999s-5.5 -33.333 -11.5 -48s-15.167 -27.5 -27.5 -38.5s-29.166 -19.5 -50.499 -25.5v47c17.333 8.66699 29 18.667 35 30s9 27 9 47v24h-44v106z" />
    <glyph glyph-name="hyphen" unicode="-" horiz-adv-x="352" 
d="M54 323h244v-78h-244v78z" />
    <glyph glyph-name="period" unicode="." horiz-adv-x="240" 
d="M74 106h92v-106h-92v106z" />
    <glyph glyph-name="slash" unicode="/" horiz-adv-x="278" 
d="M222 728h66l-232 -742h-66z" />
    <glyph glyph-name="zero" unicode="0" horiz-adv-x="480" 
d="M126 344c0 -37.333 0.833008 -73.5 2.5 -108.5s6.33398 -66.167 14.001 -93.5s19 -49.166 34 -65.499s36.167 -24.5 63.5 -24.5c26.667 0 47.667 8.16699 63 24.5s26.833 38.166 34.5 65.499s12.334 58.5 14.001 93.5s2.5 71.167 2.5 108.5
c0 38.667 -0.833008 76 -2.5 112s-6.33398 67.833 -14.001 95.5s-19.167 49.667 -34.5 66s-36.333 24.5 -63 24.5c-27.333 0 -48.5 -8.16699 -63.5 -24.5s-26.333 -38.333 -34 -66s-12.334 -59.5 -14.001 -95.5s-2.5 -73.333 -2.5 -112zM240 -14
c-48 0 -85.5 10.834 -112.5 32.501s-47.167 49.5 -60.5 83.5s-21.5 72.333 -24.5 115s-4.5 85 -4.5 127c0 26 0.5 53 1.5 81s3.66699 55.5 8 82.5s10.833 52.667 19.5 77s20.5 45.666 35.5 63.999s33.667 32.833 56 43.5s49.5 16 81.5 16c48 0 85.5 -10.833 112.5 -32.5
s47.167 -49.834 60.5 -84.501s21.5 -73.667 24.5 -117s4.5 -86.666 4.5 -129.999c0 -24.667 -0.5 -50.667 -1.5 -78s-3.66699 -54.333 -8 -81s-10.833 -52 -19.5 -76s-20.5 -45.167 -35.5 -63.5s-33.667 -32.833 -56 -43.5s-49.5 -16 -81.5 -16z" />
    <glyph glyph-name="one" unicode="1" horiz-adv-x="480" 
d="M67 592c22 1.33301 43.333 3.33301 64 6s39 8 55 16s29 19.333 39 34s15.667 34.667 17 60h60v-708h-84v532h-151v60z" />
    <glyph glyph-name="two" unicode="2" horiz-adv-x="480" 
d="M438 0l-396.003 -0.00488281c0 32.667 4.33301 63 13 91s20 54 34 78s30.167 45.833 48.5 65.5s37.5 38.167 57.5 55.5l58 49c14 12 26.833 24 38.5 36s21.667 24.667 30 38s14.666 27.833 18.999 43.5s6.5 33.167 6.5 52.5c0 14.667 -1.83301 29.667 -5.5 45
s-9.5 29 -17.5 41s-18.667 21.833 -32 29.5s-29.333 11.5 -48 11.5c-27.333 0 -48.5 -6.16699 -63.5 -18.5s-26.167 -26.666 -33.5 -42.999s-11.666 -33.166 -12.999 -50.499s-2 -31 -2 -41h-88c0 33.333 3.66699 63.833 11 91.5s19 51.334 35 71.001s36.833 35 62.5 46
s56.5 16.5 92.5 16.5c40.667 0 73.5 -7 98.5 -21s44.333 -30.833 58 -50.5s22.667 -40.334 27 -62.001s6.5 -40.167 6.5 -55.5c0 -26.667 -2.83301 -50.667 -8.5 -72s-13.667 -41.166 -24 -59.499s-23.166 -35.666 -38.499 -51.999s-33 -32.833 -53 -49.5l-100 -87
c-19.333 -16.667 -35.666 -35.167 -48.999 -55.5s-22.666 -42.166 -27.999 -65.499h304v-78z" />
    <glyph glyph-name="three" unicode="3" horiz-adv-x="480" 
d="M180 399l43.9941 -0.00195312c37.333 0 64.666 12 81.999 36s26 53.667 26 89c0 16 -1.66699 31.167 -5 45.5s-8.5 26.833 -15.5 37.5s-16.5 19.167 -28.5 25.5s-26.333 9.5 -43 9.5c-23.333 0 -41.666 -4.83301 -54.999 -14.5s-23.5 -21.5 -30.5 -35.5
s-11.5 -29 -13.5 -45s-3 -30.333 -3 -43h-88c0 30 3.66699 57.5 11 82.5s18.666 46.5 33.999 64.5s34.833 32 58.5 42s51.834 15 84.501 15c36.667 0 66.834 -5.83301 90.501 -17.5s42.334 -26.5 56.001 -44.5s23 -37.833 28 -59.5s7.5 -42.5 7.5 -62.5
c0 -36 -8.83301 -68 -26.5 -96s-45.5 -46.667 -83.5 -56v-2c40 -8 71.833 -25 95.5 -51s35.5 -64 35.5 -114c0 -32 -4.16699 -61.5 -12.5 -88.5s-20.666 -50.167 -36.999 -69.5s-37.166 -34.333 -62.499 -45s-55 -16 -89 -16c-32 0 -59 4.16699 -81 12.5
s-40.5 18.833 -55.5 31.5s-26.833 26.834 -35.5 42.501s-15.167 30.834 -19.5 45.501s-7 27.834 -8 39.501s-1.5 20.167 -1.5 25.5v9h88c0 -16 2.16699 -32.333 6.5 -49s11 -31.834 20 -45.501s20.667 -24.667 35 -33s31.5 -12.5 51.5 -12.5c12.667 0 25.834 2 39.501 6
s25.834 11.333 36.501 22s19.5 25.5 26.5 44.5s10.5 43.5 10.5 73.5c0 42 -10.333 75 -31 99s-53 36 -97 36h-45v66z" />
    <glyph glyph-name="four" unicode="4" horiz-adv-x="480" 
d="M286 708h84v-465h80v-72h-80v-171h-84v171h-256v79zM106 243h180v327h-2z" />
    <glyph glyph-name="five" unicode="5" horiz-adv-x="480" 
d="M97 694h316.001v-78h-249l-28 -205l2 -2c14.667 17.333 33 30.5 55 39.5s45 13.5 69 13.5c54 0 97.167 -20.167 129.5 -60.5s48.5 -97.833 48.5 -172.5c0 -33.333 -3.83301 -64.666 -11.5 -93.999s-19.667 -55 -36 -77s-37.666 -39.5 -63.999 -52.5
s-57.833 -19.5 -94.5 -19.5c-42 0 -75.667 7.5 -101 22.5s-45 33 -59 54s-23.167 42.667 -27.5 65s-6.5 40.5 -6.5 54.5h88c0 -9.33301 1.16699 -21.333 3.5 -36s7.33301 -29 15 -43s18.667 -26 33 -36s33.166 -15 56.499 -15c24.667 0 44.667 6.16699 60 18.5
s27.166 27.833 35.499 46.5s13.833 38.667 16.5 60s4 41 4 59c0 19.333 -2 38.666 -6 57.999s-10.5 36.5 -19.5 51.5s-21.167 27.167 -36.5 36.5s-34 14 -56 14c-15.333 0 -29.166 -2.83301 -41.499 -8.5s-22.833 -12.167 -31.5 -19.5s-15.334 -15 -20.001 -23
s-7 -14 -7 -18l-76 4z" />
    <glyph glyph-name="six" unicode="6" horiz-adv-x="480" 
d="M133 216c0 -18.667 1.66699 -37.667 5 -57s9.33301 -37 18 -53s20.167 -29 34.5 -39s32.5 -15 54.5 -15s40.167 5 54.5 15s25.833 23 34.5 39s14.667 33.667 18 53s5 38.333 5 57s-1.5 37.667 -4.5 57s-8.5 37 -16.5 53s-19.333 29 -34 39s-33.667 15 -57 15
s-42.333 -5 -57 -15s-26 -23 -34 -39s-13.5 -33.667 -16.5 -53s-4.5 -38.333 -4.5 -57zM341 538c0 30 -7.99902 54.835 -23.999 74.502s-39 29.5 -69 29.5c-19.333 0 -36 -4.33301 -50 -13s-25.5 -20 -34.5 -34s-16.167 -29.333 -21.5 -46s-9.5 -32.834 -12.5 -48.501
s-4.83301 -30 -5.5 -43s-1 -22.5 -1 -28.5v-56h2c3.33301 6.66699 8.66602 14.5 15.999 23.5s16.5 17.667 27.5 26s24.167 15.333 39.5 21s32.666 8.5 51.999 8.5c30.667 0 57.5 -5.5 80.5 -16.5s42.333 -26.333 58 -46s27.334 -43.334 35.001 -71.001
s11.5 -57.834 11.5 -90.501c0 -34 -4.16699 -65.833 -12.5 -95.5s-21 -55.334 -38 -77.001s-38 -38.667 -63 -51s-53.833 -18.5 -86.5 -18.5s-60.5 4.83301 -83.5 14.5s-42.333 23 -58 40s-28 36.5 -37 58.5s-15.833 45.5 -20.5 70.5s-7.66699 50.5 -9 76.5s-2 51.333 -2 76
c0 26.667 0.5 54.834 1.5 84.501s3.83301 58.834 8.5 87.501s11.5 56 20.5 82s21.5 48.667 37.5 68s36 34.833 60 46.5s53 17.5 87 17.5c40.667 0 73 -7.33301 97 -22s42 -31.5 54 -50.5s19.667 -38 23 -57s5 -32.5 5 -40.5h-88z" />
    <glyph glyph-name="seven" unicode="7" horiz-adv-x="480" 
d="M38 694h404.002v-73c-19.333 -25.333 -41.833 -58.666 -67.5 -99.999s-49.5 -89 -71.5 -143c-22.667 -54.667 -42.834 -113.167 -60.501 -175.5s-29.834 -129.833 -36.501 -202.5h-98c13.333 109.333 42 216.666 86 321.999c42.667 104.667 98.667 202.667 168 294h-324
v78z" />
    <glyph glyph-name="eight" unicode="8" horiz-adv-x="480" 
d="M125 198c0 -21.333 2.16699 -40.833 6.5 -58.5s11.166 -33 20.499 -46s21.166 -23.167 35.499 -30.5s31.833 -11 52.5 -11c40.667 0 70 13.833 88 41.5s27 62.5 27 104.5s-9 76.833 -27 104.5s-47.333 41.5 -88 41.5c-20.667 0 -38.167 -3.66699 -52.5 -11
s-26.166 -17.5 -35.499 -30.5s-16.166 -28.5 -20.499 -46.5s-6.5 -37.333 -6.5 -58zM240 642c-32.667 0 -56.334 -10.833 -71.001 -32.5s-22 -49.5 -22 -83.5s7.33301 -61.833 22 -83.5s38.334 -32.5 71.001 -32.5c32 0 55.5 10.833 70.5 32.5s22.5 49.5 22.5 83.5
s-7.5 61.833 -22.5 83.5s-38.5 32.5 -70.5 32.5zM37 195c0 94 41.665 154.667 124.998 182c-36 14.667 -62.167 34 -78.5 58s-24.5 55 -24.5 93c0 58 16 102.5 48 133.5s76.333 46.5 133 46.5s101 -15.5 133 -46.5s48 -75.5 48 -133.5c0 -38 -8.16699 -69 -24.5 -93
s-42.5 -43.333 -78.5 -58c83.333 -27.333 125 -88 125 -182c0 -23.333 -3.16699 -47.333 -9.5 -72s-17.166 -47.167 -32.499 -67.5s-36 -37 -62 -50s-59 -19.5 -99 -19.5s-73 6.5 -99 19.5s-46.667 29.667 -62 50s-26.166 42.833 -32.499 67.5s-9.5 48.667 -9.5 72z" />
    <glyph glyph-name="nine" unicode="9" horiz-adv-x="480" 
d="M347 478c0 18.667 -1.66699 37.667 -5 57s-9.33301 37 -18 53s-20.167 29 -34.5 39s-32.5 15 -54.5 15s-40.167 -5 -54.5 -15s-25.833 -23 -34.5 -39s-14.667 -33.667 -18 -53s-5 -38.333 -5 -57s1.5 -37.667 4.5 -57s8.5 -37 16.5 -53s19.333 -29 34 -39
s33.667 -15 57 -15s42.333 5 57 15s26 23 34 39s13.5 33.667 16.5 53s4.5 38.333 4.5 57zM139 156c0 -30 7.99902 -54.833 23.999 -74.5s39 -29.5 69 -29.5c19.333 0 36 4.5 50 13.5s25.5 20.333 34.5 34s16.167 28.834 21.5 45.501s9.5 32.834 12.5 48.501
s4.83301 30 5.5 43s1 22.5 1 28.5v56h-2c-3.33301 -6.66699 -8.66602 -14.5 -15.999 -23.5s-16.5 -17.667 -27.5 -26s-24.167 -15.333 -39.5 -21s-32.666 -8.5 -51.999 -8.5c-30.667 0 -57.5 5.5 -80.5 16.5s-42.333 26.333 -58 46s-27.334 43.167 -35.001 70.5
s-11.5 57.666 -11.5 90.999c0 34 4.16699 65.833 12.5 95.5s21 55.334 38 77.001s37.833 38.667 62.5 51s53.667 18.5 87 18.5c32.667 0 60.5 -5 83.5 -15s42.333 -23.333 58 -40s28 -36.167 37 -58.5s15.833 -45.833 20.5 -70.5s7.66699 -50.167 9 -76.5s2 -51.5 2 -75.5
c0 -26.667 -0.5 -54.834 -1.5 -84.501s-3.83301 -58.834 -8.5 -87.501s-11.5 -56 -20.5 -82s-21.5 -48.667 -37.5 -68s-36 -34.833 -60 -46.5s-53 -17.5 -87 -17.5c-41.333 0 -73.833 7.33301 -97.5 22s-41.5 31.5 -53.5 50.5s-19.667 38 -23 57s-5 32.5 -5 40.5h88z" />
    <glyph glyph-name="colon" unicode=":" horiz-adv-x="240" 
d="M74 106h92v-106h-92v106zM74 506h92v-106h-92v106z" />
    <glyph glyph-name="semicolon" unicode=";" horiz-adv-x="240" 
d="M74 506h92v-106h-92v106zM74 106l91.999 -0.000976562v-87c0 -19.333 -0.833008 -37.666 -2.5 -54.999s-5.5 -33.333 -11.5 -48s-15.167 -27.5 -27.5 -38.5s-29.166 -19.5 -50.499 -25.5v47c17.333 8.66699 29 18.667 35 30s9 27 9 47v24h-44v106z" />
    <glyph glyph-name="less" unicode="&#x3c;" horiz-adv-x="600" 
d="M47 283l506 231v-66l-428 -195l428 -195v-66l-506 231v60z" />
    <glyph glyph-name="equal" unicode="=" horiz-adv-x="600" 
d="M47 184h506v-66h-506v66zM47 388h506v-66h-506v66z" />
    <glyph glyph-name="greater" unicode="&#x3e;" horiz-adv-x="600" 
d="M47 58l428 195l-428 195v66l506 -231v-60l-506 -231v66z" />
    <glyph glyph-name="question" unicode="?" horiz-adv-x="444" 
d="M165 96h92v-96h-92v96zM35 504c0 29.333 3.66895 57.1689 11.002 83.502s18.5 49.5 33.5 69.5s34.333 35.833 58 47.5s51.5 17.5 83.5 17.5c30 0 56.667 -4.83301 80 -14.5s43 -22.834 59 -39.501s28.167 -36.5 36.5 -59.5s12.5 -47.833 12.5 -74.5
c0 -25.333 -4.33301 -50.333 -13 -75s-21 -46.667 -37 -66c-2.66699 -3.33301 -7.83398 -9.33301 -15.501 -18l-24.5 -27l-24 -26.5c-7.33301 -8.33301 -12 -13.833 -14 -16.5c-12.667 -16 -21.167 -32.833 -25.5 -50.5s-6.5 -34.167 -6.5 -49.5v-19h-78
c0 20 0.833008 41 2.5 63s7.16699 42 16.5 60c6 10.667 13.5 22 22.5 34s18.333 23.667 28 35l28 32.5l22.5 26.5c11.333 15.333 19.166 30.5 23.499 45.5s6.5 33.833 6.5 56.5c0 14.667 -2 28.667 -6 42s-10 25.166 -18 35.499s-18.167 18.5 -30.5 24.5s-26.5 9 -42.5 9
c-24 0 -43 -5.33301 -57 -16s-24.5 -23.5 -31.5 -38.5s-11.5 -31 -13.5 -48s-3 -31.5 -3 -43.5h-84z" />
    <glyph glyph-name="at" unicode="@" horiz-adv-x="800" 
d="M546 550l55.999 0.000976562l-84 -282c-2.66699 -8.66699 -4.83398 -16.5 -6.50098 -23.5s-2.5 -14.167 -2.5 -21.5s2.5 -13.5 7.5 -18.5s12.167 -7.5 21.5 -7.5c22.667 0 44.167 6.16699 64.5 18.5s38 28.666 53 48.999s27 43.5 36 69.5s13.5 53 13.5 81
c0 38 -7.83301 72.5 -23.5 103.5s-37.334 57.5 -65.001 79.5s-60 39.167 -97 51.5s-76.833 18.5 -119.5 18.5c-43.333 0 -83.5 -8 -120.5 -24s-69.167 -38 -96.5 -66s-48.833 -60.833 -64.5 -98.5s-23.5 -78.5 -23.5 -122.5c0 -44.667 7.83301 -86 23.5 -124
s37.167 -70.833 64.5 -98.5s59.5 -49.334 96.5 -65.001s77.167 -23.5 120.5 -23.5c124.667 0 215 37 271 111h63c-32 -56.667 -76 -99.334 -132 -128.001s-123.333 -43 -202 -43c-51.333 0 -99.5 9.66699 -144.5 29s-84.333 45.833 -118 79.5s-60.167 73 -79.5 118
s-29 93.167 -29 144.5s9.66699 99.5 29 144.5s45.833 84.333 79.5 118s73 60.167 118 79.5s93.167 29 144.5 29c54 0 103.667 -7.66699 149 -23s84.5 -36.666 117.5 -63.999s58.667 -60 77 -98s27.5 -79.333 27.5 -124c0 -43.333 -7.83301 -82.333 -23.5 -117
s-36 -64.334 -61 -89.001s-52.833 -43.5 -83.5 -56.5s-60.667 -19.5 -90 -19.5c-20 0 -36 4.66699 -48 14s-19.333 24.333 -22 45h-2c-15.333 -16 -32.666 -29.833 -51.999 -41.5s-43.666 -17.5 -72.999 -17.5c-18 0 -35.667 3.66699 -53 11s-32.5 17.5 -45.5 30.5
s-23.5 28.833 -31.5 47.5s-12 39 -12 61c0 34.667 5.5 68.834 16.5 102.501s26.833 63.834 47.5 90.501s45.334 48.167 74.001 64.5s60.667 24.5 96 24.5c24.667 0 47.167 -6 67.5 -18s35.833 -33.333 46.5 -64h2zM239.999 293.001c0 -28 8.66699 -51.001 26 -69.001
s40 -27 68 -27c23.333 0 44.5 7.5 63.5 22.5s35.333 33.333 49 55s24.167 44.667 31.5 69s11 46.166 11 65.499c0 10.667 -1.83301 22 -5.5 34s-9 22.833 -16 32.5s-15.5 17.667 -25.5 24s-21.333 9.5 -34 9.5c-24 0 -46.333 -6.83301 -67 -20.5s-38.5 -31.167 -53.5 -52.5
s-26.667 -44.666 -35 -69.999s-12.5 -49.666 -12.5 -72.999z" />
    <glyph glyph-name="A" unicode="A" horiz-adv-x="500" 
d="M155 268h192l-91 345h-2zM198 714h118l192 -714h-92l-51 196h-228l-53 -196h-92z" />
    <glyph glyph-name="B" unicode="B" horiz-adv-x="519" 
d="M146 406h101c9.33301 0 20.833 1 34.5 3s27 7 40 15s24 20 33 36s13.5 37.667 13.5 65c0 38 -9.5 67 -28.5 87s-50.5 30 -94.5 30h-99v-236zM58 714h219.001c23.333 0 46 -3 68 -9s41.5 -16.167 58.5 -30.5s30.667 -33.166 41 -56.499s15.5 -52.333 15.5 -87
c0 -16 -2.33301 -32 -7 -48s-11.5 -30.667 -20.5 -44s-20 -25 -33 -35s-27.5 -17.333 -43.5 -22v-2c44 -10.667 76.167 -31.667 96.5 -63s30.5 -69 30.5 -113c0 -72.667 -19.833 -124.834 -59.5 -156.501s-96.834 -47.5 -171.501 -47.5h-194v714zM146.001 72h120
c23.333 0 43 3.66699 59 11s28.833 17 38.5 29s16.667 26 21 42s6.5 32.667 6.5 50c0 24.667 -3.66699 45.5 -11 62.5s-17.333 31 -30 42s-27.5 19 -44.5 24s-35.167 7.5 -54.5 7.5h-105v-268z" />
    <glyph glyph-name="C" unicode="C" horiz-adv-x="519" 
d="M495 245c-2 -34 -7.16699 -66.5 -15.5 -97.5s-20.833 -58.5 -37.5 -82.5s-38.5 -43.167 -65.5 -57.5s-59.833 -21.5 -98.5 -21.5c-50.667 0 -91.167 10.833 -121.5 32.5s-53.5 50.167 -69.5 85.5s-26.5 75 -31.5 119s-7.5 88.667 -7.5 134
c0 44.667 2.66699 89.167 8 133.5s16.333 84.166 33 119.499s40 63.833 70 85.5s69.667 32.5 119 32.5c72.667 0 125.5 -19.333 158.5 -58s50.5 -93.334 52.5 -164.001h-92c-0.666992 20 -3 39.167 -7 57.5s-10.5 34.333 -19.5 48s-21 24.5 -36 32.5s-33.833 12 -56.5 12
c-30.667 0 -55 -7.83301 -73 -23.5s-31.833 -37 -41.5 -64s-16 -58.667 -19 -95s-4.5 -75.166 -4.5 -116.499s1.5 -80.166 4.5 -116.499s9.33301 -68 19 -95s23.5 -48.333 41.5 -64s42.333 -23.5 73 -23.5c26.667 0 48 5.66699 64 17s28.5 26 37.5 44s15 38 18 60
s4.83301 44 5.5 66h92z" />
    <glyph glyph-name="D" unicode="D" horiz-adv-x="556" 
d="M67 714l191.001 -0.00292969c55.333 0 99.5 -9.33301 132.5 -28s58.167 -44.167 75.5 -76.5s28.666 -70.166 33.999 -113.499s8 -89.666 8 -138.999c0 -45.333 -3.33301 -89.333 -10 -132s-19 -80.667 -37 -114s-42.667 -60.166 -74 -80.499s-71.333 -30.5 -120 -30.5
h-200v714zM155.001 71.9971h92c38 0 68.167 8.83301 90.5 26.5s39.333 40.167 51 67.5s19.167 57.833 22.5 91.5s5 66.5 5 98.5c0 34.667 -1.33301 69 -4 103s-9.5 64.5 -20.5 91.5s-27.833 49 -50.5 66s-54 25.5 -94 25.5h-92v-570z" />
    <glyph glyph-name="E" unicode="E" 
d="M58 714h369v-78h-281v-224h265v-78h-265v-256h293v-78h-381v714z" />
    <glyph glyph-name="F" unicode="F" horiz-adv-x="444" 
d="M58 714h369v-78h-281v-224h265v-78h-265v-334h-88v714z" />
    <glyph glyph-name="G" unicode="G" horiz-adv-x="537" 
d="M397 516c-1.33301 18.667 -4.16699 36.502 -8.5 53.502s-11 31.833 -20 44.5s-20.833 22.834 -35.5 30.501s-33 11.5 -55 11.5c-30.667 0 -55 -7.83301 -73 -23.5s-31.833 -37 -41.5 -64s-16 -58.667 -19 -95s-4.5 -75.166 -4.5 -116.499s1.5 -80.166 4.5 -116.499
s9.33301 -68 19 -95s23.5 -48.333 41.5 -64s42.333 -23.5 73 -23.5s54.667 8.16699 72 24.5s30.333 36.5 39 60.5s14.167 50 16.5 78s3.5 54 3.5 78h-141v72h221v-371h-66v97h-2c-9.33301 -30.667 -27.333 -56.834 -54 -78.501s-60 -32.5 -100 -32.5
c-46.667 0 -84.334 10.333 -113.001 31s-50.834 48.167 -66.501 82.5s-26.167 73.833 -31.5 118.5s-8 91 -8 139c0 44.667 2.66699 89.167 8 133.5s16.333 84.166 33 119.499s40 63.833 70 85.5s69.667 32.5 119 32.5c34 0 62.833 -4.33301 86.5 -13
s43.334 -19.834 59.001 -33.501s27.834 -28.834 36.501 -45.501s15.167 -32.834 19.5 -48.501s7 -30 8 -43s1.5 -22.5 1.5 -28.5h-92z" />
    <glyph glyph-name="H" unicode="H" horiz-adv-x="537" 
d="M479 0h-88v344h-245v-344h-88v714h88v-292h245v292h88v-714z" />
    <glyph glyph-name="I" unicode="I" horiz-adv-x="204" 
d="M58 714h88v-714h-88v714z" />
    <glyph glyph-name="J" unicode="J" horiz-adv-x="426" 
d="M368 205c0 -32 -2.50098 -61.335 -7.50098 -88.002s-14 -49.667 -27 -69s-31.167 -34.5 -54.5 -45.5s-53.333 -16.5 -90 -16.5c-30 0 -55.5 4.5 -76.5 13.5s-38.167 21 -51.5 36s-23.166 32.333 -29.499 52s-9.5 40.167 -9.5 61.5v59h84v-52
c0 -30 6.16699 -53.833 18.5 -71.5s33.5 -26.5 63.5 -26.5c20 0 36 3.16699 48 9.5s21.333 15.833 28 28.5s11 28.334 13 47.001s3 40.334 3 65.001v506h88v-509z" />
    <glyph glyph-name="K" unicode="K" horiz-adv-x="500" 
d="M58 714h88v-346h2l247 346h98l-216 -298l234 -416h-98l-193 344l-74 -101v-243h-88v714z" />
    <glyph glyph-name="L" unicode="L" horiz-adv-x="444" 
d="M58 714h88v-636h290v-78h-378v714z" />
    <glyph glyph-name="M" unicode="M" horiz-adv-x="704" 
d="M60 714h148l143 -566h2l143 566h148v-714h-88v624h-2l-158 -624h-88l-158 624h-2v-624h-88v714z" />
    <glyph glyph-name="N" unicode="N" horiz-adv-x="556" 
d="M58 714h87h27l236 -596h2v596h88v-714h-87h-34l-229 578h-2v-578h-88v714z" />
    <glyph glyph-name="O" unicode="O" horiz-adv-x="556" 
d="M278 656c-30.667 0 -55 -7.83301 -73 -23.5s-31.833 -37 -41.5 -64s-16 -58.667 -19 -95s-4.5 -75.166 -4.5 -116.499s1.5 -80.166 4.5 -116.499s9.33301 -68 19 -95s23.5 -48.333 41.5 -64s42.333 -23.5 73 -23.5s55 7.83301 73 23.5s31.833 37 41.5 64s16 58.667 19 95
s4.5 75.166 4.5 116.499s-1.5 80.166 -4.5 116.499s-9.33301 68 -19 95s-23.5 48.333 -41.5 64s-42.333 23.5 -73 23.5zM278 728c49.333 0 89 -10.833 119 -32.5s53.333 -50.167 70 -85.5s27.667 -75.166 33 -119.499s8 -88.833 8 -133.5c0 -45.333 -2.66699 -90 -8 -134
s-16.333 -83.667 -33 -119s-40 -63.833 -70 -85.5s-69.667 -32.5 -119 -32.5s-89 10.833 -119 32.5s-53.333 50.167 -70 85.5s-27.667 75 -33 119s-8 88.667 -8 134c0 44.667 2.66699 89.167 8 133.5s16.333 84.166 33 119.499s40 63.833 70 85.5s69.667 32.5 119 32.5z" />
    <glyph glyph-name="P" unicode="P" horiz-adv-x="481" 
d="M146 374h105c32 0 59.667 11.333 83 34s35 57.667 35 105c0 40 -9.66699 71.5 -29 94.5s-51 34.5 -95 34.5h-99v-268zM58 714h182c10 0 22.5 -0.333008 37.5 -1s30.667 -2.83398 47 -6.50098s32.666 -9.66699 48.999 -18s31 -20.166 44 -35.499
s23.5 -34.666 31.5 -57.999s12 -52 12 -86c0 -33.333 -5 -62.833 -15 -88.5s-24.167 -47.334 -42.5 -65.001s-40.166 -31 -65.499 -40s-53 -13.5 -83 -13.5h-109v-302h-88v714z" />
    <glyph glyph-name="Q" unicode="Q" horiz-adv-x="556" 
d="M274 137l49.001 53.999l66 -60c11.333 28 18.666 61.167 21.999 99.5s5 80.5 5 126.5c0 41.333 -1.5 80.166 -4.5 116.499s-9.33301 68 -19 95s-23.5 48.333 -41.5 64s-42.333 23.5 -73 23.5s-55 -7.83301 -73 -23.5s-31.833 -37 -41.5 -64s-16 -58.667 -19 -95
s-4.5 -75.166 -4.5 -116.499s1.5 -80.166 4.5 -116.499s9.33301 -68 19 -95s23.5 -48.333 41.5 -64s42.333 -23.5 73 -23.5c26 0 47.667 5.66699 65 17zM401.001 21.999c-15.333 -11.333 -33.333 -20.167 -54 -26.5s-43.667 -9.5 -69 -9.5c-49.333 0 -89 10.833 -119 32.5
s-53.333 50.167 -70 85.5s-27.667 75 -33 119s-8 88.667 -8 134c0 44.667 2.66699 89.167 8 133.5s16.333 84.166 33 119.499s40 63.833 70 85.5s69.667 32.5 119 32.5s89 -10.833 119 -32.5s53.333 -50.167 70 -85.5s27.667 -75.166 33 -119.499s8 -88.833 8 -133.5
c0 -25.333 -0.833008 -51 -2.5 -77s-4.5 -51.167 -8.5 -75.5s-9.83301 -47.5 -17.5 -69.5s-17.5 -42 -29.5 -60l72 -66l-49 -52z" />
    <glyph glyph-name="R" unicode="R" horiz-adv-x="519" 
d="M146 390l87.001 -0.00195312c12.667 0 27.5 0.666992 44.5 2s33.167 6.33301 48.5 15s28.166 22.334 38.499 41.001s15.5 45.334 15.5 80.001c0 36 -11 64 -33 84s-54 30 -96 30h-105v-252zM58.001 713.998l231.002 -0.00292969c56.667 0 101.334 -15.667 134.001 -47
s49 -75.333 49 -132c0 -19.333 -1.83301 -38.666 -5.5 -57.999s-9.83398 -37.166 -18.501 -53.499s-20 -30.666 -34 -42.999s-31.333 -20.833 -52 -25.5v-2c31.333 -3.33301 55.5 -16.333 72.5 -39s26.5 -49.334 28.5 -80.001l6 -122c0.666992 -20 2 -36.333 4 -49
s4.66699 -23.167 8 -31.5s7.16602 -14.833 11.499 -19.5s9.16602 -8.66699 14.499 -12h-106c-4 4 -7.33301 10 -10 18s-5 16.833 -7 26.5s-3.5 19.667 -4.5 30s-1.83301 19.833 -2.5 28.5l-6 111c-2 24.667 -6.5 43.834 -13.5 57.501s-15.5 24 -25.5 31
s-20.833 11.333 -32.5 13s-23.167 2.5 -34.5 2.5h-119v-318h-88v714z" />
    <glyph glyph-name="S" unicode="S" horiz-adv-x="500" 
d="M361 529c0 18.667 -1.83105 35.833 -5.49805 51.5s-9.83398 29 -18.501 40s-20.167 19.667 -34.5 26s-31.833 9.5 -52.5 9.5c-38 0 -67.167 -9.83301 -87.5 -29.5s-30.5 -48.5 -30.5 -86.5c0 -33.333 8.33301 -59 25 -77s37.5 -32.333 62.5 -43s52 -20.167 81 -28.5
s56 -19.5 81 -33.5s45.833 -33.333 62.5 -58s25 -58.667 25 -102c0 -41.333 -6.83301 -75.666 -20.5 -102.999s-31.167 -49 -52.5 -65s-45.166 -27.333 -71.499 -34s-52.166 -10 -77.499 -10c-42 0 -76.833 5.33301 -104.5 16s-49.667 26 -66 46s-28 44.833 -35 74.5
s-10.5 63.5 -10.5 101.5h88c0 -20 1 -39.833 3 -59.5s7.33301 -37.5 16 -53.5s22 -28.833 40 -38.5s43 -14.5 75 -14.5c17.333 0 33.666 3 48.999 9s28.5 14.5 39.5 25.5s19.667 24.167 26 39.5s9.5 32.666 9.5 51.999c0 25.333 -4.83301 46 -14.5 62
s-22.334 29.5 -38.001 40.5s-33.667 20 -54 27l-62 21.5c-21 7.33301 -41.667 15.5 -62 24.5s-38.333 20.667 -54 35s-28.334 32.5 -38.001 54.5s-14.5 49.333 -14.5 82c0 16.667 2.33301 36.167 7 58.5s14.5 43.833 29.5 64.5s36.167 38.167 63.5 52.5
s63.666 21.5 108.999 21.5c68.667 0 118.834 -16.5 150.501 -49.5s48.167 -82.833 49.5 -149.5h-88z" />
    <glyph glyph-name="T" unicode="T" 
d="M275 0h-88v636h-179v78h447v-78h-180v-636z" />
    <glyph glyph-name="U" unicode="U" horiz-adv-x="519" 
d="M50 714h88v-502c0 -52.667 9.16699 -91.5 27.5 -116.5s49.5 -37.5 93.5 -37.5c46.667 0 78.667 13.167 96 39.5s26 64.5 26 114.5v502h88v-502c0 -68.667 -17.5 -123.5 -52.5 -164.5s-87.5 -61.5 -157.5 -61.5c-72.667 0 -125.667 19 -159 57s-50 94.333 -50 169v502z
" />
    <glyph glyph-name="V" unicode="V" horiz-adv-x="462" 
d="M-2 714h92l140 -613h2l140 613h92l-180 -714h-112z" />
    <glyph glyph-name="W" unicode="W" horiz-adv-x="722" 
d="M8 714h88l109 -584h2l101 584h106l101 -584h2l109 584h88l-147 -714h-107l-98 578h-2l-103 -578h-107z" />
    <glyph glyph-name="X" unicode="X" horiz-adv-x="481" 
d="M16 714h98l130 -267l131 267h92l-178 -351l190 -363h-98l-142 286l-145 -286h-92l190 363z" />
    <glyph glyph-name="Y" unicode="Y" horiz-adv-x="462" 
d="M-2 714h97l136 -334l141 334h92l-189 -434v-280h-88v280z" />
    <glyph glyph-name="Z" unicode="Z" 
d="M23 74l321 562h-303v78h395v-81l-321 -555h325v-78h-417v74z" />
    <glyph glyph-name="bracketleft" unicode="[" horiz-adv-x="259" 
d="M78 714h179v-66h-101v-766h101v-66h-179v898z" />
    <glyph glyph-name="backslash" unicode="\" horiz-adv-x="278" 
d="M-10 728h66l232 -742h-66z" />
    <glyph glyph-name="bracketright" unicode="]" horiz-adv-x="259" 
d="M181 -184h-179v66h101v766h-101v66h179v-898z" />
    <glyph glyph-name="asciicircum" unicode="^" horiz-adv-x="600" 
d="M276 694h48l229 -433h-66l-187 361l-187 -361h-66z" />
    <glyph glyph-name="underscore" unicode="_" horiz-adv-x="500" 
d="M0 -75h500v-50h-500v50z" />
    <glyph glyph-name="grave" unicode="`" horiz-adv-x="204" 
d="M82 751l70 -142h-60l-108 142h98z" />
    <glyph glyph-name="a" unicode="a" horiz-adv-x="444" 
d="M301 292c-8 -8 -18.167 -14.667 -30.5 -20s-25.333 -10.166 -39 -14.499l-40 -13c-13 -4.33301 -24.167 -9.5 -33.5 -15.5c-13.333 -8.66699 -23.5 -19.167 -30.5 -31.5s-10.5 -30.166 -10.5 -53.499c0 -28 5.5 -50.333 16.5 -67s30.833 -25 59.5 -25
c14 0 27.5 2.66699 40.5 8s24.5 12.666 34.5 21.999s18 20.166 24 32.499s9 25.5 9 39.5v138zM42 374c0 60.667 13.998 105.17 41.998 133.503s74 42.5 138 42.5c40.667 0 72 -5.33301 94 -16s38.167 -24 48.5 -40s16.333 -32.833 18 -50.5s2.5 -33.5 2.5 -47.5v-299
c0 -11.333 1 -21.333 3 -30s9.66699 -13 23 -13c5.33301 0 9.5 0.5 12.5 1.5s5.5 2.16699 7.5 3.5v-60c-3.33301 -0.666992 -9.66602 -1.66699 -18.999 -3s-19.333 -2 -30 -2c-8 0 -16.167 0.333008 -24.5 1s-16.333 3.16699 -24 7.5s-14 11.166 -19 20.499
s-7.83301 22.666 -8.5 39.999h-2c-13.333 -24 -31.833 -42.833 -55.5 -56.5s-48.167 -20.5 -73.5 -20.5c-50 0 -86.833 14 -110.5 42s-35.5 66 -35.5 114c0 38 8.16699 69.5 24.5 94.5s41.833 42.833 76.5 53.5l113 34c15.333 4.66699 27.166 9.5 35.499 14.5
s14.333 10.5 18 16.5s5.83398 13 6.50098 21s1 17.667 1 29c0 52.667 -28.667 79 -86 79c-23.333 0 -41.166 -4.5 -53.499 -13.5s-21.333 -19.5 -27 -31.5s-9 -23.833 -10 -35.5s-1.5 -19.834 -1.5 -24.501v-5h-84z" />
    <glyph glyph-name="b" unicode="b" 
d="M55 714l84.002 0.000976562v-239h2c9.33301 23.333 25.333 41.666 48 54.999s48 20 76 20c36 0 64.833 -9.5 86.5 -28.5s38.167 -42.5 49.5 -70.5s18.666 -58.5 21.999 -91.5s5 -63.5 5 -91.5c0 -38 -3.33301 -74 -10 -108s-17 -63.833 -31 -89.5
s-32.167 -46.167 -54.5 -61.5s-48.833 -23 -79.5 -23c-14.667 0 -28.334 2.33301 -41.001 7s-24.167 10.667 -34.5 18s-19 15.833 -26 25.5s-11.833 19.5 -14.5 29.5h-2v-66h-80v714zM134.002 268.001c0 -27.333 1.33301 -53.6699 4 -79.0029s8 -47.666 16 -66.999
s19 -34.833 33 -46.5s32.333 -17.5 55 -17.5c19.333 0 35.333 5.16699 48 15.5s22.667 24.833 30 43.5s12.5 40.834 15.5 66.501s4.5 53.834 4.5 84.501c0 32 -1.5 61 -4.5 87s-8.16699 48 -15.5 66s-17.333 32 -30 42s-28.667 15 -48 15c-22.667 0 -41 -6 -55 -18
s-25 -28 -33 -48s-13.333 -42.5 -16 -67.5s-4 -50.5 -4 -76.5z" />
    <glyph glyph-name="c" unicode="c" horiz-adv-x="426" 
d="M310 373c0 12.667 -1.49902 25.6631 -4.49902 38.9961s-7.66699 25.333 -14 36s-15 19.334 -26 26.001s-24.5 10 -40.5 10c-13.333 0 -26.166 -2.33301 -38.499 -7s-23.5 -14.834 -33.5 -30.501s-18 -38.167 -24 -67.5s-9 -68.333 -9 -117c0 -17.333 0.5 -38 1.5 -62
s4.83301 -47 11.5 -69s16.834 -40.667 30.501 -56s33.167 -23 58.5 -23c18 0 32.667 4.33301 44 13s20.333 19.5 27 32.5s11.167 27.333 13.5 43s3.5 30.834 3.5 45.501h84c0 -21.333 -2.83301 -43.666 -8.5 -66.999s-15.334 -44.833 -29.001 -64.5s-31.834 -36 -54.501 -49
s-50.667 -19.5 -84 -19.5c-66 0 -113.5 22.667 -142.5 68s-43.5 114.333 -43.5 207c0 33.333 2.16699 67.166 6.5 101.499s13.333 65.333 27 93s33 50.334 58 68.001s58.167 26.5 99.5 26.5c36.667 0 66.167 -6.33301 88.5 -19s39.666 -28.167 51.999 -46.5
s20.5 -37.666 24.5 -57.999s6 -38.166 6 -53.499h-84z" />
    <glyph glyph-name="d" unicode="d" 
d="M408 0l-79.999 -0.00292969v66h-2c-2.66699 -10 -7.5 -19.833 -14.5 -29.5s-15.667 -18.167 -26 -25.5s-21.833 -13.333 -34.5 -18s-26.334 -7 -41.001 -7c-32 0 -59 6.83301 -81 20.5s-40 32.834 -54 57.501s-24.167 54.334 -30.5 89.001s-9.5 73 -9.5 115
c0 28 1.66699 58.5 5 91.5s10.833 63.5 22.5 91.5s28.667 51.5 51 70.5s52.5 28.5 90.5 28.5c24 0 47.333 -6.66699 70 -20s38.667 -31.666 48 -54.999h2v239h84v-714zM123.001 267.997c0 -32 1.49902 -61.002 4.49902 -87.002s8.16699 -48 15.5 -66s17.333 -32 30 -42
s28.667 -15 48 -15c22.667 0 41.167 5.16699 55.5 15.5s25.333 24.833 33 43.5s12.834 40.834 15.501 66.501s4 53.834 4 84.501c0 26 -1.33301 51.5 -4 76.5s-8 47.5 -16 67.5s-19 36 -33 48s-32.333 18 -55 18c-19.333 0 -35.333 -5 -48 -15s-22.667 -24 -30 -42
s-12.5 -40 -15.5 -66s-4.5 -55 -4.5 -87z" />
    <glyph glyph-name="e" unicode="e" horiz-adv-x="444" 
d="M125 258c0 -20.667 0.498047 -42.999 1.49805 -66.999s4.83301 -46.333 11.5 -67s16.834 -37.834 30.501 -51.501s33.5 -20.5 59.5 -20.5c20 0 36 4.5 48 13.5s21.167 20 27.5 33s10.5 26.667 12.5 41s3 26.5 3 36.5h84c0 -14 -2.5 -31.833 -7.5 -53.5
s-14.167 -42.667 -27.5 -63s-31.666 -37.666 -54.999 -51.999s-53.333 -21.5 -90 -21.5c-66 0 -113.5 22.667 -142.5 68s-43.5 114.333 -43.5 207c0 33.333 2.16699 67.166 6.5 101.499s13.333 65.333 27 93s33 50.334 58 68.001s58.167 26.5 99.5 26.5
c40.667 0 73 -8 97 -24s42 -36.5 54 -61.5s19.667 -52.833 23 -83.5s5 -60.334 5 -89.001v-34h-282zM318.998 324.001v28.998c0 14.667 -1.33301 29.834 -4 45.501s-7.5 29.834 -14.5 42.501s-16.5 23 -28.5 31s-27.333 12 -46 12c-22 0 -39.5 -5.83301 -52.5 -17.5
s-22.833 -25.167 -29.5 -40.5s-11 -30.833 -13 -46.5s-3 -27.5 -3 -35.5v-20h191z" />
    <glyph glyph-name="f" unicode="f" horiz-adv-x="259" 
d="M80 470h-78v66h78v63c0 40.667 9.16699 71.334 27.5 92.001s47.833 31 88.5 31h61v-72h-39c-18 0 -31.5 -3.83301 -40.5 -11.5s-13.5 -20.834 -13.5 -39.501v-63h92v-66h-92v-470h-84v470z" />
    <glyph glyph-name="g" unicode="g" 
d="M408 34c0 -40 -4.50098 -73.8301 -13.501 -101.497s-21.5 -50.167 -37.5 -67.5s-35.167 -29.833 -57.5 -37.5s-46.833 -11.5 -73.5 -11.5c-8 0 -21.167 0.666992 -39.5 2s-37 6.16602 -56 14.499s-36.333 21.666 -52 39.999s-25.167 44.166 -28.5 77.499h84
c2 -24.667 11.333 -42.167 28 -52.5s36 -15.5 58 -15.5c26.667 0 47.167 4.5 61.5 13.5s24.666 19.833 30.999 32.5s9.83301 25.834 10.5 39.501s1 25.167 1 34.5v70h-2c-9.33301 -22.667 -25.166 -40.334 -47.499 -53.001s-46.833 -19 -73.5 -19c-26 0 -48.167 5 -66.5 15
s-33.666 23 -45.999 39s-22 33.833 -29 53.5s-12.333 39.5 -16 59.5s-6 38.833 -7 56.5s-1.5 32.5 -1.5 44.5c0 36 2.66699 71 8 105s14.833 64.167 28.5 90.5s31.667 47.333 54 63s50.5 23.5 84.5 23.5c14.667 0 28.5 -2.33301 41.5 -7s24.5 -10.667 34.5 -18
s18.5 -16 25.5 -26s11.833 -20.333 14.5 -31h2v68h80v-502zM220.999 478.003c-19.333 0 -35.334 -5 -48.001 -15s-22.667 -24 -30 -42s-12.5 -40 -15.5 -66s-4.5 -55 -4.5 -87c0 -22 1.16699 -44.5 3.5 -67.5s6.83301 -44 13.5 -63s16.334 -34.667 29.001 -47
s29.667 -18.5 51 -18.5c22.667 0 41.167 5 55.5 15s25.5 23.833 33.5 41.5s13.333 38.5 16 62.5s4 49.667 4 77c0 26 -1.33301 51.5 -4 76.5s-8 47.5 -16 67.5s-19 36 -33 48s-32.333 18 -55 18z" />
    <glyph glyph-name="h" unicode="h" 
d="M55 714h83.998v-239h2c5.33301 10.667 12.833 20.667 22.5 30s20.334 17.333 32.001 24s24 11.834 37 15.501s25.5 5.5 37.5 5.5c34.667 0 61.334 -5.83301 80.001 -17.5s32.334 -26.167 41.001 -43.5s13.667 -35.833 15 -55.5s2 -37.5 2 -53.5v-380h-84v370
c0 10 -0.5 21.333 -1.5 34s-4.16699 24.5 -9.5 35.5s-13.333 20.167 -24 27.5s-25.334 11 -44.001 11c-11.333 0 -23.166 -2 -35.499 -6s-23.833 -10.333 -34.5 -19s-19.334 -19.834 -26.001 -33.501s-10 -30.167 -10 -49.5v-370h-84v714z" />
    <glyph glyph-name="i" unicode="i" horiz-adv-x="204" 
d="M60 714h84v-96h-84v96zM60 536h84v-536h-84v536z" />
    <glyph glyph-name="j" unicode="j" horiz-adv-x="204" 
d="M144 618h-84v96h84v-96zM144 -52c0 -44 -9.83301 -77 -29.5 -99s-52.5 -33 -98.5 -33c-6.66699 0 -13.167 0.333008 -19.5 1l-19.5 2v72l15.5 -2c5 -0.666992 10.167 -1 15.5 -1c12.667 0 22.667 2.33301 30 7s12.5 11 15.5 19s4.83301 17.5 5.5 28.5s1 22.833 1 35.5
v558h84v-588z" />
    <glyph glyph-name="k" unicode="k" horiz-adv-x="444" 
d="M455 0h-98l-149 265l-69 -84v-181h-84v714h84v-425h2l188 247h98l-163 -202z" />
    <glyph glyph-name="l" unicode="l" horiz-adv-x="204" 
d="M60 714h84v-714h-84v714z" />
    <glyph glyph-name="m" unicode="m" horiz-adv-x="722" 
d="M63 536l80.002 -0.00195312v-63h2c11.333 24.667 29.333 43.667 54 57s50 20 76 20c32 0 57.167 -6.5 75.5 -19.5s31.833 -34.833 40.5 -65.5c12 23.333 29.167 43.333 51.5 60s47.5 25 75.5 25c35.333 0 62.5 -5.83301 81.5 -17.5s33 -26.167 42 -43.5
s14.167 -35.833 15.5 -55.5s2 -37.5 2 -53.5v-380h-84v370c0 10 -0.5 21.333 -1.5 34s-3.83301 24.5 -8.5 35.5s-11.834 20.167 -21.501 27.5s-23.167 11 -40.5 11c-10 0 -20.833 -1.66699 -32.5 -5s-22.5 -9.16602 -32.5 -17.499s-18.333 -19.5 -25 -33.5
s-10 -31.333 -10 -52v-370h-84v370c0 10 -0.5 21.333 -1.5 34s-3.83301 24.5 -8.5 35.5s-11.834 20.167 -21.501 27.5s-23.167 11 -40.5 11c-10 0 -20.833 -1.66699 -32.5 -5s-22.5 -9.16602 -32.5 -17.499s-18.333 -19.5 -25 -33.5s-10 -31.333 -10 -52v-370h-84v536z" />
    <glyph glyph-name="n" unicode="n" 
d="M55 536l80.001 0.000976562v-63h2c11.333 24.667 29.333 43.667 54 57s50 20 76 20c35.333 0 62.5 -5.83301 81.5 -17.5s33 -26.167 42 -43.5s14.167 -35.833 15.5 -55.5s2 -37.5 2 -53.5v-380h-84v370c0 10 -0.5 21.333 -1.5 34s-4.16699 24.5 -9.5 35.5
s-13.333 20.167 -24 27.5s-25.334 11 -44.001 11c-11.333 0 -23.166 -2 -35.499 -6s-23.833 -10.333 -34.5 -19s-19.334 -19.834 -26.001 -33.501s-10 -30.167 -10 -49.5v-370h-84v536z" />
    <glyph glyph-name="o" unicode="o" horiz-adv-x="444" 
d="M29 268c0 38 2.83594 74 8.50293 108s15.667 63.833 30 89.5s34 46.167 59 61.5s56.833 23 95.5 23s70.5 -7.66699 95.5 -23s44.667 -35.833 59 -61.5s24.333 -55.5 30 -89.5s8.5 -70 8.5 -108s-2.83301 -74 -8.5 -108s-15.834 -63.833 -30.501 -89.5
s-34.334 -46.167 -59.001 -61.5s-56.334 -23 -95.001 -23s-70.5 7.66699 -95.5 23s-44.667 35.833 -59 61.5s-24.333 55.5 -30 89.5s-8.5 70 -8.5 108zM220.003 52c22 0 40.001 5.83301 54.001 17.5s25 27.334 33 47.001s13.333 42.5 16 68.5s4 53.667 4 83
c0 28.667 -1.33301 56.167 -4 82.5s-7.83398 49.333 -15.501 69s-18.5 35.334 -32.5 47.001s-32.333 17.5 -55 17.5c-21.333 0 -38.666 -5.83301 -51.999 -17.5s-23.833 -27.334 -31.5 -47.001s-12.834 -42.667 -15.501 -69s-4 -53.833 -4 -82.5
c0 -29.333 1.33301 -57 4 -83s7.66699 -48.833 15 -68.5s17.833 -35.334 31.5 -47.001s31.167 -17.5 52.5 -17.5z" />
    <glyph glyph-name="p" unicode="p" 
d="M55 536l80 0.000976562v-66h2c2.66699 10 7.5 19.833 14.5 29.5s15.667 18.167 26 25.5s21.833 13.333 34.5 18s26.334 7 41.001 7c32 0 59 -6.66699 81 -20s40 -32 54 -56s24.167 -52.667 30.5 -86s9.5 -70 9.5 -110c0 -30.667 -2.66699 -63 -8 -97
s-14.5 -65.5 -27.5 -94.5s-30.833 -53 -53.5 -72s-51.334 -28.5 -86.001 -28.5c-24 0 -46.333 6.66699 -67 20s-35.667 31.666 -45 54.999h-2v-237h-84v712zM134 268.001c0 -26 1.33398 -51.5 4.00098 -76.5s8 -47.5 16 -67.5s19 -36 33 -48s32.333 -18 55 -18
c19.333 0 35.333 5 48 15s22.667 24.333 30 43s12.5 41.667 15.5 69s4.5 58.333 4.5 93c0 29.333 -1.5 56.333 -4.5 81s-8.16699 45.834 -15.5 63.501s-17.333 31.334 -30 41.001s-28.667 14.5 -48 14.5c-23.333 0 -42 -5.16699 -56 -15.5s-24.833 -24.833 -32.5 -43.5
s-12.834 -40.834 -15.501 -66.501s-4 -53.834 -4 -84.501z" />
    <glyph glyph-name="q" unicode="q" 
d="M329 268c0 30.667 -1.33203 58.834 -3.99902 84.501s-7.83398 47.834 -15.501 66.501s-18.667 33.167 -33 43.5s-32.833 15.5 -55.5 15.5c-19.333 0 -35.333 -4.83301 -48 -14.5s-22.667 -23.334 -30 -41.001s-12.5 -38.834 -15.5 -63.501s-4.5 -51.667 -4.5 -81
c0 -34.667 1.5 -65.5 4.5 -92.5s8.16699 -50 15.5 -69s17.333 -33.5 30 -43.5s28.667 -15 48 -15c22.667 0 41 6 55 18s25 28 33 48s13.333 42.5 16 67.5s4 50.5 4 76.5zM324.001 61l-2 -0.000976562c-9.33301 -23.333 -24.333 -41.666 -45 -54.999s-43 -20 -67 -20
c-34.667 0 -63.334 8.33301 -86.001 25s-40.5 38.667 -53.5 66s-22.167 58.5 -27.5 93.5s-8 70.833 -8 107.5c0 40 3.16699 76.667 9.5 110s16.5 62 30.5 86s32 42.667 54 56s49 20 81 20c14.667 0 28.334 -2.33301 41.001 -7s24.167 -10.667 34.5 -18s19 -15.833 26 -25.5
s11.833 -19.5 14.5 -29.5h2v66h80v-712h-84v237z" />
    <glyph glyph-name="r" unicode="r" horiz-adv-x="296" 
d="M55 536h84v-80h2c6 12.667 12.5 24.667 19.5 36s15.167 21.333 24.5 30s19.833 15.5 31.5 20.5s25.167 7.5 40.5 7.5c16.667 0 29 -2 37 -6v-82l-15.5 2.5c-6.33301 1 -16.166 1.5 -29.499 1.5c-10.667 0 -22.334 -2.5 -35.001 -7.5s-24.5 -12.667 -35.5 -23
s-20.333 -23.5 -28 -39.5s-11.5 -35 -11.5 -57v-339h-84v536z" />
    <glyph glyph-name="s" unicode="s" horiz-adv-x="407" 
d="M285 379c0 34 -5.50293 60.002 -16.5029 78.002s-31.833 27 -62.5 27c-6.66699 0 -15 -0.833008 -25 -2.5s-19.5 -5.16699 -28.5 -10.5s-16.833 -13.5 -23.5 -24.5s-10 -25.833 -10 -44.5c0 -16 3.83301 -29 11.5 -39s17.667 -18.5 30 -25.5s26.333 -12.833 42 -17.5
l48.5 -15c16 -5.33301 31.833 -11.166 47.5 -17.499s29.667 -15 42 -26s22.333 -25 30 -42s11.5 -38.833 11.5 -65.5c0 -28 -4.33301 -52.5 -13 -73.5s-20.667 -38.5 -36 -52.5s-33.666 -24.5 -54.999 -31.5s-44.333 -10.5 -69 -10.5c-45.333 0 -80.5 7.33301 -105.5 22
s-43.333 32.167 -55 52.5s-18.5 41.166 -20.5 62.499s-3 39 -3 53h84c0 -16 1.33301 -31.5 4 -46.5s7.66699 -28.333 15 -40s17.5 -20.834 30.5 -27.501s29.833 -10 50.5 -10c6.66699 0 15 1 25 3s19.833 6.33301 29.5 13s17.834 15.667 24.501 27s10 26.666 10 45.999
c0 18 -3.83301 32.833 -11.5 44.5s-17.667 21.334 -30 29.001s-26.333 14.167 -42 19.5l-47.5 16c-16 5.33301 -32 11.166 -48 17.499s-30.167 14.833 -42.5 25.5s-22.333 24.667 -30 42s-11.5 39.666 -11.5 66.999c0 24.667 4.5 46.334 13.5 65.001s21.333 34.167 37 46.5
s33.834 21.5 54.501 27.5s42.667 9 66 9c38.667 0 69 -6 91 -18s38.333 -26.667 49 -44s17.167 -35.833 19.5 -55.5s3.5 -37.5 3.5 -53.5h-84z" />
    <glyph glyph-name="t" unicode="t" horiz-adv-x="259" 
d="M80 692l83.999 -0.00195312v-156h93v-66h-93v-344c0 -21.333 3.66699 -36.666 11 -45.999s22 -14 44 -14c9.33301 0 16.666 0.333008 21.999 1s10.333 1.33398 15 2.00098v-69c-5.33301 -1.33301 -13.666 -2.66602 -24.999 -3.99902s-25.666 -2 -42.999 -2
c-22 0 -40 2.16699 -54 6.5s-25 11 -33 20s-13.5 20.167 -16.5 33.5s-4.5 28.666 -4.5 45.999v370h-78v66h78v156z" />
    <glyph glyph-name="u" unicode="u" 
d="M408 0l-79.998 -0.000976562v63h-2c-11.333 -24.667 -29.333 -43.667 -54 -57s-50 -20 -76 -20c-35.333 0 -62.5 5.83301 -81.5 17.5s-33 26.167 -42 43.5s-14.167 35.833 -15.5 55.5s-2 37.5 -2 53.5v380h84v-370c0 -10 0.5 -21.333 1.5 -34s4.16699 -24.5 9.5 -35.5
s13.166 -20.167 23.499 -27.5s25.166 -11 44.499 -11c11.333 0 23.166 2 35.499 6s23.833 10.333 34.5 19s19.334 19.834 26.001 33.501s10 30.167 10 49.5v370h84v-536z" />
    <glyph glyph-name="v" unicode="v" horiz-adv-x="406" 
d="M10 536h92l100 -430h2l100 430h92l-145 -536h-96z" />
    <glyph glyph-name="w" unicode="w" horiz-adv-x="648" 
d="M10 536h88l86 -438h2l91 438h99l89 -438h2l83 438h88l-127 -536h-92l-94 438h-2l-90 -438h-98z" />
    <glyph glyph-name="x" unicode="x" horiz-adv-x="406" 
d="M16 536h92l97 -191l98 191h92l-140 -257l145 -279h-92l-107 212l-103 -212h-92l147 279z" />
    <glyph glyph-name="y" unicode="y" horiz-adv-x="406" 
d="M10 536h91.999l106 -430h2l94 430h92l-155 -572c-5.33301 -18.667 -11 -36.334 -17 -53.001s-14.167 -31.5 -24.5 -44.5s-23.5 -23.333 -39.5 -31s-36.667 -11.5 -62 -11.5c-16.667 0 -29.167 0.333008 -37.5 1s-16.166 1.33398 -23.499 2.00098v66
c12 -2 28.333 -3 49 -3c19.333 0 33.833 5 43.5 15s17.167 22.333 22.5 37l16 47z" />
    <glyph glyph-name="z" unicode="z" horiz-adv-x="389" 
d="M39 536h323v-70l-240 -394h238v-72h-333v66l243 398h-231v72z" />
    <glyph glyph-name="braceleft" unicode="{" horiz-adv-x="259" 
d="M2 295c22 0 40.167 9.49805 54.5 28.498s21.5 46.5 21.5 82.5v178c0 24.667 3 45.334 9 62.001s14 30 24 40s21.5 17.167 34.5 21.5s26.5 6.5 40.5 6.5h71v-66h-51c-12 0 -21.5 -2.5 -28.5 -7.5s-12 -11.5 -15 -19.5s-4.83301 -16.833 -5.5 -26.5s-1 -19.167 -1 -28.5
v-172c0 -24 -3.5 -44.167 -10.5 -60.5s-15.333 -29.333 -25 -39s-19.5 -16.667 -29.5 -21s-17.667 -6.83301 -23 -7.5v-2c5.33301 -0.666992 13 -3.16699 23 -7.5s19.833 -11.333 29.5 -21s18 -22.667 25 -39s10.5 -36.5 10.5 -60.5v-172
c0 -9.33301 0.333008 -18.833 1 -28.5s2.5 -18.5 5.5 -26.5s8 -14.5 15 -19.5s16.5 -7.5 28.5 -7.5h51v-66h-71c-14 0 -27.5 2.16699 -40.5 6.5s-24.5 11.5 -34.5 21.5s-18 23.333 -24 40s-9 37.334 -9 62.001v178c0 36 -7.16699 63.5 -21.5 82.5s-32.5 28.5 -54.5 28.5v60z
" />
    <glyph glyph-name="bar" unicode="|" horiz-adv-x="222" 
d="M78 728h66v-742h-66v742z" />
    <glyph glyph-name="braceright" unicode="}" horiz-adv-x="259" 
d="M257 235c-22 0 -40.167 -9.49805 -54.5 -28.498s-21.5 -46.5 -21.5 -82.5v-178c0 -24.667 -3 -45.334 -9 -62.001s-14 -30 -24 -40s-21.5 -17.167 -34.5 -21.5s-26.5 -6.5 -40.5 -6.5h-71v66h51c12 0 21.5 2.5 28.5 7.5s12 11.5 15 19.5s4.83301 16.833 5.5 26.5
s1 19.167 1 28.5v172c0 24 3.5 44.167 10.5 60.5s15.333 29.333 25 39s19.5 16.667 29.5 21s17.667 6.83301 23 7.5v2c-5.33301 0.666992 -13 3.16699 -23 7.5s-19.833 11.333 -29.5 21s-18 22.667 -25 39s-10.5 36.5 -10.5 60.5v172c0 9.33301 -0.333008 18.833 -1 28.5
s-2.5 18.5 -5.5 26.5s-8 14.5 -15 19.5s-16.5 7.5 -28.5 7.5h-51v66h71c14 0 27.5 -2.16699 40.5 -6.5s24.5 -11.5 34.5 -21.5s18 -23.333 24 -40s9 -37.334 9 -62.001v-178c0 -36 7.16699 -63.5 21.5 -82.5s32.5 -28.5 54.5 -28.5v-60z" />
    <glyph glyph-name="asciitilde" unicode="~" horiz-adv-x="600" 
d="M56 231c7.33301 10.667 15.4971 21.498 24.4971 32.498s19 21 30 30s23.333 16.333 37 22s28.5 8.5 44.5 8.5c8.66699 0 16.834 -0.166992 24.501 -0.5s15.334 -1.5 23.001 -3.5s16 -5 25 -9s19.5 -9.33301 31.5 -16l52 -30.5c18 -11 36.333 -16.5 55 -16.5
c11.333 0 22 2.5 32 7.5s19.333 11.333 28 19s16.167 15.667 22.5 24l16.5 22.5l42 -45c-7.33301 -10.667 -15.5 -21.667 -24.5 -33s-19 -21.5 -30 -30.5s-23.167 -16.333 -36.5 -22s-28.333 -8.5 -45 -8.5c-9.33301 0 -17.666 0.166992 -24.999 0.5s-14.833 1.5 -22.5 3.5
s-16 5 -25 9s-19.5 9.33301 -31.5 16l-52 30.5c-18 11 -36.333 16.5 -55 16.5c-11.333 0 -22 -2.66699 -32 -8s-19.333 -11.666 -28 -18.999s-16.167 -15.166 -22.5 -23.499l-16.5 -22.5z" />
    <glyph glyph-name="uni00A0" unicode="&#xa0;" horiz-adv-x="240" 
 />
    <glyph glyph-name="exclamdown" unicode="&#xa1;" horiz-adv-x="258" 
d="M175 442h-92v96h92v-96zM175 -176h-92l16 528h60z" />
    <glyph glyph-name="cent" unicode="&#xa2;" horiz-adv-x="480" 
d="M227 -14c-60 3.33301 -103 27.5039 -129 72.5039s-39 112.5 -39 202.5c0 32 2 64.333 6 97s12 62.667 24 90s29 50.333 51 69s51 29.667 87 33v70h42v-70c32 -2 58 -9.5 78 -22.5s35.5 -28.333 46.5 -46s18.333 -36.334 22 -56.001s5.5 -37.167 5.5 -52.5h-84
c0 12 -1.16699 24.167 -3.5 36.5s-6.16602 23.666 -11.499 33.999s-12.333 19.166 -21 26.499s-19.334 12 -32.001 14v-432c14 3.33301 25.333 9.5 34 18.5s15.5 19.833 20.5 32.5s8.5 26.167 10.5 40.5s3 28.5 3 42.5h84c0 -20.667 -2.5 -42.167 -7.5 -64.5
s-13.5 -43 -25.5 -62s-27.667 -35.333 -47 -49s-43.333 -21.834 -72 -24.501v-85h-42v85zM227 484.004c-10.667 -2.66699 -20.834 -8.00098 -30.501 -16.001s-18.167 -20.333 -25.5 -37s-13.166 -38.667 -17.499 -66s-6.5 -61.666 -6.5 -102.999c0 -17.333 0.5 -37 1.5 -59
s4 -43.5 9 -64.5s12.833 -39.5 23.5 -55.5s26 -26.333 46 -31v432z" />
    <glyph glyph-name="sterling" unicode="&#xa3;" horiz-adv-x="480" 
d="M363 505c0 18.667 -1.99414 36.1709 -5.99414 52.5039s-10.5 30.833 -19.5 43.5s-20.833 22.667 -35.5 30s-32.334 11 -53.001 11c-21.333 0 -39.333 -3.33301 -54 -10s-26.334 -15.167 -35.001 -25.5s-14.834 -21.666 -18.501 -33.999s-5.5 -24.166 -5.5 -35.499
s1.66699 -23.333 5 -36s7.66602 -25.667 12.999 -39s11.333 -26.833 18 -40.5l20 -39.5h164v-60h-142c11.333 -20.667 17 -43.334 17 -68.001c0 -20 -3.83301 -38.667 -11.5 -56s-17.5 -33.5 -29.5 -48.5s-25.667 -29.333 -41 -43l-45 -39.5l2 -2
c13.333 6.66699 27.333 13 42 19s29 9 43 9c13.333 0 24.5 -1.5 33.5 -4.5l27.5 -9.5c9.33301 -4 19 -7.5 29 -10.5s22 -4.5 36 -4.5c8 0 15.5 0.5 22.5 1.5s14.5 3 22.5 6s16.833 7 26.5 12s21.5 11.5 35.5 19.5l37 -67c-20.667 -14.667 -42.5 -26.667 -65.5 -36
s-47.167 -14 -72.5 -14c-16.667 0 -32.334 2.16699 -47.001 6.5s-28.667 9 -42 14s-26.666 9.66699 -39.999 14s-27 6.5 -41 6.5c-16 0 -32.333 -3.66699 -49 -11l-47 -22l-38 65l44 37.5c14.667 13 28 27 40 42s21.667 31.167 29 48.5s11 36.666 11 57.999
c0 14 -1.66699 27.667 -5 41s-8.66602 25.333 -15.999 36h-95v60h70l-16 31c-9.33301 18.667 -17.166 37.667 -23.499 57s-9.5 38.666 -9.5 57.999c0 28.667 5.16699 54.167 15.5 76.5s24.666 41.166 42.999 56.499s39.666 27 63.999 35s50.5 12 78.5 12
c29.333 0 56.166 -4 80.499 -12s45.166 -20.333 62.499 -37s30.833 -37.834 40.5 -63.501s14.5 -55.834 14.5 -90.501h-84z" />
    <glyph glyph-name="currency" unicode="&#xa4;" horiz-adv-x="480" 
d="M65 214c-14 18.667 -25.001 39.167 -33.001 61.5s-12 46.166 -12 71.499s4 49 12 71s19 42.333 33 61l-47 47l43 43l47 -47c38 30 82 45 132 45c25.333 0 49.166 -4 71.499 -12s42.5 -19 60.5 -33l47 47l43 -43l-47 -47c30 -38 45 -82 45 -132
c0 -25.333 -4 -49.166 -12 -71.499s-19.333 -42.5 -34 -60.5l48 -48l-42 -42l-48 48c-18 -14.667 -38.167 -26 -60.5 -34s-46.166 -12 -71.499 -12s-49.166 4 -71.499 12s-42.833 19 -61.5 33l-47 -47l-42 42zM91.999 347c0 -22 3.83301 -42.333 11.5 -61
s18.167 -34.834 31.5 -48.501s29 -24.5 47 -32.5s37.333 -12 58 -12s40 4 58 12s33.667 18.833 47 32.5s23.833 29.834 31.5 48.501s11.5 39 11.5 61s-3.83301 42.333 -11.5 61s-18.167 34.834 -31.5 48.501s-29 24.5 -47 32.5s-37.333 12 -58 12s-40 -4 -58 -12
s-33.667 -18.833 -47 -32.5s-23.833 -29.834 -31.5 -48.501s-11.5 -39 -11.5 -61z" />
    <glyph glyph-name="yen" unicode="&#xa5;" horiz-adv-x="480" 
d="M200 153h-147v60h147v60l-10 22h-137v60h110l-154 339h97l136 -324l141 324h88l-150 -339h110v-60h-137l-10 -22v-60h147v-60h-147v-153h-84v153z" />
    <glyph glyph-name="brokenbar" unicode="&#xa6;" horiz-adv-x="222" 
d="M78 728h66v-294h-66v294zM78 280h66v-294h-66v294z" />
    <glyph glyph-name="section" unicode="&#xa7;" horiz-adv-x="482" 
d="M250 203l59.999 -41.002c4.66699 2.66699 10.334 6.66699 17.001 12s13 11.833 19 19.5s11.167 16.834 15.5 27.501s6.5 22.667 6.5 36c0 22.667 -7.83301 42.334 -23.5 59.001s-33.5 31 -53.5 43l-110 68l-22 -17.5c-8 -6.33301 -15.333 -13.166 -22 -20.499
s-12.167 -15.833 -16.5 -25.5s-6.5 -20.5 -6.5 -32.5c0 -19.333 7.33301 -35.833 22 -49.5s30.667 -25.834 48 -36.501zM324.999 577.998c0 28 -8.66699 49 -26 63s-38 21 -62 21c-14.667 0 -27.334 -2.33301 -38.001 -7s-19.5 -10.667 -26.5 -18s-12.167 -15.5 -15.5 -24.5
s-5 -17.5 -5 -25.5c0 -11.333 2.33301 -21.5 7 -30.5s10.834 -17.167 18.501 -24.5s16.167 -14.333 25.5 -21s19 -13 29 -19l100 -60c16 -10 31.333 -20.167 46 -30.5s27.5 -21.833 38.5 -34.5s19.667 -26.667 26 -42s9.5 -33 9.5 -53
c0 -32.667 -8.83301 -61.167 -26.5 -85.5s-38.5 -44.833 -62.5 -61.5c20.667 -13.333 35.5 -31.333 44.5 -54s13.5 -46 13.5 -70c0 -25.333 -4.83301 -47.666 -14.5 -66.999s-22.5 -35.5 -38.5 -48.5s-34.5 -22.833 -55.5 -29.5s-42.833 -10 -65.5 -10
c-37.333 0 -67.833 6 -91.5 18s-42.334 26.667 -56.001 44s-23 36.166 -28 56.499s-7.5 38.833 -7.5 55.5h84c0 -30.667 8 -56.334 24 -77.001s41 -31 75 -31c18 0 32.667 3.16699 44 9.5s20.166 14 26.499 23s10.5 18.333 12.5 28s3 17.834 3 24.501
c0 12 -2.33301 23 -7 33s-11 19.333 -19 28s-17 16.834 -27 24.501s-20 14.834 -30 21.501l-113 70c-14 8.66699 -27.333 18.167 -40 28.5s-24 21.5 -34 33.5s-18 25 -24 39s-9 29 -9 45c0 18 2.5 33.833 7.5 47.5s11.833 26 20.5 37s19 21 31 30s25 18.167 39 27.5
c-19.333 12.667 -34.833 30 -46.5 52s-17.5 44.667 -17.5 68c0 24 5 45.167 15 63.5s23 33.666 39 45.999s34.333 21.5 55 27.5s42 9 64 9c27.333 0 50.5 -2.83301 69.5 -8.5s35 -12.834 48 -21.501s23.167 -18.667 30.5 -30s12.833 -22.5 16.5 -33.5
s6.33398 -21.5 8.00098 -31.5s2.83398 -18.333 3.50098 -25h-88z" />
    <glyph glyph-name="dieresis" unicode="&#xa8;" horiz-adv-x="204" 
d="M144 731h78v-101h-78v101zM-18 731h78v-101h-78v101z" />
    <glyph glyph-name="copyright" unicode="&#xa9;" horiz-adv-x="800" 
d="M400 46c42 0 81.667 8.16699 119 24.5s69.666 38.5 96.999 66.5s49 60.833 65 98.5s24 78.167 24 121.5c0 42.667 -8 83 -24 121s-37.667 71 -65 99s-59.666 50.167 -96.999 66.5s-77 24.5 -119 24.5s-81.667 -8.16699 -119 -24.5s-69.666 -38.5 -96.999 -66.5
s-49 -61 -65 -99s-24 -78.333 -24 -121c0 -43.333 8 -83.833 24 -121.5s37.667 -70.5 65 -98.5s59.666 -50.167 96.999 -66.5s77 -24.5 119 -24.5zM29 357c0 51.333 9.66699 99.5 29 144.5s45.833 84.333 79.5 118s73 60.167 118 79.5s93.167 29 144.5 29
s99.5 -9.66699 144.5 -29s84.333 -45.833 118 -79.5s60.167 -73 79.5 -118s29 -93.167 29 -144.5s-9.66699 -99.5 -29 -144.5s-45.833 -84.333 -79.5 -118s-73 -60.167 -118 -79.5s-93.167 -29 -144.5 -29s-99.5 9.66699 -144.5 29s-84.333 45.833 -118 79.5
s-60.167 73 -79.5 118s-29 93.167 -29 144.5zM603 279c-3.33301 -25.333 -10.833 -47.665 -22.5 -66.998s-26.334 -35.5 -44.001 -48.5s-37.667 -22.833 -60 -29.5s-45.833 -10 -70.5 -10c-34 0 -64.5 5.66699 -91.5 17s-50 27.166 -69 47.499s-33.5 44.5 -43.5 72.5
s-15 59 -15 93s5 65 15 93s24.5 52.167 43.5 72.5s42 36.166 69 47.499s57.5 17 91.5 17c24.667 0 48.167 -3.16699 70.5 -9.5s42.333 -16 60 -29s32.334 -29.167 44.001 -48.5s19.167 -42 22.5 -68h-60c-5.33301 26.667 -20 49.167 -44 67.5s-55 27.5 -93 27.5
c-23.333 0 -44.5 -4.5 -63.5 -13.5s-35.167 -21.167 -48.5 -36.5s-23.5 -33.333 -30.5 -54s-10.5 -42.667 -10.5 -66s3.5 -45.333 10.5 -66s17.167 -38.667 30.5 -54s29.5 -27.5 48.5 -36.5s40.167 -13.5 63.5 -13.5c38 0 69 9.16699 93 27.5s38.667 40.833 44 67.5h60z" />
    <glyph glyph-name="ordfeminine" unicode="&#xaa;" horiz-adv-x="289" 
d="M191 547c-5.33301 -5.33301 -12.0029 -9.50098 -20.0029 -12.501s-16.5 -5.83301 -25.5 -8.5l-26 -7.5c-8.33301 -2.33301 -15.5 -5.5 -21.5 -9.5c-7.33301 -5.33301 -13.166 -10.833 -17.499 -16.5s-6.5 -15.167 -6.5 -28.5s3.33301 -24.833 10 -34.5
s18.667 -14.5 36 -14.5c8.66699 0 17.334 1.66699 26.001 5s16.334 7.5 23.001 12.5s12 10.833 16 17.5s6 13.334 6 20.001v77zM250.997 435.999c0 -6.66699 0.668945 -12.833 2.00195 -18.5s6.33301 -8.5 15 -8.5c3.33301 0 6 0.333008 8 1s3.66699 1.33398 5 2.00098v-42
c-2 -0.666992 -6.33301 -1.33398 -13 -2.00098s-15 -1 -25 -1c-13.333 0 -24.833 3.33301 -34.5 10s-14.834 18.667 -15.501 36h-2c-8 -14.667 -19.833 -26 -35.5 -34s-33.167 -12 -52.5 -12c-32 0 -55.833 8.5 -71.5 25.5s-23.5 39.5 -23.5 67.5c0 24 5.66699 43.5 17 58.5
s29.666 26.167 54.999 33.5l73 20c18.667 5.33301 29.667 11.333 33 18s5 15.667 5 27c0 15.333 -4.66699 26.333 -14 33s-22.666 10 -39.999 10c-14.667 0 -26 -2.5 -34 -7.5s-13.833 -10.833 -17.5 -17.5s-5.83398 -13.167 -6.50098 -19.5s-1 -10.833 -1 -13.5v-4h-60
c0 40 9.5 68.333 28.5 85s51.833 25 98.5 25c26.667 0 47.167 -3.33301 61.5 -10s24.833 -15 31.5 -25s10.5 -20.5 11.5 -31.5s1.5 -20.833 1.5 -29.5v-176z" />
    <glyph glyph-name="guillemotleft" unicode="&#xab;" horiz-adv-x="389" 
d="M49 323l142 143v-88l-94 -94l94 -94v-88l-142 143v78zM198 323l142 143v-88l-94 -94l94 -94v-88l-142 143v78z" />
    <glyph glyph-name="logicalnot" unicode="&#xac;" horiz-adv-x="600" 
d="M487 322h-440v66h506v-282h-66v216z" />
    <glyph glyph-name="uni00AD" unicode="&#xad;" horiz-adv-x="352" 
d="M54 323h244v-78h-244v78z" />
    <glyph glyph-name="registered" unicode="&#xae;" horiz-adv-x="800" 
d="M400 46c42 0 81.667 8.16699 119 24.5s69.666 38.5 96.999 66.5s49 60.833 65 98.5s24 78.167 24 121.5c0 42.667 -8 83 -24 121s-37.667 71 -65 99s-59.666 50.167 -96.999 66.5s-77 24.5 -119 24.5s-81.667 -8.16699 -119 -24.5s-69.666 -38.5 -96.999 -66.5
s-49 -61 -65 -99s-24 -78.333 -24 -121c0 -43.333 8 -83.833 24 -121.5s37.667 -70.5 65 -98.5s59.666 -50.167 96.999 -66.5s77 -24.5 119 -24.5zM29 357c0 51.333 9.66699 99.5 29 144.5s45.833 84.333 79.5 118s73 60.167 118 79.5s93.167 29 144.5 29
s99.5 -9.66699 144.5 -29s84.333 -45.833 118 -79.5s60.167 -73 79.5 -118s29 -93.167 29 -144.5s-9.66699 -99.5 -29 -144.5s-45.833 -84.333 -79.5 -118s-73 -60.167 -118 -79.5s-93.167 -29 -144.5 -29s-99.5 9.66699 -144.5 29s-84.333 45.833 -118 79.5
s-60.167 73 -79.5 118s-29 93.167 -29 144.5zM389 380c14.667 0 28.8311 0.501953 42.498 1.50195s25.834 3.66699 36.501 8s19 11.166 25 20.499s9 22 9 38c0 14 -2.66699 25.333 -8 34s-12.5 15.167 -21.5 19.5s-19.167 7.16602 -30.5 8.49902s-22.666 2 -33.999 2h-90
v-132h71zM251.997 572.002h168c48 0 84.667 -10.167 110 -30.5s38 -52.5 38 -96.5c0 -38.667 -11 -67.5 -33 -86.5s-50 -30.167 -84 -33.5l124 -187h-66l-120 182h-71v-182h-66v434z" />
    <glyph glyph-name="macron" unicode="&#xaf;" horiz-adv-x="204" 
d="M-30 707h264v-54h-264v54z" />
    <glyph glyph-name="degree" unicode="&#xb0;" horiz-adv-x="400" 
d="M105 559c0 -13.333 2.5 -25.666 7.5 -36.999s11.833 -21.333 20.5 -30s18.667 -15.5 30 -20.5s23.666 -7.5 36.999 -7.5c12.667 0 24.834 2.5 36.501 7.5s21.834 11.833 30.501 20.5s15.5 18.667 20.5 30s7.5 23.666 7.5 36.999c0 12.667 -2.5 24.834 -7.5 36.501
s-11.833 21.834 -20.5 30.501s-18.834 15.5 -30.501 20.5s-23.834 7.5 -36.501 7.5c-13.333 0 -25.666 -2.5 -36.999 -7.5s-21.333 -11.833 -30 -20.5s-15.5 -18.834 -20.5 -30.501s-7.5 -23.834 -7.5 -36.501zM51 559c0 21.333 3.66699 41.166 11 59.499
s17.666 34.166 30.999 47.499s29.166 23.666 47.499 30.999s38.166 11 59.499 11s41.166 -3.66699 59.499 -11s34.166 -17.666 47.499 -30.999s23.666 -29.166 30.999 -47.499s11 -38.166 11 -59.499s-3.66699 -41.166 -11 -59.499s-17.666 -34.166 -30.999 -47.499
s-29.166 -23.666 -47.499 -30.999s-38.166 -11 -59.499 -11s-41.166 3.66699 -59.499 11s-34.166 17.666 -47.499 30.999s-23.666 29.166 -30.999 47.499s-11 38.166 -11 59.499z" />
    <glyph glyph-name="plusminus" unicode="&#xb1;" horiz-adv-x="600" 
d="M47 66h506v-66h-506v66zM47 361h220v145h66v-145h220v-66h-220v-145h-66v145h-220v66z" />
    <glyph glyph-name="twosuperior" unicode="&#xb2;" horiz-adv-x="312" 
d="M21 280c0 20 2.83008 38.335 8.49707 55.002s13.167 32.167 22.5 46.5s20 27.5 32 39.5s24.333 23.333 37 34l37 30c19.333 15.333 34.5 30.5 45.5 45.5s16.5 34.167 16.5 57.5c0 17.333 -5 31.666 -15 42.999s-27 17 -51 17c-14 0 -25.167 -2.83301 -33.5 -8.5
s-14.666 -12.5 -18.999 -20.5s-7 -16.333 -8 -25s-1.5 -16 -1.5 -22h-72c0 19.333 2.33301 37.333 7 54s12.5 31 23.5 43s25.333 21.5 43 28.5s39.5 10.5 65.5 10.5c38.667 0 70.5 -9.5 95.5 -28.5s37.5 -47.5 37.5 -85.5c0 -32.667 -7 -59.167 -21 -79.5
s-34 -40.833 -60 -61.5l-62 -50c-13.333 -10.667 -23.666 -21.334 -30.999 -32.001s-12.666 -21 -15.999 -31h180v-60h-261z" />
    <glyph glyph-name="threesuperior" unicode="&#xb3;" horiz-adv-x="312" 
d="M116 528l23.9961 0.000976562c24 0 42 6.66699 54 20s18 29.666 18 48.999c0 15.333 -4.5 28.666 -13.5 39.999s-22.833 17 -41.5 17c-14 0 -25.167 -2.5 -33.5 -7.5s-14.5 -11.167 -18.5 -18.5s-6.66699 -14.833 -8 -22.5s-2 -14.5 -2 -20.5h-72
c0 36.667 10.333 66.334 31 89.001s55.667 34 105 34c26 0 47 -3.5 63 -10.5s28.667 -16 38 -27s15.666 -23 18.999 -36s5 -25.5 5 -37.5c0 -21.333 -7 -40.666 -21 -57.999s-35 -28.666 -63 -33.999v-2c28.667 -4.66699 51.834 -14.834 69.501 -30.501
s26.5 -38.5 26.5 -68.5c0 -40 -11 -71.833 -33 -95.5s-56.333 -35.5 -103 -35.5c-33.333 0 -59.5 5.33301 -78.5 16s-33.333 22.667 -43 36s-15.834 26.5 -18.501 39.5s-4 21.833 -4 26.5v5h72c0 -8 1.33301 -16 4 -24s6.83398 -15.333 12.501 -22
s12.834 -12.167 21.501 -16.5s19.334 -6.5 32.001 -6.5c6.66699 0 13.834 1.16699 21.501 3.5s14.834 6.16602 21.501 11.499s12.167 12.833 16.5 22.5s6.5 21.5 6.5 35.5c0 22.667 -6.33301 40.667 -19 54s-33 20 -61 20h-28v54z" />
    <glyph glyph-name="acute" unicode="&#xb4;" horiz-adv-x="204" 
d="M122 751h98l-108 -142h-60z" />
    <glyph glyph-name="mu" unicode="&#xb5;" 
d="M408 0l-79.998 -0.000976562v63h-2c-11.333 -24.667 -29.333 -43.667 -54 -57s-50 -20 -76 -20c-11.333 0 -21.833 1 -31.5 3s-18.167 5.66699 -25.5 11v-176h-84v712h84v-370c0 -10 0.5 -21.333 1.5 -34s4.16699 -24.5 9.5 -35.5s13.166 -20.167 23.499 -27.5
s25.166 -11 44.499 -11c11.333 0 23.166 2 35.499 6s23.833 10.333 34.5 19s19.334 19.834 26.001 33.501s10 30.167 10 49.5v370h84v-536z" />
    <glyph glyph-name="paragraph" unicode="&#xb6;" horiz-adv-x="556" 
d="M411 660l-100 -0.00195312v-800h-66v462c-30.667 0 -58.834 4.83301 -84.501 14.5s-47.667 22.834 -66 39.501s-32.666 36.334 -42.999 59.001s-15.5 47 -15.5 73c0 32.667 5.66699 61.667 17 87s27.5 46.833 48.5 64.5s45.833 31.167 74.5 40.5s60.667 14 96 14h205
v-854h-66v800z" />
    <glyph glyph-name="periodcentered" unicode="&#xb7;" horiz-adv-x="240" 
d="M64 327c0 15.333 5.5 28.5 16.5 39.5s24.167 16.5 39.5 16.5s28.5 -5.5 39.5 -16.5s16.5 -24.167 16.5 -39.5s-5.5 -28.5 -16.5 -39.5s-24.167 -16.5 -39.5 -16.5s-28.5 5.5 -39.5 16.5s-16.5 24.167 -16.5 39.5z" />
    <glyph glyph-name="cedilla" unicode="&#xb8;" horiz-adv-x="204" 
d="M14 -156c0.666992 0 3.5 -0.667969 8.5 -2.00098s10.833 -2.66602 17.5 -3.99902l20.5 -4c7 -1.33301 12.833 -2 17.5 -2c20.667 0 35 4 43 12s12 17 12 27c0 11.333 -4.83301 20.333 -14.5 27s-20.5 10 -32.5 10c-8.66699 0 -16.5 -0.833008 -23.5 -2.5
s-12.5 -3.16699 -16.5 -4.5l-15 18l59 81h42l-39 -54l2 -2c5.33301 1.33301 10 2.33301 14 3s9.33301 1 16 1c8.66699 0 17.667 -1.16699 27 -3.5s18 -6.33301 26 -12s14.5 -13.167 19.5 -22.5s7.5 -21.333 7.5 -36c0 -12 -3 -23 -9 -33s-13.833 -18.833 -23.5 -26.5
s-21 -13.667 -34 -18s-26.5 -6.5 -40.5 -6.5c-18.667 0 -37 2 -55 6s-32.667 8.66699 -44 14z" />
    <glyph glyph-name="onesuperior" unicode="&#xb9;" horiz-adv-x="312" 
d="M128 593l-96 -0.000976562v48c14 0 27.667 0.666992 41 2s25.166 4.33301 35.499 9s18.833 11.334 25.5 20.001s10.334 20.667 11.001 36h49v-428h-66v313z" />
    <glyph glyph-name="ordmasculine" unicode="&#xba;" horiz-adv-x="289" 
d="M143 415c12.667 0 23.168 3.66699 31.501 11s15 16.833 20 28.5s8.33301 24.834 10 39.501s2.5 29.667 2.5 45c0 14.667 -0.833008 29.167 -2.5 43.5s-4.83398 27.166 -9.50098 38.499s-11.167 20.666 -19.5 27.999s-19.166 11 -32.499 11c-12 0 -22 -3.66699 -30 -11
s-14.333 -16.666 -19 -27.999s-7.83398 -24.166 -9.50098 -38.499s-2.5 -28.833 -2.5 -43.5c0 -15.333 0.833008 -30.333 2.5 -45s4.66699 -27.834 9 -39.501s10.5 -21.167 18.5 -28.5s18.333 -11 31 -11zM143.001 708c26 0 47.499 -4.66699 64.499 -14
s30.333 -21.833 40 -37.5s16.334 -33.667 20.001 -54s5.5 -41.5 5.5 -63.5c0 -22.667 -1.83301 -44.334 -5.5 -65.001s-10.5 -39 -20.5 -55s-23.333 -28.667 -40 -38s-38 -14 -64 -14c-25.333 0 -46.333 4.66699 -63 14s-29.667 22 -39 38s-15.833 34.333 -19.5 55
s-5.5 42.334 -5.5 65.001c0 22 1.83301 43.167 5.5 63.5s10.167 38.333 19.5 54s22.333 28.167 39 37.5s37.667 14 63 14z" />
    <glyph glyph-name="guillemotright" unicode="&#xbb;" horiz-adv-x="389" 
d="M191 245l-142 -143v88l94 94l-94 94v88l142 -143v-78zM340 245l-142 -143v88l94 94l-94 94v88l142 -143v-78z" />
    <glyph glyph-name="onequarter" unicode="&#xbc;" horiz-adv-x="721" 
d="M32 641c14 0 27.667 0.666016 41 1.99902s25.166 4.33301 35.499 9s18.833 11.334 25.5 20.001s10.334 20.667 11.001 36h49v-428h-66v313h-96v48zM527 724.999h60l-434 -756h-60zM560 427.999h72v-275h47v-54h-47v-99h-66v99h-166v60zM566 152.999v185h-2l-110 -185h112
z" />
    <glyph glyph-name="onehalf" unicode="&#xbd;" horiz-adv-x="721" 
d="M420 0c0 20 2.83008 38.335 8.49707 55.002s13.167 32.167 22.5 46.5s20 27.5 32 39.5s24.333 23.333 37 34l37 30c19.333 15.333 34.5 30.5 45.5 45.5s16.5 34.167 16.5 57.5c0 17.333 -5 31.666 -15 42.999s-27 17 -51 17c-14 0 -25.167 -2.83301 -33.5 -8.5
s-14.666 -12.5 -18.999 -20.5s-7 -16.333 -8 -25s-1.5 -16 -1.5 -22h-72c0 19.333 2.33301 37.333 7 54s12.5 31 23.5 43s25.333 21.5 43 28.5s39.5 10.5 65.5 10.5c38.667 0 70.5 -9.5 95.5 -28.5s37.5 -47.5 37.5 -85.5c0 -32.667 -7 -59.167 -21 -79.5
s-34 -40.833 -60 -61.5l-62 -50c-13.333 -10.667 -23.666 -21.334 -30.999 -32.001s-12.666 -21 -15.999 -31h180v-60h-261zM29.9971 641.002c14 0 27.667 0.666016 41 1.99902s25.166 4.33301 35.499 9s18.833 11.334 25.5 20.001s10.334 20.667 11.001 36h49v-428h-66v313
h-96v48zM507.997 725.001h60l-434 -756h-60z" />
    <glyph glyph-name="threequarters" unicode="&#xbe;" horiz-adv-x="721" 
d="M120 528l23.9961 0.000976562c24 0 42 6.66699 54 20s18 29.666 18 48.999c0 15.333 -4.5 28.666 -13.5 39.999s-22.833 17 -41.5 17c-14 0 -25.167 -2.5 -33.5 -7.5s-14.5 -11.167 -18.5 -18.5s-6.66699 -14.833 -8 -22.5s-2 -14.5 -2 -20.5h-72
c0 36.667 10.333 66.334 31 89.001s55.667 34 105 34c26 0 47 -3.5 63 -10.5s28.667 -16 38 -27s15.666 -23 18.999 -36s5 -25.5 5 -37.5c0 -21.333 -7 -40.666 -21 -57.999s-35 -28.666 -63 -33.999v-2c28.667 -4.66699 51.834 -14.834 69.501 -30.501
s26.5 -38.5 26.5 -68.5c0 -40 -11 -71.833 -33 -95.5s-56.333 -35.5 -103 -35.5c-33.333 0 -59.5 5.33301 -78.5 16s-33.333 22.667 -43 36s-15.834 26.5 -18.501 39.5s-4 21.833 -4 26.5v5h72c0 -8 1.33301 -16 4 -24s6.83398 -15.333 12.501 -22
s12.834 -12.167 21.501 -16.5s19.334 -6.5 32.001 -6.5c6.66699 0 13.834 1.16699 21.501 3.5s14.834 6.16602 21.501 11.499s12.167 12.833 16.5 22.5s6.5 21.5 6.5 35.5c0 22.667 -6.33301 40.667 -19 54s-33 20 -61 20h-28v54zM578.996 725.001h60l-434 -756h-60z
M581.996 428.001h72v-275h47v-54h-47v-99h-66v99h-166v60zM587.996 153.001v185h-2l-110 -185h112z" />
    <glyph glyph-name="questiondown" unicode="&#xbf;" horiz-adv-x="444" 
d="M279 442h-92v96h92v-96zM409 34c0 -29.333 -3.66895 -57.1709 -11.002 -83.5039s-18.5 -49.5 -33.5 -69.5s-34.333 -35.833 -58 -47.5s-51.5 -17.5 -83.5 -17.5c-30 0 -56.667 4.83301 -80 14.5s-43 22.834 -59 39.501s-28.167 36.5 -36.5 59.5s-12.5 47.833 -12.5 74.5
c0 25.333 4.33301 50.333 13 75s21 46.667 37 66c2.66699 2.66699 7.83398 8.33398 15.501 17.001l24.5 27c8.66699 9.33301 16.667 18.333 24 27s12 14.334 14 17.001c12.667 16 21.167 32.833 25.5 50.5s6.5 34.167 6.5 49.5v19h78c0 -20 -0.833008 -41 -2.5 -63
s-7.16699 -42 -16.5 -60c-6 -10.667 -13.5 -22 -22.5 -34s-18.333 -23.667 -28 -35l-28 -32.5l-22.5 -26.5c-11.333 -15.333 -19.166 -30.5 -23.499 -45.5s-6.5 -33.833 -6.5 -56.5c0 -14.667 2 -28.667 6 -42s10 -25.166 18 -35.499s18.167 -18.5 30.5 -24.5
s26.5 -9 42.5 -9c24 0 43 5.33301 57 16s24.5 23.5 31.5 38.5s11.5 31 13.5 48s3 31.5 3 43.5h84z" />
    <glyph glyph-name="Agrave" unicode="&#xc0;" horiz-adv-x="500" 
d="M155 268h192l-91 345h-2zM198 714h118l192 -714h-92l-51 196h-228l-53 -196h-92zM243 915l70 -142h-60l-108 142h98z" />
    <glyph glyph-name="Aacute" unicode="&#xc1;" horiz-adv-x="500" 
d="M155 268h192l-91 345h-2zM198 714h118l192 -714h-92l-51 196h-228l-53 -196h-92zM270 915h98l-108 -142h-60z" />
    <glyph glyph-name="Acircumflex" unicode="&#xc2;" horiz-adv-x="500" 
d="M155 268h192l-91 345h-2zM198 714h118l192 -714h-92l-51 196h-228l-53 -196h-92zM219 915h77l100 -142h-78l-61 88l-61 -88h-78z" />
    <glyph glyph-name="Atilde" unicode="&#xc3;" horiz-adv-x="500" 
d="M155 268h192l-91 345h-2zM198 714h118l192 -714h-92l-51 196h-228l-53 -196h-92zM405 903c0 -12.667 -1.83105 -25.499 -5.49805 -38.499s-9 -24.833 -16 -35.5s-16 -19.5 -27 -26.5s-23.5 -10.5 -37.5 -10.5c-10.667 0 -21.667 2 -33 6s-22.166 8.33301 -32.499 13
l-28.5 13c-8.66699 4 -15.667 6 -21 6c-13.333 0 -22.833 -5.16699 -28.5 -15.5s-9.16699 -20.166 -10.5 -29.499h-54c0 14.667 2.33301 28.667 7 42s11.167 25.166 19.5 35.499s18.166 18.5 29.499 24.5s23.666 9 36.999 9c9.33301 0 19.166 -1.83301 29.499 -5.5
s20.5 -8.16699 30.5 -13.5l28.5 -13c9 -4 16.833 -6 23.5 -6c12.667 0 21.167 5.16699 25.5 15.5s7.5 20.166 9.5 29.499h54z" />
    <glyph glyph-name="Adieresis" unicode="&#xc4;" horiz-adv-x="500" 
d="M155 268h192l-91 345h-2zM198 714h118l192 -714h-92l-51 196h-228l-53 -196h-92zM298 895h78v-101h-78v101zM136 895h78v-101h-78v101z" />
    <glyph glyph-name="Aring" unicode="&#xc5;" horiz-adv-x="500" 
d="M155 268h192l-91 345h-2zM198 714h118l192 -714h-92l-51 196h-228l-53 -196h-92zM200 844c0 -15.333 5.66699 -28.666 17 -39.999s24.666 -17 39.999 -17s28.666 5.66699 39.999 17s17 24.666 17 39.999s-5.66699 28.666 -17 39.999s-24.666 17 -39.999 17
s-28.666 -5.66699 -39.999 -17s-17 -24.666 -17 -39.999zM158 844c0 28 9.5 51.5 28.5 70.5s42.5 28.5 70.5 28.5s51.5 -9.5 70.5 -28.5s28.5 -42.5 28.5 -70.5s-9.5 -51.5 -28.5 -70.5s-42.5 -28.5 -70.5 -28.5s-51.5 9.5 -70.5 28.5s-28.5 42.5 -28.5 70.5z" />
    <glyph glyph-name="AE" unicode="&#xc6;" horiz-adv-x="722" 
d="M268 714h418v-78h-266v-224h250v-78h-250v-256h278v-78h-366v196h-175l-73 -196h-92zM182 268h150v374h-10z" />
    <glyph glyph-name="Ccedilla" unicode="&#xc7;" horiz-adv-x="519" 
d="M176 -156c0.666992 0 3.5 -0.665039 8.5 -1.99805s10.833 -2.66602 17.5 -3.99902l20.5 -4c7 -1.33301 12.833 -2 17.5 -2c20.667 0 35 4 43 12s12 17 12 27c0 11.333 -4.83301 20.333 -14.5 27s-20.5 10 -32.5 10c-8.66699 0 -16.5 -0.833008 -23.5 -2.5
s-12.5 -3.16699 -16.5 -4.5l-15 18l50 69c-35.333 4 -64.333 14 -87 30c-22.667 16.667 -41 37.334 -55 62.001s-25 51.667 -33 81s-13.333 60.666 -16 93.999s-4 67.333 -4 102c0 44.667 2.66699 89.167 8 133.5s16.333 84.166 33 119.499s40 63.833 70 85.5
s69.667 32.5 119 32.5c72.667 0 125.5 -19.333 158.5 -58s50.5 -93.334 52.5 -164.001h-92c-0.666992 20 -3 39.167 -7 57.5s-10.5 34.333 -19.5 48s-21 24.5 -36 32.5s-33.833 12 -56.5 12c-30.667 0 -55 -7.83301 -73 -23.5s-31.833 -37 -41.5 -64s-16 -58.667 -19 -95
s-4.5 -75.166 -4.5 -116.499s1.5 -80.166 4.5 -116.499s9.33301 -68 19 -95s23.5 -48.333 41.5 -64s42.333 -23.5 73 -23.5c26.667 0 48 5.66699 64 17s28.5 26 37.5 44s15 38 18 60s4.83301 44 5.5 66h92c-1.33301 -26 -4.5 -50.833 -9.5 -74.5
s-12.167 -45.834 -21.5 -66.501s-21.166 -39.334 -35.499 -56.001s-31.833 -30.334 -52.5 -41.001c-24.667 -12.667 -55.334 -19.667 -92.001 -21l-29 -40l2 -2c5.33301 1.33301 10 2.33301 14 3s9.33301 1 16 1c8.66699 0 17.667 -1.16699 27 -3.5s18 -6.33301 26 -12
s14.5 -13.167 19.5 -22.5s7.5 -21.333 7.5 -36c0 -12 -3 -23 -9 -33s-13.833 -18.833 -23.5 -26.5s-21 -13.667 -34 -18s-26.5 -6.5 -40.5 -6.5c-18.667 0 -37 2 -55 6s-32.667 8.66699 -44 14z" />
    <glyph glyph-name="Egrave" unicode="&#xc8;" 
d="M58 714h369v-78h-281v-224h265v-78h-265v-256h293v-78h-381v714zM235 915l70 -142h-60l-108 142h98z" />
    <glyph glyph-name="Eacute" unicode="&#xc9;" 
d="M58 714h369v-78h-281v-224h265v-78h-265v-256h293v-78h-381v714zM287 915h98l-108 -142h-60z" />
    <glyph glyph-name="Ecircumflex" unicode="&#xca;" 
d="M58 714h369v-78h-281v-224h265v-78h-265v-256h293v-78h-381v714zM206 915h77l100 -142h-78l-61 88l-61 -88h-78z" />
    <glyph glyph-name="Edieresis" unicode="&#xcb;" 
d="M58 714h369v-78h-281v-224h265v-78h-265v-256h293v-78h-381v714zM289 895h78v-101h-78v101zM127 895h78v-101h-78v101z" />
    <glyph glyph-name="Igrave" unicode="&#xcc;" horiz-adv-x="204" 
d="M58 714h88v-714h-88v714zM76 915l70 -142h-60l-108 142h98z" />
    <glyph glyph-name="Iacute" unicode="&#xcd;" horiz-adv-x="204" 
d="M58 714h88v-714h-88v714zM129 915h98l-108 -142h-60z" />
    <glyph glyph-name="Icircumflex" unicode="&#xce;" horiz-adv-x="204" 
d="M58 714h88v-714h-88v714zM64 915h77l100 -142h-78l-61 88l-61 -88h-78z" />
    <glyph glyph-name="Idieresis" unicode="&#xcf;" horiz-adv-x="204" 
d="M58 714h88v-714h-88v714zM144 895h78v-101h-78v101zM-18 895h78v-101h-78v101z" />
    <glyph glyph-name="Eth" unicode="&#xd0;" horiz-adv-x="556" 
d="M247 72c38 0 68.167 8.83301 90.5 26.5s39.333 40.167 51 67.5s19.167 57.833 22.5 91.5s5 66.5 5 98.5c0 34.667 -1.33301 69 -4 103s-9.5 64.5 -20.5 91.5s-27.833 49 -50.5 66s-54 25.5 -94 25.5h-92v-236h134v-66h-134v-268h92zM67 340l-57.999 -0.00292969v66h58
v308h191c55.333 0 99.5 -9.33301 132.5 -28s58.167 -44.167 75.5 -76.5s28.666 -70.166 33.999 -113.499s8 -89.666 8 -138.999c0 -45.333 -3.33301 -89.333 -10 -132s-19 -80.667 -37 -114s-42.667 -60.166 -74 -80.499s-71.333 -30.5 -120 -30.5h-200v340z" />
    <glyph glyph-name="Ntilde" unicode="&#xd1;" horiz-adv-x="556" 
d="M58 714h87h27l236 -596h2v596h88v-714h-87h-34l-229 578h-2v-578h-88v714zM423 903c0 -12.667 -1.83105 -25.499 -5.49805 -38.499s-9 -24.833 -16 -35.5s-16 -19.5 -27 -26.5s-23.5 -10.5 -37.5 -10.5c-10.667 0 -21.667 2 -33 6s-22.166 8.33301 -32.499 13l-28.5 13
c-8.66699 4 -15.667 6 -21 6c-13.333 0 -22.833 -5.16699 -28.5 -15.5s-9.16699 -20.166 -10.5 -29.499h-54c0 14.667 2.33301 28.667 7 42s11.167 25.166 19.5 35.499s18.166 18.5 29.499 24.5s23.666 9 36.999 9c9.33301 0 19.166 -1.83301 29.499 -5.5
s20.5 -8.16699 30.5 -13.5l28.5 -13c9 -4 16.833 -6 23.5 -6c12.667 0 21.167 5.16699 25.5 15.5s7.5 20.166 9.5 29.499h54z" />
    <glyph glyph-name="Ograve" unicode="&#xd2;" horiz-adv-x="556" 
d="M278 656c-30.667 0 -55 -7.83301 -73 -23.5s-31.833 -37 -41.5 -64s-16 -58.667 -19 -95s-4.5 -75.166 -4.5 -116.499s1.5 -80.166 4.5 -116.499s9.33301 -68 19 -95s23.5 -48.333 41.5 -64s42.333 -23.5 73 -23.5s55 7.83301 73 23.5s31.833 37 41.5 64s16 58.667 19 95
s4.5 75.166 4.5 116.499s-1.5 80.166 -4.5 116.499s-9.33301 68 -19 95s-23.5 48.333 -41.5 64s-42.333 23.5 -73 23.5zM278 728c49.333 0 89 -10.833 119 -32.5s53.333 -50.167 70 -85.5s27.667 -75.166 33 -119.499s8 -88.833 8 -133.5c0 -45.333 -2.66699 -90 -8 -134
s-16.333 -83.667 -33 -119s-40 -63.833 -70 -85.5s-69.667 -32.5 -119 -32.5s-89 10.833 -119 32.5s-53.333 50.167 -70 85.5s-27.667 75 -33 119s-8 88.667 -8 134c0 44.667 2.66699 89.167 8 133.5s16.333 84.166 33 119.499s40 63.833 70 85.5s69.667 32.5 119 32.5z
M249 915l70 -142h-60l-108 142h98z" />
    <glyph glyph-name="Oacute" unicode="&#xd3;" horiz-adv-x="556" 
d="M278 656c-30.667 0 -55 -7.83301 -73 -23.5s-31.833 -37 -41.5 -64s-16 -58.667 -19 -95s-4.5 -75.166 -4.5 -116.499s1.5 -80.166 4.5 -116.499s9.33301 -68 19 -95s23.5 -48.333 41.5 -64s42.333 -23.5 73 -23.5s55 7.83301 73 23.5s31.833 37 41.5 64s16 58.667 19 95
s4.5 75.166 4.5 116.499s-1.5 80.166 -4.5 116.499s-9.33301 68 -19 95s-23.5 48.333 -41.5 64s-42.333 23.5 -73 23.5zM278 728c49.333 0 89 -10.833 119 -32.5s53.333 -50.167 70 -85.5s27.667 -75.166 33 -119.499s8 -88.833 8 -133.5c0 -45.333 -2.66699 -90 -8 -134
s-16.333 -83.667 -33 -119s-40 -63.833 -70 -85.5s-69.667 -32.5 -119 -32.5s-89 10.833 -119 32.5s-53.333 50.167 -70 85.5s-27.667 75 -33 119s-8 88.667 -8 134c0 44.667 2.66699 89.167 8 133.5s16.333 84.166 33 119.499s40 63.833 70 85.5s69.667 32.5 119 32.5z
M308 915h98l-108 -142h-60z" />
    <glyph glyph-name="Ocircumflex" unicode="&#xd4;" horiz-adv-x="556" 
d="M278 656c-30.667 0 -55 -7.83301 -73 -23.5s-31.833 -37 -41.5 -64s-16 -58.667 -19 -95s-4.5 -75.166 -4.5 -116.499s1.5 -80.166 4.5 -116.499s9.33301 -68 19 -95s23.5 -48.333 41.5 -64s42.333 -23.5 73 -23.5s55 7.83301 73 23.5s31.833 37 41.5 64s16 58.667 19 95
s4.5 75.166 4.5 116.499s-1.5 80.166 -4.5 116.499s-9.33301 68 -19 95s-23.5 48.333 -41.5 64s-42.333 23.5 -73 23.5zM278 728c49.333 0 89 -10.833 119 -32.5s53.333 -50.167 70 -85.5s27.667 -75.166 33 -119.499s8 -88.833 8 -133.5c0 -45.333 -2.66699 -90 -8 -134
s-16.333 -83.667 -33 -119s-40 -63.833 -70 -85.5s-69.667 -32.5 -119 -32.5s-89 10.833 -119 32.5s-53.333 50.167 -70 85.5s-27.667 75 -33 119s-8 88.667 -8 134c0 44.667 2.66699 89.167 8 133.5s16.333 84.166 33 119.499s40 63.833 70 85.5s69.667 32.5 119 32.5z
M240 915h77l100 -142h-78l-61 88l-61 -88h-78z" />
    <glyph glyph-name="Otilde" unicode="&#xd5;" horiz-adv-x="556" 
d="M278 656c-30.667 0 -55 -7.83301 -73 -23.5s-31.833 -37 -41.5 -64s-16 -58.667 -19 -95s-4.5 -75.166 -4.5 -116.499s1.5 -80.166 4.5 -116.499s9.33301 -68 19 -95s23.5 -48.333 41.5 -64s42.333 -23.5 73 -23.5s55 7.83301 73 23.5s31.833 37 41.5 64s16 58.667 19 95
s4.5 75.166 4.5 116.499s-1.5 80.166 -4.5 116.499s-9.33301 68 -19 95s-23.5 48.333 -41.5 64s-42.333 23.5 -73 23.5zM278 728c49.333 0 89 -10.833 119 -32.5s53.333 -50.167 70 -85.5s27.667 -75.166 33 -119.499s8 -88.833 8 -133.5c0 -45.333 -2.66699 -90 -8 -134
s-16.333 -83.667 -33 -119s-40 -63.833 -70 -85.5s-69.667 -32.5 -119 -32.5s-89 10.833 -119 32.5s-53.333 50.167 -70 85.5s-27.667 75 -33 119s-8 88.667 -8 134c0 44.667 2.66699 89.167 8 133.5s16.333 84.166 33 119.499s40 63.833 70 85.5s69.667 32.5 119 32.5z
M423 903c0 -12.667 -1.83105 -25.499 -5.49805 -38.499s-9 -24.833 -16 -35.5s-16 -19.5 -27 -26.5s-23.5 -10.5 -37.5 -10.5c-10.667 0 -21.667 2 -33 6s-22.166 8.33301 -32.499 13l-28.5 13c-8.66699 4 -15.667 6 -21 6c-13.333 0 -22.833 -5.16699 -28.5 -15.5
s-9.16699 -20.166 -10.5 -29.499h-54c0 14.667 2.33301 28.667 7 42s11.167 25.166 19.5 35.499s18.166 18.5 29.499 24.5s23.666 9 36.999 9c9.33301 0 19.166 -1.83301 29.499 -5.5s20.5 -8.16699 30.5 -13.5l28.5 -13c9 -4 16.833 -6 23.5 -6
c12.667 0 21.167 5.16699 25.5 15.5s7.5 20.166 9.5 29.499h54z" />
    <glyph glyph-name="Odieresis" unicode="&#xd6;" horiz-adv-x="556" 
d="M278 656c-30.667 0 -55 -7.83301 -73 -23.5s-31.833 -37 -41.5 -64s-16 -58.667 -19 -95s-4.5 -75.166 -4.5 -116.499s1.5 -80.166 4.5 -116.499s9.33301 -68 19 -95s23.5 -48.333 41.5 -64s42.333 -23.5 73 -23.5s55 7.83301 73 23.5s31.833 37 41.5 64s16 58.667 19 95
s4.5 75.166 4.5 116.499s-1.5 80.166 -4.5 116.499s-9.33301 68 -19 95s-23.5 48.333 -41.5 64s-42.333 23.5 -73 23.5zM278 728c49.333 0 89 -10.833 119 -32.5s53.333 -50.167 70 -85.5s27.667 -75.166 33 -119.499s8 -88.833 8 -133.5c0 -45.333 -2.66699 -90 -8 -134
s-16.333 -83.667 -33 -119s-40 -63.833 -70 -85.5s-69.667 -32.5 -119 -32.5s-89 10.833 -119 32.5s-53.333 50.167 -70 85.5s-27.667 75 -33 119s-8 88.667 -8 134c0 44.667 2.66699 89.167 8 133.5s16.333 84.166 33 119.499s40 63.833 70 85.5s69.667 32.5 119 32.5z
M321 895h78v-101h-78v101zM159 895h78v-101h-78v101z" />
    <glyph glyph-name="multiply" unicode="&#xd7;" horiz-adv-x="600" 
d="M300 210l-181 -180l-42 42l181 181l-181 181l42 42l181 -180l180 180l43 -42l-181 -181l181 -181l-43 -42z" />
    <glyph glyph-name="Oslash" unicode="&#xd8;" horiz-adv-x="556" 
d="M121 56c-15.333 18 -27.668 38.501 -37.001 61.501s-16.666 47.5 -21.999 73.5s-9 53.167 -11 81.5s-3 56.5 -3 84.5c0 44.667 2.66699 89.167 8 133.5s16.333 84.166 33 119.499s40 63.833 70 85.5s69.667 32.5 119 32.5c45.333 0 82.333 -9.33301 111 -28l24 59l54 -22
l-32 -77c14.667 -18 26.667 -38.667 36 -62s16.833 -48 22.5 -74s9.5 -53.167 11.5 -81.5s3 -56.833 3 -85.5c0 -45.333 -2.66699 -90 -8 -134s-16.333 -83.667 -33 -119s-40 -63.833 -70 -85.5s-69.667 -32.5 -119 -32.5c-44 0 -80.667 9.33301 -110 28l-26 -62l-54 24z
M198.998 88.001c20 -20 46.334 -29.999 79.001 -29.999c30.667 0 55 7.83301 73 23.5s31.833 37 41.5 64s16 58.667 19 95s4.5 75.166 4.5 116.499c0 40 -1.33301 77.5 -4 112.5s-8.33398 65.833 -17.001 92.5zM357.999 626.002c-20 20 -46.668 29.999 -80.001 29.999
c-30.667 0 -55 -7.83301 -73 -23.5s-31.833 -37 -41.5 -64s-16 -58.667 -19 -95s-4.5 -75.166 -4.5 -116.499c0 -40 1.33301 -77 4 -111s8.33398 -65 17.001 -93z" />
    <glyph glyph-name="Ugrave" unicode="&#xd9;" horiz-adv-x="519" 
d="M50 714h88v-502c0 -52.667 9.16699 -91.5 27.5 -116.5s49.5 -37.5 93.5 -37.5c46.667 0 78.667 13.167 96 39.5s26 64.5 26 114.5v502h88v-502c0 -68.667 -17.5 -123.5 -52.5 -164.5s-87.5 -61.5 -157.5 -61.5c-72.667 0 -125.667 19 -159 57s-50 94.333 -50 169v502z
M229 915l70 -142h-60l-108 142h98z" />
    <glyph glyph-name="Uacute" unicode="&#xda;" horiz-adv-x="519" 
d="M50 714h88v-502c0 -52.667 9.16699 -91.5 27.5 -116.5s49.5 -37.5 93.5 -37.5c46.667 0 78.667 13.167 96 39.5s26 64.5 26 114.5v502h88v-502c0 -68.667 -17.5 -123.5 -52.5 -164.5s-87.5 -61.5 -157.5 -61.5c-72.667 0 -125.667 19 -159 57s-50 94.333 -50 169v502z
M293 915h98l-108 -142h-60z" />
    <glyph glyph-name="Ucircumflex" unicode="&#xdb;" horiz-adv-x="519" 
d="M50 714h88v-502c0 -52.667 9.16699 -91.5 27.5 -116.5s49.5 -37.5 93.5 -37.5c46.667 0 78.667 13.167 96 39.5s26 64.5 26 114.5v502h88v-502c0 -68.667 -17.5 -123.5 -52.5 -164.5s-87.5 -61.5 -157.5 -61.5c-72.667 0 -125.667 19 -159 57s-50 94.333 -50 169v502z
M223 915h77l100 -142h-78l-61 88l-61 -88h-78z" />
    <glyph glyph-name="Udieresis" unicode="&#xdc;" horiz-adv-x="519" 
d="M50 714h88v-502c0 -52.667 9.16699 -91.5 27.5 -116.5s49.5 -37.5 93.5 -37.5c46.667 0 78.667 13.167 96 39.5s26 64.5 26 114.5v502h88v-502c0 -68.667 -17.5 -123.5 -52.5 -164.5s-87.5 -61.5 -157.5 -61.5c-72.667 0 -125.667 19 -159 57s-50 94.333 -50 169v502z
M301 895h78v-101h-78v101zM139 895h78v-101h-78v101z" />
    <glyph glyph-name="Yacute" unicode="&#xdd;" horiz-adv-x="462" 
d="M-2 714h97l136 -334l141 334h92l-189 -434v-280h-88v280zM266 915h98l-108 -142h-60z" />
    <glyph glyph-name="Thorn" unicode="&#xde;" horiz-adv-x="481" 
d="M146 234h105c32 0 59.667 11.333 83 34s35 57.667 35 105c0 40 -9.66699 71.5 -29 94.5s-51 34.5 -95 34.5h-99v-268zM58 714h88v-140h94c10 0 22.5 -0.333008 37.5 -1s30.667 -2.83398 47 -6.50098s32.666 -9.66699 48.999 -18s31 -20.166 44 -35.499
s23.5 -34.666 31.5 -57.999s12 -52 12 -86c0 -33.333 -5 -62.833 -15 -88.5s-24.167 -47.334 -42.5 -65.001s-40.166 -31 -65.499 -40s-53 -13.5 -83 -13.5h-109v-162h-88v714z" />
    <glyph glyph-name="germandbls" unicode="&#xdf;" 
d="M48 511c0 30.667 2.66602 58.998 7.99902 84.998s14.666 48.333 27.999 67s31.333 33.167 54 43.5s51.667 15.5 87 15.5c24 0 46.333 -3.16699 67 -9.5s38.834 -16.166 54.501 -29.499s28 -30.333 37 -51s13.5 -45 13.5 -73c0 -16 -2.16699 -32 -6.5 -48
s-10.833 -30.833 -19.5 -44.5s-19.667 -25.334 -33 -35.001s-29 -16.167 -47 -19.5v-2c24 0 44.833 -5 62.5 -15s32.5 -23.5 44.5 -40.5s21 -36.833 27 -59.5s9 -46.334 9 -71.001c0 -26.667 -3.33301 -53.334 -10 -80.001s-17.334 -50.667 -32.001 -72
s-33.167 -38.666 -55.5 -51.999s-49.5 -20 -81.5 -20h-59v72h58c18.667 0 34 5.16699 46 15.5s21.333 23.333 28 39s11.334 32.334 14.001 50.001s4 33.5 4 47.5c0 46 -9.33301 82.5 -28 109.5s-45 40.5 -79 40.5c-5.33301 0 -12 -0.166992 -20 -0.5
s-14.667 -1.16602 -20 -2.49902v69h20c25.333 0 47.333 8.83301 66 26.5s28 43.834 28 78.501c0 12.667 -1.33301 25.5 -4 38.5s-7.16699 24.833 -13.5 35.5s-15.166 19.5 -26.499 26.5s-26 10.5 -44 10.5c-22 0 -39.167 -3.83301 -51.5 -11.5s-21.5 -17.667 -27.5 -30
s-9.83301 -26.333 -11.5 -42s-2.5 -31.5 -2.5 -47.5v-525h-84v511z" />
    <glyph glyph-name="agrave" unicode="&#xe0;" horiz-adv-x="444" 
d="M301 292c-8 -8 -18.167 -14.667 -30.5 -20s-25.333 -10.166 -39 -14.499l-40 -13c-13 -4.33301 -24.167 -9.5 -33.5 -15.5c-13.333 -8.66699 -23.5 -19.167 -30.5 -31.5s-10.5 -30.166 -10.5 -53.499c0 -28 5.5 -50.333 16.5 -67s30.833 -25 59.5 -25
c14 0 27.5 2.66699 40.5 8s24.5 12.666 34.5 21.999s18 20.166 24 32.499s9 25.5 9 39.5v138zM42 374c0 60.667 13.998 105.17 41.998 133.503s74 42.5 138 42.5c40.667 0 72 -5.33301 94 -16s38.167 -24 48.5 -40s16.333 -32.833 18 -50.5s2.5 -33.5 2.5 -47.5v-299
c0 -11.333 1 -21.333 3 -30s9.66699 -13 23 -13c5.33301 0 9.5 0.5 12.5 1.5s5.5 2.16699 7.5 3.5v-60c-3.33301 -0.666992 -9.66602 -1.66699 -18.999 -3s-19.333 -2 -30 -2c-8 0 -16.167 0.333008 -24.5 1s-16.333 3.16699 -24 7.5s-14 11.166 -19 20.499
s-7.83301 22.666 -8.5 39.999h-2c-13.333 -24 -31.833 -42.833 -55.5 -56.5s-48.167 -20.5 -73.5 -20.5c-50 0 -86.833 14 -110.5 42s-35.5 66 -35.5 114c0 38 8.16699 69.5 24.5 94.5s41.833 42.833 76.5 53.5l113 34c15.333 4.66699 27.166 9.5 35.499 14.5
s14.333 10.5 18 16.5s5.83398 13 6.50098 21s1 17.667 1 29c0 52.667 -28.667 79 -86 79c-23.333 0 -41.166 -4.5 -53.499 -13.5s-21.333 -19.5 -27 -31.5s-9 -23.833 -10 -35.5s-1.5 -19.834 -1.5 -24.501v-5h-84zM209.998 751.003l70 -142h-60l-108 142h98z" />
    <glyph glyph-name="aacute" unicode="&#xe1;" horiz-adv-x="444" 
d="M301 292c-8 -8 -18.167 -14.667 -30.5 -20s-25.333 -10.166 -39 -14.499l-40 -13c-13 -4.33301 -24.167 -9.5 -33.5 -15.5c-13.333 -8.66699 -23.5 -19.167 -30.5 -31.5s-10.5 -30.166 -10.5 -53.499c0 -28 5.5 -50.333 16.5 -67s30.833 -25 59.5 -25
c14 0 27.5 2.66699 40.5 8s24.5 12.666 34.5 21.999s18 20.166 24 32.499s9 25.5 9 39.5v138zM42 374c0 60.667 13.998 105.17 41.998 133.503s74 42.5 138 42.5c40.667 0 72 -5.33301 94 -16s38.167 -24 48.5 -40s16.333 -32.833 18 -50.5s2.5 -33.5 2.5 -47.5v-299
c0 -11.333 1 -21.333 3 -30s9.66699 -13 23 -13c5.33301 0 9.5 0.5 12.5 1.5s5.5 2.16699 7.5 3.5v-60c-3.33301 -0.666992 -9.66602 -1.66699 -18.999 -3s-19.333 -2 -30 -2c-8 0 -16.167 0.333008 -24.5 1s-16.333 3.16699 -24 7.5s-14 11.166 -19 20.499
s-7.83301 22.666 -8.5 39.999h-2c-13.333 -24 -31.833 -42.833 -55.5 -56.5s-48.167 -20.5 -73.5 -20.5c-50 0 -86.833 14 -110.5 42s-35.5 66 -35.5 114c0 38 8.16699 69.5 24.5 94.5s41.833 42.833 76.5 53.5l113 34c15.333 4.66699 27.166 9.5 35.499 14.5
s14.333 10.5 18 16.5s5.83398 13 6.50098 21s1 17.667 1 29c0 52.667 -28.667 79 -86 79c-23.333 0 -41.166 -4.5 -53.499 -13.5s-21.333 -19.5 -27 -31.5s-9 -23.833 -10 -35.5s-1.5 -19.834 -1.5 -24.501v-5h-84zM257.998 751.003h98l-108 -142h-60z" />
    <glyph glyph-name="acircumflex" unicode="&#xe2;" horiz-adv-x="444" 
d="M301 292c-8 -8 -18.167 -14.667 -30.5 -20s-25.333 -10.166 -39 -14.499l-40 -13c-13 -4.33301 -24.167 -9.5 -33.5 -15.5c-13.333 -8.66699 -23.5 -19.167 -30.5 -31.5s-10.5 -30.166 -10.5 -53.499c0 -28 5.5 -50.333 16.5 -67s30.833 -25 59.5 -25
c14 0 27.5 2.66699 40.5 8s24.5 12.666 34.5 21.999s18 20.166 24 32.499s9 25.5 9 39.5v138zM42 374c0 60.667 13.998 105.17 41.998 133.503s74 42.5 138 42.5c40.667 0 72 -5.33301 94 -16s38.167 -24 48.5 -40s16.333 -32.833 18 -50.5s2.5 -33.5 2.5 -47.5v-299
c0 -11.333 1 -21.333 3 -30s9.66699 -13 23 -13c5.33301 0 9.5 0.5 12.5 1.5s5.5 2.16699 7.5 3.5v-60c-3.33301 -0.666992 -9.66602 -1.66699 -18.999 -3s-19.333 -2 -30 -2c-8 0 -16.167 0.333008 -24.5 1s-16.333 3.16699 -24 7.5s-14 11.166 -19 20.499
s-7.83301 22.666 -8.5 39.999h-2c-13.333 -24 -31.833 -42.833 -55.5 -56.5s-48.167 -20.5 -73.5 -20.5c-50 0 -86.833 14 -110.5 42s-35.5 66 -35.5 114c0 38 8.16699 69.5 24.5 94.5s41.833 42.833 76.5 53.5l113 34c15.333 4.66699 27.166 9.5 35.499 14.5
s14.333 10.5 18 16.5s5.83398 13 6.50098 21s1 17.667 1 29c0 52.667 -28.667 79 -86 79c-23.333 0 -41.166 -4.5 -53.499 -13.5s-21.333 -19.5 -27 -31.5s-9 -23.833 -10 -35.5s-1.5 -19.834 -1.5 -24.501v-5h-84zM184.998 751.003h77l100 -142h-78l-61 88l-61 -88h-78z
" />
    <glyph glyph-name="atilde" unicode="&#xe3;" horiz-adv-x="444" 
d="M301 292c-8 -8 -18.167 -14.667 -30.5 -20s-25.333 -10.166 -39 -14.499l-40 -13c-13 -4.33301 -24.167 -9.5 -33.5 -15.5c-13.333 -8.66699 -23.5 -19.167 -30.5 -31.5s-10.5 -30.166 -10.5 -53.499c0 -28 5.5 -50.333 16.5 -67s30.833 -25 59.5 -25
c14 0 27.5 2.66699 40.5 8s24.5 12.666 34.5 21.999s18 20.166 24 32.499s9 25.5 9 39.5v138zM42 374c0 60.667 13.998 105.17 41.998 133.503s74 42.5 138 42.5c40.667 0 72 -5.33301 94 -16s38.167 -24 48.5 -40s16.333 -32.833 18 -50.5s2.5 -33.5 2.5 -47.5v-299
c0 -11.333 1 -21.333 3 -30s9.66699 -13 23 -13c5.33301 0 9.5 0.5 12.5 1.5s5.5 2.16699 7.5 3.5v-60c-3.33301 -0.666992 -9.66602 -1.66699 -18.999 -3s-19.333 -2 -30 -2c-8 0 -16.167 0.333008 -24.5 1s-16.333 3.16699 -24 7.5s-14 11.166 -19 20.499
s-7.83301 22.666 -8.5 39.999h-2c-13.333 -24 -31.833 -42.833 -55.5 -56.5s-48.167 -20.5 -73.5 -20.5c-50 0 -86.833 14 -110.5 42s-35.5 66 -35.5 114c0 38 8.16699 69.5 24.5 94.5s41.833 42.833 76.5 53.5l113 34c15.333 4.66699 27.166 9.5 35.499 14.5
s14.333 10.5 18 16.5s5.83398 13 6.50098 21s1 17.667 1 29c0 52.667 -28.667 79 -86 79c-23.333 0 -41.166 -4.5 -53.499 -13.5s-21.333 -19.5 -27 -31.5s-9 -23.833 -10 -35.5s-1.5 -19.834 -1.5 -24.501v-5h-84zM365.998 739.003
c0 -12.667 -1.83105 -25.499 -5.49805 -38.499s-9 -24.833 -16 -35.5s-16 -19.5 -27 -26.5s-23.5 -10.5 -37.5 -10.5c-10.667 0 -21.667 2 -33 6s-22.166 8.33301 -32.499 13l-28.5 13c-8.66699 4 -15.667 6 -21 6c-13.333 0 -22.833 -5.16699 -28.5 -15.5
s-9.16699 -20.166 -10.5 -29.499h-54c0 14.667 2.33301 28.667 7 42s11.167 25.166 19.5 35.499s18.166 18.5 29.499 24.5s23.666 9 36.999 9c9.33301 0 19.166 -1.83301 29.499 -5.5s20.5 -8.16699 30.5 -13.5l28.5 -13c9 -4 16.833 -6 23.5 -6
c12.667 0 21.167 5.16699 25.5 15.5s7.5 20.166 9.5 29.499h54z" />
    <glyph glyph-name="adieresis" unicode="&#xe4;" horiz-adv-x="444" 
d="M301 292c-8 -8 -18.167 -14.667 -30.5 -20s-25.333 -10.166 -39 -14.499l-40 -13c-13 -4.33301 -24.167 -9.5 -33.5 -15.5c-13.333 -8.66699 -23.5 -19.167 -30.5 -31.5s-10.5 -30.166 -10.5 -53.499c0 -28 5.5 -50.333 16.5 -67s30.833 -25 59.5 -25
c14 0 27.5 2.66699 40.5 8s24.5 12.666 34.5 21.999s18 20.166 24 32.499s9 25.5 9 39.5v138zM42 374c0 60.667 13.998 105.17 41.998 133.503s74 42.5 138 42.5c40.667 0 72 -5.33301 94 -16s38.167 -24 48.5 -40s16.333 -32.833 18 -50.5s2.5 -33.5 2.5 -47.5v-299
c0 -11.333 1 -21.333 3 -30s9.66699 -13 23 -13c5.33301 0 9.5 0.5 12.5 1.5s5.5 2.16699 7.5 3.5v-60c-3.33301 -0.666992 -9.66602 -1.66699 -18.999 -3s-19.333 -2 -30 -2c-8 0 -16.167 0.333008 -24.5 1s-16.333 3.16699 -24 7.5s-14 11.166 -19 20.499
s-7.83301 22.666 -8.5 39.999h-2c-13.333 -24 -31.833 -42.833 -55.5 -56.5s-48.167 -20.5 -73.5 -20.5c-50 0 -86.833 14 -110.5 42s-35.5 66 -35.5 114c0 38 8.16699 69.5 24.5 94.5s41.833 42.833 76.5 53.5l113 34c15.333 4.66699 27.166 9.5 35.499 14.5
s14.333 10.5 18 16.5s5.83398 13 6.50098 21s1 17.667 1 29c0 52.667 -28.667 79 -86 79c-23.333 0 -41.166 -4.5 -53.499 -13.5s-21.333 -19.5 -27 -31.5s-9 -23.833 -10 -35.5s-1.5 -19.834 -1.5 -24.501v-5h-84zM262.998 731.003h78v-101h-78v101zM100.998 731.003h78
v-101h-78v101z" />
    <glyph glyph-name="aring" unicode="&#xe5;" horiz-adv-x="444" 
d="M301 292c-8 -8 -18.167 -14.667 -30.5 -20s-25.333 -10.166 -39 -14.499l-40 -13c-13 -4.33301 -24.167 -9.5 -33.5 -15.5c-13.333 -8.66699 -23.5 -19.167 -30.5 -31.5s-10.5 -30.166 -10.5 -53.499c0 -28 5.5 -50.333 16.5 -67s30.833 -25 59.5 -25
c14 0 27.5 2.66699 40.5 8s24.5 12.666 34.5 21.999s18 20.166 24 32.499s9 25.5 9 39.5v138zM42 374c0 60.667 13.998 105.17 41.998 133.503s74 42.5 138 42.5c40.667 0 72 -5.33301 94 -16s38.167 -24 48.5 -40s16.333 -32.833 18 -50.5s2.5 -33.5 2.5 -47.5v-299
c0 -11.333 1 -21.333 3 -30s9.66699 -13 23 -13c5.33301 0 9.5 0.5 12.5 1.5s5.5 2.16699 7.5 3.5v-60c-3.33301 -0.666992 -9.66602 -1.66699 -18.999 -3s-19.333 -2 -30 -2c-8 0 -16.167 0.333008 -24.5 1s-16.333 3.16699 -24 7.5s-14 11.166 -19 20.499
s-7.83301 22.666 -8.5 39.999h-2c-13.333 -24 -31.833 -42.833 -55.5 -56.5s-48.167 -20.5 -73.5 -20.5c-50 0 -86.833 14 -110.5 42s-35.5 66 -35.5 114c0 38 8.16699 69.5 24.5 94.5s41.833 42.833 76.5 53.5l113 34c15.333 4.66699 27.166 9.5 35.499 14.5
s14.333 10.5 18 16.5s5.83398 13 6.50098 21s1 17.667 1 29c0 52.667 -28.667 79 -86 79c-23.333 0 -41.166 -4.5 -53.499 -13.5s-21.333 -19.5 -27 -31.5s-9 -23.833 -10 -35.5s-1.5 -19.834 -1.5 -24.501v-5h-84zM163.998 690.003c0 -15.333 5.66699 -28.666 17 -39.999
s24.666 -17 39.999 -17s28.666 5.66699 39.999 17s17 24.666 17 39.999s-5.66699 28.666 -17 39.999s-24.666 17 -39.999 17s-28.666 -5.66699 -39.999 -17s-17 -24.666 -17 -39.999zM121.998 690.003c0 28 9.5 51.5 28.5 70.5s42.5 28.5 70.5 28.5s51.5 -9.5 70.5 -28.5
s28.5 -42.5 28.5 -70.5s-9.5 -51.5 -28.5 -70.5s-42.5 -28.5 -70.5 -28.5s-51.5 9.5 -70.5 28.5s-28.5 42.5 -28.5 70.5z" />
    <glyph glyph-name="ae" unicode="&#xe6;" horiz-adv-x="667" 
d="M290 268l-0.000976562 11.002h-2c-2 -4 -9 -8.33301 -21 -13s-25.333 -9.33398 -40 -14.001l-42 -13c-13.333 -4 -22.333 -7 -27 -9c-14 -5.33301 -24.833 -14.5 -32.5 -27.5s-11.5 -32.167 -11.5 -57.5c0 -24.667 5.83301 -46.334 17.5 -65.001s30.834 -28 57.501 -28
c24 0 42.833 5.16699 56.5 15.5s23.667 22.333 30 36s10.333 27.167 12 40.5s2.5 23.333 2.5 30v94zM636.999 176.002c0 -14 -2.49512 -31.832 -7.49512 -53.499s-13.833 -42.667 -26.5 -63s-29.834 -37.666 -51.501 -51.999s-49.5 -21.5 -83.5 -21.5
c-28 0 -51.167 4.16699 -69.5 12.5s-32.833 18 -43.5 29s-18.334 21.833 -23.001 32.5s-7.33398 18.667 -8.00098 24h-2c-13.333 -28.667 -31.5 -52.167 -54.5 -70.5s-54.5 -27.5 -94.5 -27.5c-44.667 0 -80.334 14 -107.001 42s-40 66 -40 114c0 38 8.83301 69.667 26.5 95
s42.834 43 75.501 53l125 38c16 5.33301 26.167 13.833 30.5 25.5s6.5 28.834 6.5 51.501c0 25.333 -6.33301 44.833 -19 58.5s-33 20.5 -61 20.5c-21.333 0 -37.833 -4.5 -49.5 -13.5s-20.167 -19.5 -25.5 -31.5s-8.5 -23.833 -9.5 -35.5s-1.5 -19.834 -1.5 -24.501v-5h-84
c0 62 14.167 106.833 42.5 134.5s72.833 41.5 133.5 41.5c36 0 64.833 -6.66699 86.5 -20s35.5 -31.333 41.5 -54h2c4.66699 11.333 11.5 21.5 20.5 30.5s19.167 16.833 30.5 23.5s23.5 11.667 36.5 15s25.833 5 38.5 5c38.667 0 69.167 -8 91.5 -24
s39.166 -36.5 50.499 -61.5s18.666 -52.833 21.999 -83.5s5 -60.334 5 -89.001v-34h-273c0 -20.667 0.5 -43 1.5 -67s4.5 -46.333 10.5 -67s15.333 -37.834 28 -51.501s30.667 -20.5 54 -20.5c20 0 36 4.5 48 13.5s21.167 20 27.5 33s10.5 26.667 12.5 41s3 26.5 3 36.5h84z
M553.004 324.003l0.000976562 28.998c0 14.667 -1.33301 29.834 -4 45.501s-7.33398 29.834 -14.001 42.501s-15.834 23 -27.501 31s-26.167 12 -43.5 12c-20.667 0 -37.167 -5.83301 -49.5 -17.5s-21.666 -25.167 -27.999 -40.5s-10.5 -30.833 -12.5 -46.5
s-3 -27.5 -3 -35.5v-20h182z" />
    <glyph glyph-name="ccedilla" unicode="&#xe7;" horiz-adv-x="426" 
d="M124 -156c0.666992 0 3.5 -0.670898 8.5 -2.00391s10.833 -2.66602 17.5 -3.99902l20.5 -4c7 -1.33301 12.833 -2 17.5 -2c20.667 0 35 4 43 12s12 17 12 27c0 11.333 -4.83301 20.333 -14.5 27s-20.5 10 -32.5 10c-8.66699 0 -16.5 -0.833008 -23.5 -2.5
s-12.5 -3.16699 -16.5 -4.5l-15 18l50 69c-52.667 5.33301 -91.334 27.333 -116.001 66c-28.667 44.667 -43 113.667 -43 207c0 33.333 2.16699 67.166 6.5 101.499s13.333 65.333 27 93s33 50.334 58 68.001s58.167 26.5 99.5 26.5c36.667 0 66.167 -6.33301 88.5 -19
s39.666 -28.167 51.999 -46.5s20.5 -37.666 24.5 -57.999s6 -38.166 6 -53.499h-84c0 12.667 -1.5 25.667 -4.5 39s-7.66699 25.333 -14 36s-15 19.334 -26 26.001s-24.5 10 -40.5 10c-13.333 0 -26.166 -2.33301 -38.499 -7s-23.5 -14.834 -33.5 -30.501
s-18 -38.167 -24 -67.5s-9 -68.333 -9 -117c0 -17.333 0.5 -38 1.5 -62s4.83301 -47 11.5 -69s16.834 -40.667 30.501 -56s33.167 -23 58.5 -23c18 0 32.667 4.33301 44 13s20.333 19.5 27 32.5s11.167 27.333 13.5 43s3.5 30.834 3.5 45.501h84
c0 -16.667 -1.66699 -33.5 -5 -50.5s-8.5 -33.5 -15.5 -49.5s-16.5 -31 -28.5 -45s-26.333 -26 -43 -36c-18.667 -10.667 -42 -16.667 -70 -18l-29 -41l2 -2c5.33301 1.33301 10 2.33301 14 3s9.33301 1 16 1c8.66699 0 17.667 -1.16699 27 -3.5s18 -6.33301 26 -12
s14.5 -13.167 19.5 -22.5s7.5 -21.333 7.5 -36c0 -12 -3 -23 -9 -33s-13.833 -18.833 -23.5 -26.5s-21 -13.667 -34 -18s-26.5 -6.5 -40.5 -6.5c-18.667 0 -37 2 -55 6s-32.667 8.66699 -44 14z" />
    <glyph glyph-name="egrave" unicode="&#xe8;" horiz-adv-x="444" 
d="M125 258c0 -20.667 0.498047 -42.999 1.49805 -66.999s4.83301 -46.333 11.5 -67s16.834 -37.834 30.501 -51.501s33.5 -20.5 59.5 -20.5c20 0 36 4.5 48 13.5s21.167 20 27.5 33s10.5 26.667 12.5 41s3 26.5 3 36.5h84c0 -14 -2.5 -31.833 -7.5 -53.5
s-14.167 -42.667 -27.5 -63s-31.666 -37.666 -54.999 -51.999s-53.333 -21.5 -90 -21.5c-66 0 -113.5 22.667 -142.5 68s-43.5 114.333 -43.5 207c0 33.333 2.16699 67.166 6.5 101.499s13.333 65.333 27 93s33 50.334 58 68.001s58.167 26.5 99.5 26.5
c40.667 0 73 -8 97 -24s42 -36.5 54 -61.5s19.667 -52.833 23 -83.5s5 -60.334 5 -89.001v-34h-282zM318.998 324.001v28.998c0 14.667 -1.33301 29.834 -4 45.501s-7.5 29.834 -14.5 42.501s-16.5 23 -28.5 31s-27.333 12 -46 12c-22 0 -39.5 -5.83301 -52.5 -17.5
s-22.833 -25.167 -29.5 -40.5s-11 -30.833 -13 -46.5s-3 -27.5 -3 -35.5v-20h191zM204.998 750.999l70 -142h-60l-108 142h98z" />
    <glyph glyph-name="eacute" unicode="&#xe9;" horiz-adv-x="444" 
d="M125 258c0 -20.667 0.498047 -42.999 1.49805 -66.999s4.83301 -46.333 11.5 -67s16.834 -37.834 30.501 -51.501s33.5 -20.5 59.5 -20.5c20 0 36 4.5 48 13.5s21.167 20 27.5 33s10.5 26.667 12.5 41s3 26.5 3 36.5h84c0 -14 -2.5 -31.833 -7.5 -53.5
s-14.167 -42.667 -27.5 -63s-31.666 -37.666 -54.999 -51.999s-53.333 -21.5 -90 -21.5c-66 0 -113.5 22.667 -142.5 68s-43.5 114.333 -43.5 207c0 33.333 2.16699 67.166 6.5 101.499s13.333 65.333 27 93s33 50.334 58 68.001s58.167 26.5 99.5 26.5
c40.667 0 73 -8 97 -24s42 -36.5 54 -61.5s19.667 -52.833 23 -83.5s5 -60.334 5 -89.001v-34h-282zM318.998 324.001v28.998c0 14.667 -1.33301 29.834 -4 45.501s-7.5 29.834 -14.5 42.501s-16.5 23 -28.5 31s-27.333 12 -46 12c-22 0 -39.5 -5.83301 -52.5 -17.5
s-22.833 -25.167 -29.5 -40.5s-11 -30.833 -13 -46.5s-3 -27.5 -3 -35.5v-20h191zM265.998 750.999h98l-108 -142h-60z" />
    <glyph glyph-name="ecircumflex" unicode="&#xea;" horiz-adv-x="444" 
d="M125 258c0 -20.667 0.498047 -42.999 1.49805 -66.999s4.83301 -46.333 11.5 -67s16.834 -37.834 30.501 -51.501s33.5 -20.5 59.5 -20.5c20 0 36 4.5 48 13.5s21.167 20 27.5 33s10.5 26.667 12.5 41s3 26.5 3 36.5h84c0 -14 -2.5 -31.833 -7.5 -53.5
s-14.167 -42.667 -27.5 -63s-31.666 -37.666 -54.999 -51.999s-53.333 -21.5 -90 -21.5c-66 0 -113.5 22.667 -142.5 68s-43.5 114.333 -43.5 207c0 33.333 2.16699 67.166 6.5 101.499s13.333 65.333 27 93s33 50.334 58 68.001s58.167 26.5 99.5 26.5
c40.667 0 73 -8 97 -24s42 -36.5 54 -61.5s19.667 -52.833 23 -83.5s5 -60.334 5 -89.001v-34h-282zM318.998 324.001v28.998c0 14.667 -1.33301 29.834 -4 45.501s-7.5 29.834 -14.5 42.501s-16.5 23 -28.5 31s-27.333 12 -46 12c-22 0 -39.5 -5.83301 -52.5 -17.5
s-22.833 -25.167 -29.5 -40.5s-11 -30.833 -13 -46.5s-3 -27.5 -3 -35.5v-20h191zM189.998 750.999h77l100 -142h-78l-61 88l-61 -88h-78z" />
    <glyph glyph-name="edieresis" unicode="&#xeb;" horiz-adv-x="444" 
d="M125 258c0 -20.667 0.498047 -42.999 1.49805 -66.999s4.83301 -46.333 11.5 -67s16.834 -37.834 30.501 -51.501s33.5 -20.5 59.5 -20.5c20 0 36 4.5 48 13.5s21.167 20 27.5 33s10.5 26.667 12.5 41s3 26.5 3 36.5h84c0 -14 -2.5 -31.833 -7.5 -53.5
s-14.167 -42.667 -27.5 -63s-31.666 -37.666 -54.999 -51.999s-53.333 -21.5 -90 -21.5c-66 0 -113.5 22.667 -142.5 68s-43.5 114.333 -43.5 207c0 33.333 2.16699 67.166 6.5 101.499s13.333 65.333 27 93s33 50.334 58 68.001s58.167 26.5 99.5 26.5
c40.667 0 73 -8 97 -24s42 -36.5 54 -61.5s19.667 -52.833 23 -83.5s5 -60.334 5 -89.001v-34h-282zM318.998 324.001v28.998c0 14.667 -1.33301 29.834 -4 45.501s-7.5 29.834 -14.5 42.501s-16.5 23 -28.5 31s-27.333 12 -46 12c-22 0 -39.5 -5.83301 -52.5 -17.5
s-22.833 -25.167 -29.5 -40.5s-11 -30.833 -13 -46.5s-3 -27.5 -3 -35.5v-20h191zM270.998 730.999h78v-101h-78v101zM108.998 730.999h78v-101h-78v101z" />
    <glyph glyph-name="igrave" unicode="&#xec;" horiz-adv-x="204" 
d="M60 536h84v-536h-84v536zM74 751l70 -142h-60l-108 142h98z" />
    <glyph glyph-name="iacute" unicode="&#xed;" horiz-adv-x="204" 
d="M60 536h84v-536h-84v536zM130 751h98l-108 -142h-60z" />
    <glyph glyph-name="icircumflex" unicode="&#xee;" horiz-adv-x="204" 
d="M60 536h84v-536h-84v536zM64 751h77l100 -142h-78l-61 88l-61 -88h-78z" />
    <glyph glyph-name="idieresis" unicode="&#xef;" horiz-adv-x="204" 
d="M60 536h84v-536h-84v536zM144 731h78v-101h-78v101zM-18 731h78v-101h-78v101z" />
    <glyph glyph-name="eth" unicode="&#xf0;" horiz-adv-x="444" 
d="M82 637l71.0049 40c-11.333 11.333 -23.5 22.5 -36.5 33.5l-40.5 33.5l64 28l37.5 -31l34.5 -30l74 42l38 -42l-70 -40c25.333 -25.333 48 -51.833 68 -79.5s36.833 -57.667 50.5 -90s24.167 -67.666 31.5 -105.999s11 -80.833 11 -127.5c0 -38 -2.83301 -74 -8.5 -108
s-15.834 -63.833 -30.501 -89.5s-34.334 -46.167 -59.001 -61.5s-56.334 -23 -95.001 -23s-70.5 7.66699 -95.5 23s-44.667 35.833 -59 61.5s-24.333 55.5 -30 89.5s-8.5 70 -8.5 108c0 36 2.83301 70.333 8.5 103s15.667 61.167 30 85.5s34 43.666 59 57.999
s56.833 21.5 95.5 21.5c9.33301 0 19.166 -1.33301 29.499 -4s20.166 -7 29.499 -13h2c-13.333 20.667 -27.333 40.667 -42 60s-30.667 38.333 -48 57l-73 -41zM220.005 470c-21.333 0 -38.665 -6 -51.998 -18s-23.833 -27.667 -31.5 -47s-12.834 -41 -15.501 -65
s-4 -48 -4 -72c0 -29.333 1.33301 -57 4 -83s7.66699 -48.833 15 -68.5s17.833 -35.334 31.5 -47.001s31.167 -17.5 52.5 -17.5c22 0 40 5.83301 54 17.5s25 27.334 33 47.001s13.333 42.5 16 68.5s4 53.667 4 83c0 24 -1.33301 48 -4 72s-7.83398 45.667 -15.501 65
s-18.5 35 -32.5 47s-32.333 18 -55 18z" />
    <glyph glyph-name="ntilde" unicode="&#xf1;" 
d="M55 536l80.001 0.000976562v-63h2c11.333 24.667 29.333 43.667 54 57s50 20 76 20c35.333 0 62.5 -5.83301 81.5 -17.5s33 -26.167 42 -43.5s14.167 -35.833 15.5 -55.5s2 -37.5 2 -53.5v-380h-84v370c0 10 -0.5 21.333 -1.5 34s-4.16699 24.5 -9.5 35.5
s-13.333 20.167 -24 27.5s-25.334 11 -44.001 11c-11.333 0 -23.166 -2 -35.499 -6s-23.833 -10.333 -34.5 -19s-19.334 -19.834 -26.001 -33.501s-10 -30.167 -10 -49.5v-370h-84v536zM378.001 739.001c0 -12.667 -1.83105 -25.499 -5.49805 -38.499s-9 -24.833 -16 -35.5
s-16 -19.5 -27 -26.5s-23.5 -10.5 -37.5 -10.5c-10.667 0 -21.667 2 -33 6s-22.166 8.33301 -32.499 13l-28.5 13c-8.66699 4 -15.667 6 -21 6c-13.333 0 -22.833 -5.16699 -28.5 -15.5s-9.16699 -20.166 -10.5 -29.499h-54c0 14.667 2.33301 28.667 7 42
s11.167 25.166 19.5 35.499s18.166 18.5 29.499 24.5s23.666 9 36.999 9c9.33301 0 19.166 -1.83301 29.499 -5.5s20.5 -8.16699 30.5 -13.5l28.5 -13c9 -4 16.833 -6 23.5 -6c12.667 0 21.167 5.16699 25.5 15.5s7.5 20.166 9.5 29.499h54z" />
    <glyph glyph-name="ograve" unicode="&#xf2;" horiz-adv-x="444" 
d="M29 268c0 38 2.83594 74 8.50293 108s15.667 63.833 30 89.5s34 46.167 59 61.5s56.833 23 95.5 23s70.5 -7.66699 95.5 -23s44.667 -35.833 59 -61.5s24.333 -55.5 30 -89.5s8.5 -70 8.5 -108s-2.83301 -74 -8.5 -108s-15.834 -63.833 -30.501 -89.5
s-34.334 -46.167 -59.001 -61.5s-56.334 -23 -95.001 -23s-70.5 7.66699 -95.5 23s-44.667 35.833 -59 61.5s-24.333 55.5 -30 89.5s-8.5 70 -8.5 108zM220.003 52c22 0 40.001 5.83301 54.001 17.5s25 27.334 33 47.001s13.333 42.5 16 68.5s4 53.667 4 83
c0 28.667 -1.33301 56.167 -4 82.5s-7.83398 49.333 -15.501 69s-18.5 35.334 -32.5 47.001s-32.333 17.5 -55 17.5c-21.333 0 -38.666 -5.83301 -51.999 -17.5s-23.833 -27.334 -31.5 -47.001s-12.834 -42.667 -15.501 -69s-4 -53.833 -4 -82.5
c0 -29.333 1.33301 -57 4 -83s7.66699 -48.833 15 -68.5s17.833 -35.334 31.5 -47.001s31.167 -17.5 52.5 -17.5zM189.004 751l70 -142h-60l-108 142h98z" />
    <glyph glyph-name="oacute" unicode="&#xf3;" horiz-adv-x="444" 
d="M29 268c0 38 2.83594 74 8.50293 108s15.667 63.833 30 89.5s34 46.167 59 61.5s56.833 23 95.5 23s70.5 -7.66699 95.5 -23s44.667 -35.833 59 -61.5s24.333 -55.5 30 -89.5s8.5 -70 8.5 -108s-2.83301 -74 -8.5 -108s-15.834 -63.833 -30.501 -89.5
s-34.334 -46.167 -59.001 -61.5s-56.334 -23 -95.001 -23s-70.5 7.66699 -95.5 23s-44.667 35.833 -59 61.5s-24.333 55.5 -30 89.5s-8.5 70 -8.5 108zM220.003 52c22 0 40.001 5.83301 54.001 17.5s25 27.334 33 47.001s13.333 42.5 16 68.5s4 53.667 4 83
c0 28.667 -1.33301 56.167 -4 82.5s-7.83398 49.333 -15.501 69s-18.5 35.334 -32.5 47.001s-32.333 17.5 -55 17.5c-21.333 0 -38.666 -5.83301 -51.999 -17.5s-23.833 -27.334 -31.5 -47.001s-12.834 -42.667 -15.501 -69s-4 -53.833 -4 -82.5
c0 -29.333 1.33301 -57 4 -83s7.66699 -48.833 15 -68.5s17.833 -35.334 31.5 -47.001s31.167 -17.5 52.5 -17.5zM259.004 751h98l-108 -142h-60z" />
    <glyph glyph-name="ocircumflex" unicode="&#xf4;" horiz-adv-x="444" 
d="M29 268c0 38 2.83594 74 8.50293 108s15.667 63.833 30 89.5s34 46.167 59 61.5s56.833 23 95.5 23s70.5 -7.66699 95.5 -23s44.667 -35.833 59 -61.5s24.333 -55.5 30 -89.5s8.5 -70 8.5 -108s-2.83301 -74 -8.5 -108s-15.834 -63.833 -30.501 -89.5
s-34.334 -46.167 -59.001 -61.5s-56.334 -23 -95.001 -23s-70.5 7.66699 -95.5 23s-44.667 35.833 -59 61.5s-24.333 55.5 -30 89.5s-8.5 70 -8.5 108zM220.003 52c22 0 40.001 5.83301 54.001 17.5s25 27.334 33 47.001s13.333 42.5 16 68.5s4 53.667 4 83
c0 28.667 -1.33301 56.167 -4 82.5s-7.83398 49.333 -15.501 69s-18.5 35.334 -32.5 47.001s-32.333 17.5 -55 17.5c-21.333 0 -38.666 -5.83301 -51.999 -17.5s-23.833 -27.334 -31.5 -47.001s-12.834 -42.667 -15.501 -69s-4 -53.833 -4 -82.5
c0 -29.333 1.33301 -57 4 -83s7.66699 -48.833 15 -68.5s17.833 -35.334 31.5 -47.001s31.167 -17.5 52.5 -17.5zM184.004 751h77l100 -142h-78l-61 88l-61 -88h-78z" />
    <glyph glyph-name="otilde" unicode="&#xf5;" horiz-adv-x="444" 
d="M29 268c0 38 2.83594 74 8.50293 108s15.667 63.833 30 89.5s34 46.167 59 61.5s56.833 23 95.5 23s70.5 -7.66699 95.5 -23s44.667 -35.833 59 -61.5s24.333 -55.5 30 -89.5s8.5 -70 8.5 -108s-2.83301 -74 -8.5 -108s-15.834 -63.833 -30.501 -89.5
s-34.334 -46.167 -59.001 -61.5s-56.334 -23 -95.001 -23s-70.5 7.66699 -95.5 23s-44.667 35.833 -59 61.5s-24.333 55.5 -30 89.5s-8.5 70 -8.5 108zM220.003 52c22 0 40.001 5.83301 54.001 17.5s25 27.334 33 47.001s13.333 42.5 16 68.5s4 53.667 4 83
c0 28.667 -1.33301 56.167 -4 82.5s-7.83398 49.333 -15.501 69s-18.5 35.334 -32.5 47.001s-32.333 17.5 -55 17.5c-21.333 0 -38.666 -5.83301 -51.999 -17.5s-23.833 -27.334 -31.5 -47.001s-12.834 -42.667 -15.501 -69s-4 -53.833 -4 -82.5
c0 -29.333 1.33301 -57 4 -83s7.66699 -48.833 15 -68.5s17.833 -35.334 31.5 -47.001s31.167 -17.5 52.5 -17.5zM369.004 739c0 -12.667 -1.83105 -25.499 -5.49805 -38.499s-9 -24.833 -16 -35.5s-16 -19.5 -27 -26.5s-23.5 -10.5 -37.5 -10.5c-10.667 0 -21.667 2 -33 6
s-22.166 8.33301 -32.499 13l-28.5 13c-8.66699 4 -15.667 6 -21 6c-13.333 0 -22.833 -5.16699 -28.5 -15.5s-9.16699 -20.166 -10.5 -29.499h-54c0 14.667 2.33301 28.667 7 42s11.167 25.166 19.5 35.499s18.166 18.5 29.499 24.5s23.666 9 36.999 9
c9.33301 0 19.166 -1.83301 29.499 -5.5s20.5 -8.16699 30.5 -13.5l28.5 -13c9 -4 16.833 -6 23.5 -6c12.667 0 21.167 5.16699 25.5 15.5s7.5 20.166 9.5 29.499h54z" />
    <glyph glyph-name="odieresis" unicode="&#xf6;" horiz-adv-x="444" 
d="M29 268c0 38 2.83594 74 8.50293 108s15.667 63.833 30 89.5s34 46.167 59 61.5s56.833 23 95.5 23s70.5 -7.66699 95.5 -23s44.667 -35.833 59 -61.5s24.333 -55.5 30 -89.5s8.5 -70 8.5 -108s-2.83301 -74 -8.5 -108s-15.834 -63.833 -30.501 -89.5
s-34.334 -46.167 -59.001 -61.5s-56.334 -23 -95.001 -23s-70.5 7.66699 -95.5 23s-44.667 35.833 -59 61.5s-24.333 55.5 -30 89.5s-8.5 70 -8.5 108zM220.003 52c22 0 40.001 5.83301 54.001 17.5s25 27.334 33 47.001s13.333 42.5 16 68.5s4 53.667 4 83
c0 28.667 -1.33301 56.167 -4 82.5s-7.83398 49.333 -15.501 69s-18.5 35.334 -32.5 47.001s-32.333 17.5 -55 17.5c-21.333 0 -38.666 -5.83301 -51.999 -17.5s-23.833 -27.334 -31.5 -47.001s-12.834 -42.667 -15.501 -69s-4 -53.833 -4 -82.5
c0 -29.333 1.33301 -57 4 -83s7.66699 -48.833 15 -68.5s17.833 -35.334 31.5 -47.001s31.167 -17.5 52.5 -17.5zM264.004 731h78v-101h-78v101zM102.004 731h78v-101h-78v101z" />
    <glyph glyph-name="divide" unicode="&#xf7;" horiz-adv-x="600" 
d="M244 42c0 15.333 5.5 28.5 16.5 39.5s24.167 16.5 39.5 16.5s28.5 -5.5 39.5 -16.5s16.5 -24.167 16.5 -39.5s-5.5 -28.5 -16.5 -39.5s-24.167 -16.5 -39.5 -16.5s-28.5 5.5 -39.5 16.5s-16.5 24.167 -16.5 39.5zM244 464c0 15.333 5.5 28.5 16.5 39.5
s24.167 16.5 39.5 16.5s28.5 -5.5 39.5 -16.5s16.5 -24.167 16.5 -39.5s-5.5 -28.5 -16.5 -39.5s-24.167 -16.5 -39.5 -16.5s-28.5 5.5 -39.5 16.5s-16.5 24.167 -16.5 39.5zM47 286h506v-66h-506v66z" />
    <glyph glyph-name="oslash" unicode="&#xf8;" horiz-adv-x="444" 
d="M96 36c-25.333 25.333 -42.8301 57.833 -52.4971 97.5s-14.5 84.5 -14.5 134.5c0 38 2.83301 74 8.5 108s15.667 63.833 30 89.5s34 46.167 59 61.5s56.833 23 95.5 23c32.667 0 60.667 -6 84 -18l26 61l48 -21l-30 -71c25.333 -28 42.5 -61.667 51.5 -101
s13.5 -83.333 13.5 -132c0 -38 -2.83301 -74 -8.5 -108s-15.834 -63.833 -30.501 -89.5s-34.334 -46.167 -59.001 -61.5s-56.334 -23 -95.001 -23c-33.333 0 -61.333 6 -84 18l-27 -63l-47 19zM277.003 463c-16 14 -35 21.001 -57 21.001
c-21.333 0 -38.666 -5.83301 -51.999 -17.5s-23.833 -27.334 -31.5 -47.001s-12.834 -42.667 -15.501 -69s-4 -53.833 -4 -82.5c0 -26 1.16699 -51.167 3.5 -75.5s6.83301 -46.5 13.5 -66.5zM167.003 71.001c13.333 -12.667 31 -19.001 53 -19.001s40 5.83301 54 17.5
s25 27.334 33 47.001s13.333 42.5 16 68.5s4 53.667 4 83c0 25.333 -1.16699 50 -3.5 74s-6.83301 45.667 -13.5 65z" />
    <glyph glyph-name="ugrave" unicode="&#xf9;" 
d="M408 0l-79.998 -0.000976562v63h-2c-11.333 -24.667 -29.333 -43.667 -54 -57s-50 -20 -76 -20c-35.333 0 -62.5 5.83301 -81.5 17.5s-33 26.167 -42 43.5s-14.167 35.833 -15.5 55.5s-2 37.5 -2 53.5v380h84v-370c0 -10 0.5 -21.333 1.5 -34s4.16699 -24.5 9.5 -35.5
s13.166 -20.167 23.499 -27.5s25.166 -11 44.499 -11c11.333 0 23.166 2 35.499 6s23.833 10.333 34.5 19s19.334 19.834 26.001 33.501s10 30.167 10 49.5v370h84v-536zM197.002 750.999l70 -142h-60l-108 142h98z" />
    <glyph glyph-name="uacute" unicode="&#xfa;" 
d="M408 0l-79.998 -0.000976562v63h-2c-11.333 -24.667 -29.333 -43.667 -54 -57s-50 -20 -76 -20c-35.333 0 -62.5 5.83301 -81.5 17.5s-33 26.167 -42 43.5s-14.167 35.833 -15.5 55.5s-2 37.5 -2 53.5v380h84v-370c0 -10 0.5 -21.333 1.5 -34s4.16699 -24.5 9.5 -35.5
s13.166 -20.167 23.499 -27.5s25.166 -11 44.499 -11c11.333 0 23.166 2 35.499 6s23.833 10.333 34.5 19s19.334 19.834 26.001 33.501s10 30.167 10 49.5v370h84v-536zM265.002 750.999h98l-108 -142h-60z" />
    <glyph glyph-name="ucircumflex" unicode="&#xfb;" 
d="M408 0l-79.998 -0.000976562v63h-2c-11.333 -24.667 -29.333 -43.667 -54 -57s-50 -20 -76 -20c-35.333 0 -62.5 5.83301 -81.5 17.5s-33 26.167 -42 43.5s-14.167 35.833 -15.5 55.5s-2 37.5 -2 53.5v380h84v-370c0 -10 0.5 -21.333 1.5 -34s4.16699 -24.5 9.5 -35.5
s13.166 -20.167 23.499 -27.5s25.166 -11 44.499 -11c11.333 0 23.166 2 35.499 6s23.833 10.333 34.5 19s19.334 19.834 26.001 33.501s10 30.167 10 49.5v370h84v-536zM194.002 750.999h77l100 -142h-78l-61 88l-61 -88h-78z" />
    <glyph glyph-name="udieresis" unicode="&#xfc;" 
d="M408 0l-79.998 -0.000976562v63h-2c-11.333 -24.667 -29.333 -43.667 -54 -57s-50 -20 -76 -20c-35.333 0 -62.5 5.83301 -81.5 17.5s-33 26.167 -42 43.5s-14.167 35.833 -15.5 55.5s-2 37.5 -2 53.5v380h84v-370c0 -10 0.5 -21.333 1.5 -34s4.16699 -24.5 9.5 -35.5
s13.166 -20.167 23.499 -27.5s25.166 -11 44.499 -11c11.333 0 23.166 2 35.499 6s23.833 10.333 34.5 19s19.334 19.834 26.001 33.501s10 30.167 10 49.5v370h84v-536zM273.002 730.999h78v-101h-78v101zM111.002 730.999h78v-101h-78v101z" />
    <glyph glyph-name="yacute" unicode="&#xfd;" horiz-adv-x="406" 
d="M10 536h91.999l106 -430h2l94 430h92l-155 -572c-5.33301 -18.667 -11 -36.334 -17 -53.001s-14.167 -31.5 -24.5 -44.5s-23.5 -23.333 -39.5 -31s-36.667 -11.5 -62 -11.5c-16.667 0 -29.167 0.333008 -37.5 1s-16.166 1.33398 -23.499 2.00098v66
c12 -2 28.333 -3 49 -3c19.333 0 33.833 5 43.5 15s17.167 22.333 22.5 37l16 47zM245.999 751h98l-108 -142h-60z" />
    <glyph glyph-name="thorn" unicode="&#xfe;" 
d="M55 714l83.999 0.00292969v-239h2c3.33301 11.333 8.83301 21.666 16.5 30.999s16.834 17.166 27.501 23.499s21.834 11.333 33.501 15s23.167 5.5 34.5 5.5c32 0 59 -6.66699 81 -20s40 -32 54 -56s24.167 -52.667 30.5 -86s9.5 -70 9.5 -110
c0 -30.667 -2.66699 -63 -8 -97s-14.5 -65.5 -27.5 -94.5s-30.833 -53 -53.5 -72s-51.334 -28.5 -86.001 -28.5c-24 0 -46.333 6.66699 -67 20s-35.667 31.666 -45 54.999h-2v-237h-84v890zM133.999 268.003c0 -26 1.33398 -51.5 4.00098 -76.5s8 -47.5 16 -67.5
s19 -36 33 -48s32.333 -18 55 -18c19.333 0 35.333 5 48 15s22.667 24.333 30 43s12.5 41.667 15.5 69s4.5 58.333 4.5 93c0 29.333 -1.5 56.333 -4.5 81s-8.16699 45.834 -15.5 63.501s-17.333 31.334 -30 41.001s-28.667 14.5 -48 14.5c-23.333 0 -42 -5.16699 -56 -15.5
s-24.833 -24.833 -32.5 -43.5s-12.834 -40.834 -15.501 -66.501s-4 -53.834 -4 -84.501z" />
    <glyph glyph-name="ydieresis" unicode="&#xff;" horiz-adv-x="406" 
d="M10 536h91.999l106 -430h2l94 430h92l-155 -572c-5.33301 -18.667 -11 -36.334 -17 -53.001s-14.167 -31.5 -24.5 -44.5s-23.5 -23.333 -39.5 -31s-36.667 -11.5 -62 -11.5c-16.667 0 -29.167 0.333008 -37.5 1s-16.166 1.33398 -23.499 2.00098v66
c12 -2 28.333 -3 49 -3c19.333 0 33.833 5 43.5 15s17.167 22.333 22.5 37l16 47zM251.999 731h78v-101h-78v101zM89.999 731h78v-101h-78v101z" />
    <glyph glyph-name="Amacron" unicode="&#x100;" horiz-adv-x="500" 
d="M155 268h192l-91 345h-2zM198 714h118l192 -714h-92l-51 196h-228l-53 -196h-92zM125 871h264v-54h-264v54z" />
    <glyph glyph-name="amacron" unicode="&#x101;" horiz-adv-x="444" 
d="M301 292c-8 -8 -18.167 -14.667 -30.5 -20s-25.333 -10.166 -39 -14.499l-40 -13c-13 -4.33301 -24.167 -9.5 -33.5 -15.5c-13.333 -8.66699 -23.5 -19.167 -30.5 -31.5s-10.5 -30.166 -10.5 -53.499c0 -28 5.5 -50.333 16.5 -67s30.833 -25 59.5 -25
c14 0 27.5 2.66699 40.5 8s24.5 12.666 34.5 21.999s18 20.166 24 32.499s9 25.5 9 39.5v138zM42 374c0 60.667 13.998 105.17 41.998 133.503s74 42.5 138 42.5c40.667 0 72 -5.33301 94 -16s38.167 -24 48.5 -40s16.333 -32.833 18 -50.5s2.5 -33.5 2.5 -47.5v-299
c0 -11.333 1 -21.333 3 -30s9.66699 -13 23 -13c5.33301 0 9.5 0.5 12.5 1.5s5.5 2.16699 7.5 3.5v-60c-3.33301 -0.666992 -9.66602 -1.66699 -18.999 -3s-19.333 -2 -30 -2c-8 0 -16.167 0.333008 -24.5 1s-16.333 3.16699 -24 7.5s-14 11.166 -19 20.499
s-7.83301 22.666 -8.5 39.999h-2c-13.333 -24 -31.833 -42.833 -55.5 -56.5s-48.167 -20.5 -73.5 -20.5c-50 0 -86.833 14 -110.5 42s-35.5 66 -35.5 114c0 38 8.16699 69.5 24.5 94.5s41.833 42.833 76.5 53.5l113 34c15.333 4.66699 27.166 9.5 35.499 14.5
s14.333 10.5 18 16.5s5.83398 13 6.50098 21s1 17.667 1 29c0 52.667 -28.667 79 -86 79c-23.333 0 -41.166 -4.5 -53.499 -13.5s-21.333 -19.5 -27 -31.5s-9 -23.833 -10 -35.5s-1.5 -19.834 -1.5 -24.501v-5h-84zM91.998 707.003h264v-54h-264v54z" />
    <glyph glyph-name="Abreve" unicode="&#x102;" horiz-adv-x="500" 
d="M155 268h192l-91 345h-2zM198 714h118l192 -714h-92l-51 196h-228l-53 -196h-92zM181 890c0 -9.33301 2.33301 -18 7 -26s10.667 -15 18 -21s15.5 -10.833 24.5 -14.5s18.167 -5.5 27.5 -5.5c8.66699 0 17.667 1.83301 27 5.5s17.666 8.5 24.999 14.5s13.333 13 18 21
s7 16.667 7 26h48c0 -10 -1.83301 -22.333 -5.5 -37s-10.167 -28.667 -19.5 -42s-22.166 -24.666 -38.499 -33.999s-36.833 -14 -61.5 -14c-25.333 0 -46 4.66699 -62 14s-28.667 20.666 -38 33.999s-15.833 27.333 -19.5 42s-5.5 27 -5.5 37h48z" />
    <glyph glyph-name="abreve" unicode="&#x103;" horiz-adv-x="444" 
d="M301 292c-8 -8 -18.167 -14.667 -30.5 -20s-25.333 -10.166 -39 -14.499l-40 -13c-13 -4.33301 -24.167 -9.5 -33.5 -15.5c-13.333 -8.66699 -23.5 -19.167 -30.5 -31.5s-10.5 -30.166 -10.5 -53.499c0 -28 5.5 -50.333 16.5 -67s30.833 -25 59.5 -25
c14 0 27.5 2.66699 40.5 8s24.5 12.666 34.5 21.999s18 20.166 24 32.499s9 25.5 9 39.5v138zM42 374c0 60.667 13.998 105.17 41.998 133.503s74 42.5 138 42.5c40.667 0 72 -5.33301 94 -16s38.167 -24 48.5 -40s16.333 -32.833 18 -50.5s2.5 -33.5 2.5 -47.5v-299
c0 -11.333 1 -21.333 3 -30s9.66699 -13 23 -13c5.33301 0 9.5 0.5 12.5 1.5s5.5 2.16699 7.5 3.5v-60c-3.33301 -0.666992 -9.66602 -1.66699 -18.999 -3s-19.333 -2 -30 -2c-8 0 -16.167 0.333008 -24.5 1s-16.333 3.16699 -24 7.5s-14 11.166 -19 20.499
s-7.83301 22.666 -8.5 39.999h-2c-13.333 -24 -31.833 -42.833 -55.5 -56.5s-48.167 -20.5 -73.5 -20.5c-50 0 -86.833 14 -110.5 42s-35.5 66 -35.5 114c0 38 8.16699 69.5 24.5 94.5s41.833 42.833 76.5 53.5l113 34c15.333 4.66699 27.166 9.5 35.499 14.5
s14.333 10.5 18 16.5s5.83398 13 6.50098 21s1 17.667 1 29c0 52.667 -28.667 79 -86 79c-23.333 0 -41.166 -4.5 -53.499 -13.5s-21.333 -19.5 -27 -31.5s-9 -23.833 -10 -35.5s-1.5 -19.834 -1.5 -24.501v-5h-84zM143.998 744.003c0 -9.33301 2.33301 -18 7 -26
s10.667 -15 18 -21s15.5 -10.833 24.5 -14.5s18.167 -5.5 27.5 -5.5c8.66699 0 17.667 1.83301 27 5.5s17.666 8.5 24.999 14.5s13.333 13 18 21s7 16.667 7 26h48c0 -10 -1.83301 -22.333 -5.5 -37s-10.167 -28.667 -19.5 -42s-22.166 -24.666 -38.499 -33.999
s-36.833 -14 -61.5 -14c-25.333 0 -46 4.66699 -62 14s-28.667 20.666 -38 33.999s-15.833 27.333 -19.5 42s-5.5 27 -5.5 37h48z" />
    <glyph glyph-name="Aogonek" unicode="&#x104;" horiz-adv-x="500" 
d="M469 0c-22 -16 -39.666 -30.167 -52.999 -42.5s-23.833 -23.333 -31.5 -33s-12.834 -18.5 -15.501 -26.5s-4 -15.667 -4 -23c0 -25.333 13.333 -38 40 -38c13.333 0 24.833 1.33301 34.5 4s20.167 6.66699 31.5 12l18 -35c-16.667 -10 -34.167 -17.167 -52.5 -21.5
s-34.833 -6.5 -49.5 -6.5c-32.667 0 -56.5 7 -71.5 21s-22.5 33 -22.5 57c0 48.667 41 92.667 123 132l-51 196h-228l-53 -196h-92l206 714h118l192 -714h-39zM155.001 268h192l-91 345h-2z" />
    <glyph glyph-name="aogonek" unicode="&#x105;" horiz-adv-x="444" 
d="M42 374c0 60.667 13.998 105.168 41.998 133.501s74 42.5 138 42.5c40.667 0 72 -5.33301 94 -16s38.167 -24 48.5 -40s16.333 -32.833 18 -50.5s2.5 -33.5 2.5 -47.5v-299c0 -11.333 1 -21.333 3 -30s9.66699 -13 23 -13c5.33301 0 9.5 0.5 12.5 1.5
s5.5 2.16699 7.5 3.5v-60c-2.66699 -0.666992 -9 -1.66699 -19 -3l-8 -1c-19.333 -14 -34.666 -26.333 -45.999 -37c-21.333 -19.333 -35.166 -35 -41.499 -47s-9.5 -24 -9.5 -36c0 -25.333 13.333 -38 40 -38c13.333 0 24.833 1.33301 34.5 4s20.167 6.66699 31.5 12
l18 -35c-16.667 -10 -34.167 -17.167 -52.5 -21.5s-34.833 -6.5 -49.5 -6.5c-32.667 0 -56.5 7 -71.5 21s-22.5 33 -22.5 57c0 48.667 38.333 91.334 115 128.001c-6.66699 1.33301 -12.334 3.33301 -17.001 6c-6.66699 4.66699 -12.667 11.667 -18 21
s-8.33301 22.666 -9 39.999h-2c-13.333 -24 -31.833 -42.833 -55.5 -56.5s-48.167 -20.5 -73.5 -20.5c-50 0 -86.833 14 -110.5 42s-35.5 66 -35.5 114c0 38 8.16699 69.5 24.5 94.5s41.833 42.833 76.5 53.5l113 34c15.333 4.66699 27.166 9.5 35.499 14.5
s14.333 10.5 18 16.5s5.83398 13 6.50098 21s1 17.667 1 29c0 52.667 -28.667 79 -86 79c-23.333 0 -41.166 -4.5 -53.499 -13.5s-21.333 -19.5 -27 -31.5s-9 -23.833 -10 -35.5s-1.5 -19.834 -1.5 -24.501v-5h-84zM300.998 292.001c-8 -8 -18.167 -14.667 -30.5 -20
s-25.333 -10.166 -39 -14.499l-40 -13c-13 -4.33301 -24.167 -9.5 -33.5 -15.5c-13.333 -8.66699 -23.5 -19.167 -30.5 -31.5s-10.5 -30.166 -10.5 -53.499c0 -28 5.5 -50.333 16.5 -67s30.833 -25 59.5 -25c14 0 27.5 2.66699 40.5 8s24.5 12.666 34.5 21.999
s18 20.166 24 32.499s9 25.5 9 39.5v138z" />
    <glyph glyph-name="Cacute" unicode="&#x106;" horiz-adv-x="519" 
d="M495 245c-2 -34 -7.16699 -66.5 -15.5 -97.5s-20.833 -58.5 -37.5 -82.5s-38.5 -43.167 -65.5 -57.5s-59.833 -21.5 -98.5 -21.5c-50.667 0 -91.167 10.833 -121.5 32.5s-53.5 50.167 -69.5 85.5s-26.5 75 -31.5 119s-7.5 88.667 -7.5 134
c0 44.667 2.66699 89.167 8 133.5s16.333 84.166 33 119.499s40 63.833 70 85.5s69.667 32.5 119 32.5c72.667 0 125.5 -19.333 158.5 -58s50.5 -93.334 52.5 -164.001h-92c-0.666992 20 -3 39.167 -7 57.5s-10.5 34.333 -19.5 48s-21 24.5 -36 32.5s-33.833 12 -56.5 12
c-30.667 0 -55 -7.83301 -73 -23.5s-31.833 -37 -41.5 -64s-16 -58.667 -19 -95s-4.5 -75.166 -4.5 -116.499s1.5 -80.166 4.5 -116.499s9.33301 -68 19 -95s23.5 -48.333 41.5 -64s42.333 -23.5 73 -23.5c26.667 0 48 5.66699 64 17s28.5 26 37.5 44s15 38 18 60
s4.83301 44 5.5 66h92zM318 915h98l-108 -142h-60z" />
    <glyph glyph-name="cacute" unicode="&#x107;" horiz-adv-x="426" 
d="M310 373c0 12.667 -1.49902 25.6631 -4.49902 38.9961s-7.66699 25.333 -14 36s-15 19.334 -26 26.001s-24.5 10 -40.5 10c-13.333 0 -26.166 -2.33301 -38.499 -7s-23.5 -14.834 -33.5 -30.501s-18 -38.167 -24 -67.5s-9 -68.333 -9 -117c0 -17.333 0.5 -38 1.5 -62
s4.83301 -47 11.5 -69s16.834 -40.667 30.501 -56s33.167 -23 58.5 -23c18 0 32.667 4.33301 44 13s20.333 19.5 27 32.5s11.167 27.333 13.5 43s3.5 30.834 3.5 45.501h84c0 -21.333 -2.83301 -43.666 -8.5 -66.999s-15.334 -44.833 -29.001 -64.5s-31.834 -36 -54.501 -49
s-50.667 -19.5 -84 -19.5c-66 0 -113.5 22.667 -142.5 68s-43.5 114.333 -43.5 207c0 33.333 2.16699 67.166 6.5 101.499s13.333 65.333 27 93s33 50.334 58 68.001s58.167 26.5 99.5 26.5c36.667 0 66.167 -6.33301 88.5 -19s39.666 -28.167 51.999 -46.5
s20.5 -37.666 24.5 -57.999s6 -38.166 6 -53.499h-84zM264.001 750.996h98l-108 -142h-60z" />
    <glyph glyph-name="Ccircumflex" unicode="&#x108;" horiz-adv-x="519" 
d="M495 245c-2 -34 -7.16699 -66.5 -15.5 -97.5s-20.833 -58.5 -37.5 -82.5s-38.5 -43.167 -65.5 -57.5s-59.833 -21.5 -98.5 -21.5c-50.667 0 -91.167 10.833 -121.5 32.5s-53.5 50.167 -69.5 85.5s-26.5 75 -31.5 119s-7.5 88.667 -7.5 134
c0 44.667 2.66699 89.167 8 133.5s16.333 84.166 33 119.499s40 63.833 70 85.5s69.667 32.5 119 32.5c72.667 0 125.5 -19.333 158.5 -58s50.5 -93.334 52.5 -164.001h-92c-0.666992 20 -3 39.167 -7 57.5s-10.5 34.333 -19.5 48s-21 24.5 -36 32.5s-33.833 12 -56.5 12
c-30.667 0 -55 -7.83301 -73 -23.5s-31.833 -37 -41.5 -64s-16 -58.667 -19 -95s-4.5 -75.166 -4.5 -116.499s1.5 -80.166 4.5 -116.499s9.33301 -68 19 -95s23.5 -48.333 41.5 -64s42.333 -23.5 73 -23.5c26.667 0 48 5.66699 64 17s28.5 26 37.5 44s15 38 18 60
s4.83301 44 5.5 66h92zM242 915h77l100 -142h-78l-61 88l-61 -88h-78z" />
    <glyph glyph-name="ccircumflex" unicode="&#x109;" horiz-adv-x="426" 
d="M310 373c0 12.667 -1.49902 25.6631 -4.49902 38.9961s-7.66699 25.333 -14 36s-15 19.334 -26 26.001s-24.5 10 -40.5 10c-13.333 0 -26.166 -2.33301 -38.499 -7s-23.5 -14.834 -33.5 -30.501s-18 -38.167 -24 -67.5s-9 -68.333 -9 -117c0 -17.333 0.5 -38 1.5 -62
s4.83301 -47 11.5 -69s16.834 -40.667 30.501 -56s33.167 -23 58.5 -23c18 0 32.667 4.33301 44 13s20.333 19.5 27 32.5s11.167 27.333 13.5 43s3.5 30.834 3.5 45.501h84c0 -21.333 -2.83301 -43.666 -8.5 -66.999s-15.334 -44.833 -29.001 -64.5s-31.834 -36 -54.501 -49
s-50.667 -19.5 -84 -19.5c-66 0 -113.5 22.667 -142.5 68s-43.5 114.333 -43.5 207c0 33.333 2.16699 67.166 6.5 101.499s13.333 65.333 27 93s33 50.334 58 68.001s58.167 26.5 99.5 26.5c36.667 0 66.167 -6.33301 88.5 -19s39.666 -28.167 51.999 -46.5
s20.5 -37.666 24.5 -57.999s6 -38.166 6 -53.499h-84zM188.001 750.996h77l100 -142h-78l-61 88l-61 -88h-78z" />
    <glyph glyph-name="Cdotaccent" unicode="&#x10a;" horiz-adv-x="519" 
d="M495 245c-2 -34 -7.16699 -66.5 -15.5 -97.5s-20.833 -58.5 -37.5 -82.5s-38.5 -43.167 -65.5 -57.5s-59.833 -21.5 -98.5 -21.5c-50.667 0 -91.167 10.833 -121.5 32.5s-53.5 50.167 -69.5 85.5s-26.5 75 -31.5 119s-7.5 88.667 -7.5 134
c0 44.667 2.66699 89.167 8 133.5s16.333 84.166 33 119.499s40 63.833 70 85.5s69.667 32.5 119 32.5c72.667 0 125.5 -19.333 158.5 -58s50.5 -93.334 52.5 -164.001h-92c-0.666992 20 -3 39.167 -7 57.5s-10.5 34.333 -19.5 48s-21 24.5 -36 32.5s-33.833 12 -56.5 12
c-30.667 0 -55 -7.83301 -73 -23.5s-31.833 -37 -41.5 -64s-16 -58.667 -19 -95s-4.5 -75.166 -4.5 -116.499s1.5 -80.166 4.5 -116.499s9.33301 -68 19 -95s23.5 -48.333 41.5 -64s42.333 -23.5 73 -23.5c26.667 0 48 5.66699 64 17s28.5 26 37.5 44s15 38 18 60
s4.83301 44 5.5 66h92zM240 895h78v-101h-78v101z" />
    <glyph glyph-name="cdotaccent" unicode="&#x10b;" horiz-adv-x="426" 
d="M310 373c0 12.667 -1.49902 25.6631 -4.49902 38.9961s-7.66699 25.333 -14 36s-15 19.334 -26 26.001s-24.5 10 -40.5 10c-13.333 0 -26.166 -2.33301 -38.499 -7s-23.5 -14.834 -33.5 -30.501s-18 -38.167 -24 -67.5s-9 -68.333 -9 -117c0 -17.333 0.5 -38 1.5 -62
s4.83301 -47 11.5 -69s16.834 -40.667 30.501 -56s33.167 -23 58.5 -23c18 0 32.667 4.33301 44 13s20.333 19.5 27 32.5s11.167 27.333 13.5 43s3.5 30.834 3.5 45.501h84c0 -21.333 -2.83301 -43.666 -8.5 -66.999s-15.334 -44.833 -29.001 -64.5s-31.834 -36 -54.501 -49
s-50.667 -19.5 -84 -19.5c-66 0 -113.5 22.667 -142.5 68s-43.5 114.333 -43.5 207c0 33.333 2.16699 67.166 6.5 101.499s13.333 65.333 27 93s33 50.334 58 68.001s58.167 26.5 99.5 26.5c36.667 0 66.167 -6.33301 88.5 -19s39.666 -28.167 51.999 -46.5
s20.5 -37.666 24.5 -57.999s6 -38.166 6 -53.499h-84zM186.001 730.996h78v-101h-78v101z" />
    <glyph glyph-name="Ccaron" unicode="&#x10c;" horiz-adv-x="519" 
d="M495 245c-2 -34 -7.16699 -66.5 -15.5 -97.5s-20.833 -58.5 -37.5 -82.5s-38.5 -43.167 -65.5 -57.5s-59.833 -21.5 -98.5 -21.5c-50.667 0 -91.167 10.833 -121.5 32.5s-53.5 50.167 -69.5 85.5s-26.5 75 -31.5 119s-7.5 88.667 -7.5 134
c0 44.667 2.66699 89.167 8 133.5s16.333 84.166 33 119.499s40 63.833 70 85.5s69.667 32.5 119 32.5c72.667 0 125.5 -19.333 158.5 -58s50.5 -93.334 52.5 -164.001h-92c-0.666992 20 -3 39.167 -7 57.5s-10.5 34.333 -19.5 48s-21 24.5 -36 32.5s-33.833 12 -56.5 12
c-30.667 0 -55 -7.83301 -73 -23.5s-31.833 -37 -41.5 -64s-16 -58.667 -19 -95s-4.5 -75.166 -4.5 -116.499s1.5 -80.166 4.5 -116.499s9.33301 -68 19 -95s23.5 -48.333 41.5 -64s42.333 -23.5 73 -23.5c26.667 0 48 5.66699 64 17s28.5 26 37.5 44s15 38 18 60
s4.83301 44 5.5 66h92zM315 773h-77l-100 142h78l61 -88l61 88h78z" />
    <glyph glyph-name="ccaron" unicode="&#x10d;" horiz-adv-x="426" 
d="M310 373c0 12.667 -1.49902 25.6631 -4.49902 38.9961s-7.66699 25.333 -14 36s-15 19.334 -26 26.001s-24.5 10 -40.5 10c-13.333 0 -26.166 -2.33301 -38.499 -7s-23.5 -14.834 -33.5 -30.501s-18 -38.167 -24 -67.5s-9 -68.333 -9 -117c0 -17.333 0.5 -38 1.5 -62
s4.83301 -47 11.5 -69s16.834 -40.667 30.501 -56s33.167 -23 58.5 -23c18 0 32.667 4.33301 44 13s20.333 19.5 27 32.5s11.167 27.333 13.5 43s3.5 30.834 3.5 45.501h84c0 -21.333 -2.83301 -43.666 -8.5 -66.999s-15.334 -44.833 -29.001 -64.5s-31.834 -36 -54.501 -49
s-50.667 -19.5 -84 -19.5c-66 0 -113.5 22.667 -142.5 68s-43.5 114.333 -43.5 207c0 33.333 2.16699 67.166 6.5 101.499s13.333 65.333 27 93s33 50.334 58 68.001s58.167 26.5 99.5 26.5c36.667 0 66.167 -6.33301 88.5 -19s39.666 -28.167 51.999 -46.5
s20.5 -37.666 24.5 -57.999s6 -38.166 6 -53.499h-84zM258.001 608.996h-77l-100 142h78l61 -88l61 88h78z" />
    <glyph glyph-name="Dcaron" unicode="&#x10e;" horiz-adv-x="556" 
d="M67 714l191.001 -0.00292969c55.333 0 99.5 -9.33301 132.5 -28s58.167 -44.167 75.5 -76.5s28.666 -70.166 33.999 -113.499s8 -89.666 8 -138.999c0 -45.333 -3.33301 -89.333 -10 -132s-19 -80.667 -37 -114s-42.667 -60.166 -74 -80.499s-71.333 -30.5 -120 -30.5
h-200v714zM155.001 71.9971h92c38 0 68.167 8.83301 90.5 26.5s39.333 40.167 51 67.5s19.167 57.833 22.5 91.5s5 66.5 5 98.5c0 34.667 -1.33301 69 -4 103s-9.5 64.5 -20.5 91.5s-27.833 49 -50.5 66s-54 25.5 -94 25.5h-92v-570zM289.001 772.997h-77l-100 142h78
l61 -88l61 88h78z" />
    <glyph glyph-name="dcaron" unicode="&#x10f;" horiz-adv-x="524" 
d="M408 0l-79.999 -0.00292969v66h-2c-2.66699 -10 -7.5 -19.833 -14.5 -29.5s-15.667 -18.167 -26 -25.5s-21.833 -13.333 -34.5 -18s-26.334 -7 -41.001 -7c-32 0 -59 6.83301 -81 20.5s-40 32.834 -54 57.501s-24.167 54.334 -30.5 89.001s-9.5 73 -9.5 115
c0 28 1.66699 58.5 5 91.5s10.833 63.5 22.5 91.5s28.667 51.5 51 70.5s52.5 28.5 90.5 28.5c24 0 47.333 -6.66699 70 -20s38.667 -31.666 48 -54.999h2v239h84v-714zM123.001 267.997c0 -32 1.49902 -61.002 4.49902 -87.002s8.16699 -48 15.5 -66s17.333 -32 30 -42
s28.667 -15 48 -15c22.667 0 41.167 5.16699 55.5 15.5s25.333 24.833 33 43.5s12.834 40.834 15.501 66.501s4 53.834 4 84.501c0 26 -1.33301 51.5 -4 76.5s-8 47.5 -16 67.5s-19 36 -33 48s-32.333 18 -55 18c-19.333 0 -35.333 -5 -48 -15s-22.667 -24 -30 -42
s-12.5 -40 -15.5 -66s-4.5 -55 -4.5 -87zM477 713.995h87l-59 -142h-54z" />
    <glyph glyph-name="Dcroat" unicode="&#x110;" horiz-adv-x="556" 
d="M247 72c38 0 68.167 8.83301 90.5 26.5s39.333 40.167 51 67.5s19.167 57.833 22.5 91.5s5 66.5 5 98.5c0 34.667 -1.33301 69 -4 103s-9.5 64.5 -20.5 91.5s-27.833 49 -50.5 66s-54 25.5 -94 25.5h-92v-236h134v-66h-134v-268h92zM67 340l-57.999 -0.00292969v66h58
v308h191c55.333 0 99.5 -9.33301 132.5 -28s58.167 -44.167 75.5 -76.5s28.666 -70.166 33.999 -113.499s8 -89.666 8 -138.999c0 -45.333 -3.33301 -89.333 -10 -132s-19 -80.667 -37 -114s-42.667 -60.166 -74 -80.499s-71.333 -30.5 -120 -30.5h-200v340z" />
    <glyph glyph-name="dcroat" unicode="&#x111;" horiz-adv-x="478" 
d="M408 0l-79.999 -0.00292969v66h-2c-2.66699 -10 -7.5 -19.833 -14.5 -29.5s-15.667 -18.167 -26 -25.5s-21.833 -13.333 -34.5 -18s-26.334 -7 -41.001 -7c-32 0 -59 6.83301 -81 20.5s-40 32.834 -54 57.501s-24.167 54.334 -30.5 89.001s-9.5 73 -9.5 115
c0 28 1.66699 58.5 5 91.5s10.833 63.5 22.5 91.5s28.667 51.5 51 70.5s52.5 28.5 90.5 28.5c24 0 47.333 -6.66699 70 -20s38.667 -31.666 48 -54.999h2v116h-102v49h102v74h84v-74h78v-49h-78v-591zM123.001 267.997c0 -32 1.49902 -61.002 4.49902 -87.002
s8.16699 -48 15.5 -66s17.333 -32 30 -42s28.667 -15 48 -15c22.667 0 41.167 5.16699 55.5 15.5s25.333 24.833 33 43.5s12.834 40.834 15.501 66.501s4 53.834 4 84.501c0 26 -1.33301 51.5 -4 76.5s-8 47.5 -16 67.5s-19 36 -33 48s-32.333 18 -55 18
c-19.333 0 -35.333 -5 -48 -15s-22.667 -24 -30 -42s-12.5 -40 -15.5 -66s-4.5 -55 -4.5 -87z" />
    <glyph glyph-name="Emacron" unicode="&#x112;" 
d="M58 714h369v-78h-281v-224h265v-78h-265v-256h293v-78h-381v714zM115 871h264v-54h-264v54z" />
    <glyph glyph-name="emacron" unicode="&#x113;" horiz-adv-x="444" 
d="M125 258c0 -20.667 0.498047 -42.999 1.49805 -66.999s4.83301 -46.333 11.5 -67s16.834 -37.834 30.501 -51.501s33.5 -20.5 59.5 -20.5c20 0 36 4.5 48 13.5s21.167 20 27.5 33s10.5 26.667 12.5 41s3 26.5 3 36.5h84c0 -14 -2.5 -31.833 -7.5 -53.5
s-14.167 -42.667 -27.5 -63s-31.666 -37.666 -54.999 -51.999s-53.333 -21.5 -90 -21.5c-66 0 -113.5 22.667 -142.5 68s-43.5 114.333 -43.5 207c0 33.333 2.16699 67.166 6.5 101.499s13.333 65.333 27 93s33 50.334 58 68.001s58.167 26.5 99.5 26.5
c40.667 0 73 -8 97 -24s42 -36.5 54 -61.5s19.667 -52.833 23 -83.5s5 -60.334 5 -89.001v-34h-282zM318.998 324.001v28.998c0 14.667 -1.33301 29.834 -4 45.501s-7.5 29.834 -14.5 42.501s-16.5 23 -28.5 31s-27.333 12 -46 12c-22 0 -39.5 -5.83301 -52.5 -17.5
s-22.833 -25.167 -29.5 -40.5s-11 -30.833 -13 -46.5s-3 -27.5 -3 -35.5v-20h191zM96.998 706.999h264v-54h-264v54z" />
    <glyph glyph-name="Ebreve" unicode="&#x114;" 
d="M58 714h369v-78h-281v-224h265v-78h-265v-256h293v-78h-381v714zM163 908c0 -9.33301 2.33301 -18 7 -26s10.667 -15 18 -21s15.5 -10.833 24.5 -14.5s18.167 -5.5 27.5 -5.5c8.66699 0 17.667 1.83301 27 5.5s17.666 8.5 24.999 14.5s13.333 13 18 21s7 16.667 7 26h48
c0 -10 -1.83301 -22.333 -5.5 -37s-10.167 -28.667 -19.5 -42s-22.166 -24.666 -38.499 -33.999s-36.833 -14 -61.5 -14c-25.333 0 -46 4.66699 -62 14s-28.667 20.666 -38 33.999s-15.833 27.333 -19.5 42s-5.5 27 -5.5 37h48z" />
    <glyph glyph-name="ebreve" unicode="&#x115;" horiz-adv-x="444" 
d="M125 258c0 -20.667 0.498047 -42.999 1.49805 -66.999s4.83301 -46.333 11.5 -67s16.834 -37.834 30.501 -51.501s33.5 -20.5 59.5 -20.5c20 0 36 4.5 48 13.5s21.167 20 27.5 33s10.5 26.667 12.5 41s3 26.5 3 36.5h84c0 -14 -2.5 -31.833 -7.5 -53.5
s-14.167 -42.667 -27.5 -63s-31.666 -37.666 -54.999 -51.999s-53.333 -21.5 -90 -21.5c-66 0 -113.5 22.667 -142.5 68s-43.5 114.333 -43.5 207c0 33.333 2.16699 67.166 6.5 101.499s13.333 65.333 27 93s33 50.334 58 68.001s58.167 26.5 99.5 26.5
c40.667 0 73 -8 97 -24s42 -36.5 54 -61.5s19.667 -52.833 23 -83.5s5 -60.334 5 -89.001v-34h-282zM318.998 324.001v28.998c0 14.667 -1.33301 29.834 -4 45.501s-7.5 29.834 -14.5 42.501s-16.5 23 -28.5 31s-27.333 12 -46 12c-22 0 -39.5 -5.83301 -52.5 -17.5
s-22.833 -25.167 -29.5 -40.5s-11 -30.833 -13 -46.5s-3 -27.5 -3 -35.5v-20h191zM152.998 743.999c0 -9.33301 2.33301 -18 7 -26s10.667 -15 18 -21s15.5 -10.833 24.5 -14.5s18.167 -5.5 27.5 -5.5c8.66699 0 17.667 1.83301 27 5.5s17.666 8.5 24.999 14.5
s13.333 13 18 21s7 16.667 7 26h48c0 -10 -1.83301 -22.333 -5.5 -37s-10.167 -28.667 -19.5 -42s-22.166 -24.666 -38.499 -33.999s-36.833 -14 -61.5 -14c-25.333 0 -46 4.66699 -62 14s-28.667 20.666 -38 33.999s-15.833 27.333 -19.5 42s-5.5 27 -5.5 37h48z" />
    <glyph glyph-name="Edotaccent" unicode="&#x116;" 
d="M58 714h369v-78h-281v-224h265v-78h-265v-256h293v-78h-381v714zM205 895h78v-101h-78v101z" />
    <glyph glyph-name="edotaccent" unicode="&#x117;" horiz-adv-x="444" 
d="M125 258c0 -20.667 0.498047 -42.999 1.49805 -66.999s4.83301 -46.333 11.5 -67s16.834 -37.834 30.501 -51.501s33.5 -20.5 59.5 -20.5c20 0 36 4.5 48 13.5s21.167 20 27.5 33s10.5 26.667 12.5 41s3 26.5 3 36.5h84c0 -14 -2.5 -31.833 -7.5 -53.5
s-14.167 -42.667 -27.5 -63s-31.666 -37.666 -54.999 -51.999s-53.333 -21.5 -90 -21.5c-66 0 -113.5 22.667 -142.5 68s-43.5 114.333 -43.5 207c0 33.333 2.16699 67.166 6.5 101.499s13.333 65.333 27 93s33 50.334 58 68.001s58.167 26.5 99.5 26.5
c40.667 0 73 -8 97 -24s42 -36.5 54 -61.5s19.667 -52.833 23 -83.5s5 -60.334 5 -89.001v-34h-282zM318.998 324.001v28.998c0 14.667 -1.33301 29.834 -4 45.501s-7.5 29.834 -14.5 42.501s-16.5 23 -28.5 31s-27.333 12 -46 12c-22 0 -39.5 -5.83301 -52.5 -17.5
s-22.833 -25.167 -29.5 -40.5s-11 -30.833 -13 -46.5s-3 -27.5 -3 -35.5v-20h191zM188.998 730.999h78v-101h-78v101z" />
    <glyph glyph-name="Eogonek" unicode="&#x118;" 
d="M419 0c-22 -16 -39.666 -30.167 -52.999 -42.5s-23.833 -23.333 -31.5 -33s-12.834 -18.5 -15.501 -26.5s-4 -15.667 -4 -23c0 -25.333 13.333 -38 40 -38c13.333 0 24.833 1.33301 34.5 4s20.167 6.66699 31.5 12l18 -35c-16.667 -10 -34.167 -17.167 -52.5 -21.5
s-34.833 -6.5 -49.5 -6.5c-32.667 0 -56.5 7 -71.5 21s-22.5 33 -22.5 57c0 48.667 41 92.667 123 132h-308v714h369v-78h-281v-224h265v-78h-265v-256h293v-78h-20z" />
    <glyph glyph-name="eogonek" unicode="&#x119;" horiz-adv-x="444" 
d="M125 258c0 -20.667 0.499023 -42.999 1.49902 -66.999s4.83301 -46.333 11.5 -67s16.834 -37.834 30.501 -51.501s33.5 -20.5 59.5 -20.5c20 0 36 4.5 48 13.5s21.167 20 27.5 33s10.5 26.667 12.5 41s3 26.5 3 36.5h84c0 -11.333 -1.33301 -24.5 -4 -39.5
s-7.5 -30.167 -14.5 -45.5s-16.333 -30.5 -28 -45.5s-26.167 -27.833 -43.5 -38.5c-3.33301 -1.33301 -6.5 -2.83301 -9.5 -4.5s-6.16699 -3.16699 -9.5 -4.5c-10.667 -7.33301 -20.167 -14.333 -28.5 -21s-15.5 -12.667 -21.5 -18c-18 -18 -30.5 -33.167 -37.5 -45.5
s-10.5 -25.166 -10.5 -38.499c0 -25.333 13.333 -38 40 -38c13.333 0 24.833 1.33301 34.5 4s20.167 6.66699 31.5 12l18 -35c-16.667 -10 -34.167 -17.167 -52.5 -21.5s-34.833 -6.5 -49.5 -6.5c-32.667 0 -56.5 7 -71.5 21s-22.5 33 -22.5 57c0 42.667 31 82 93 118
c-63.333 1.33301 -109 24 -137 68c-28.667 44.667 -43 113.667 -43 207c0 33.333 2.16699 67.166 6.5 101.499s13.333 65.333 27 93s33 50.334 58 68.001s58.167 26.5 99.5 26.5c40.667 0 73 -8 97 -24s42 -36.5 54 -61.5s19.667 -52.833 23 -83.5s5 -60.334 5 -89.001v-34
h-282zM318.999 324.001v28.998c0 14.667 -1.33301 29.834 -4 45.501s-7.5 29.834 -14.5 42.501s-16.5 23 -28.5 31s-27.333 12 -46 12c-22 0 -39.5 -5.83301 -52.5 -17.5s-22.833 -25.167 -29.5 -40.5s-11 -30.833 -13 -46.5s-3 -27.5 -3 -35.5v-20h191z" />
    <glyph glyph-name="Ecaron" unicode="&#x11a;" 
d="M58 714h369v-78h-281v-224h265v-78h-265v-256h293v-78h-381v714zM281 773h-77l-100 142h78l61 -88l61 88h78z" />
    <glyph glyph-name="ecaron" unicode="&#x11b;" horiz-adv-x="444" 
d="M125 258c0 -20.667 0.498047 -42.999 1.49805 -66.999s4.83301 -46.333 11.5 -67s16.834 -37.834 30.501 -51.501s33.5 -20.5 59.5 -20.5c20 0 36 4.5 48 13.5s21.167 20 27.5 33s10.5 26.667 12.5 41s3 26.5 3 36.5h84c0 -14 -2.5 -31.833 -7.5 -53.5
s-14.167 -42.667 -27.5 -63s-31.666 -37.666 -54.999 -51.999s-53.333 -21.5 -90 -21.5c-66 0 -113.5 22.667 -142.5 68s-43.5 114.333 -43.5 207c0 33.333 2.16699 67.166 6.5 101.499s13.333 65.333 27 93s33 50.334 58 68.001s58.167 26.5 99.5 26.5
c40.667 0 73 -8 97 -24s42 -36.5 54 -61.5s19.667 -52.833 23 -83.5s5 -60.334 5 -89.001v-34h-282zM318.998 324.001v28.998c0 14.667 -1.33301 29.834 -4 45.501s-7.5 29.834 -14.5 42.501s-16.5 23 -28.5 31s-27.333 12 -46 12c-22 0 -39.5 -5.83301 -52.5 -17.5
s-22.833 -25.167 -29.5 -40.5s-11 -30.833 -13 -46.5s-3 -27.5 -3 -35.5v-20h191zM265.998 608.999h-77l-100 142h78l61 -88l61 88h78z" />
    <glyph glyph-name="Gcircumflex" unicode="&#x11c;" horiz-adv-x="537" 
d="M397 516c-1.33301 18.667 -4.16699 36.502 -8.5 53.502s-11 31.833 -20 44.5s-20.833 22.834 -35.5 30.501s-33 11.5 -55 11.5c-30.667 0 -55 -7.83301 -73 -23.5s-31.833 -37 -41.5 -64s-16 -58.667 -19 -95s-4.5 -75.166 -4.5 -116.499s1.5 -80.166 4.5 -116.499
s9.33301 -68 19 -95s23.5 -48.333 41.5 -64s42.333 -23.5 73 -23.5s54.667 8.16699 72 24.5s30.333 36.5 39 60.5s14.167 50 16.5 78s3.5 54 3.5 78h-141v72h221v-371h-66v97h-2c-9.33301 -30.667 -27.333 -56.834 -54 -78.501s-60 -32.5 -100 -32.5
c-46.667 0 -84.334 10.333 -113.001 31s-50.834 48.167 -66.501 82.5s-26.167 73.833 -31.5 118.5s-8 91 -8 139c0 44.667 2.66699 89.167 8 133.5s16.333 84.166 33 119.499s40 63.833 70 85.5s69.667 32.5 119 32.5c34 0 62.833 -4.33301 86.5 -13
s43.334 -19.834 59.001 -33.501s27.834 -28.834 36.501 -45.501s15.167 -32.834 19.5 -48.501s7 -30 8 -43s1.5 -22.5 1.5 -28.5h-92zM242.999 915.002h77l100 -142h-78l-61 88l-61 -88h-78z" />
    <glyph glyph-name="gcircumflex" unicode="&#x11d;" 
d="M408 34c0 -40 -4.50098 -73.8301 -13.501 -101.497s-21.5 -50.167 -37.5 -67.5s-35.167 -29.833 -57.5 -37.5s-46.833 -11.5 -73.5 -11.5c-8 0 -21.167 0.666992 -39.5 2s-37 6.16602 -56 14.499s-36.333 21.666 -52 39.999s-25.167 44.166 -28.5 77.499h84
c2 -24.667 11.333 -42.167 28 -52.5s36 -15.5 58 -15.5c26.667 0 47.167 4.5 61.5 13.5s24.666 19.833 30.999 32.5s9.83301 25.834 10.5 39.501s1 25.167 1 34.5v70h-2c-9.33301 -22.667 -25.166 -40.334 -47.499 -53.001s-46.833 -19 -73.5 -19c-26 0 -48.167 5 -66.5 15
s-33.666 23 -45.999 39s-22 33.833 -29 53.5s-12.333 39.5 -16 59.5s-6 38.833 -7 56.5s-1.5 32.5 -1.5 44.5c0 36 2.66699 71 8 105s14.833 64.167 28.5 90.5s31.667 47.333 54 63s50.5 23.5 84.5 23.5c14.667 0 28.5 -2.33301 41.5 -7s24.5 -10.667 34.5 -18
s18.5 -16 25.5 -26s11.833 -20.333 14.5 -31h2v68h80v-502zM220.999 478.003c-19.333 0 -35.334 -5 -48.001 -15s-22.667 -24 -30 -42s-12.5 -40 -15.5 -66s-4.5 -55 -4.5 -87c0 -22 1.16699 -44.5 3.5 -67.5s6.83301 -44 13.5 -63s16.334 -34.667 29.001 -47
s29.667 -18.5 51 -18.5c22.667 0 41.167 5 55.5 15s25.5 23.833 33.5 41.5s13.333 38.5 16 62.5s4 49.667 4 77c0 26 -1.33301 51.5 -4 76.5s-8 47.5 -16 67.5s-19 36 -33 48s-32.333 18 -55 18zM198.998 751.003h77l100 -142h-78l-61 88l-61 -88h-78z" />
    <glyph glyph-name="Gbreve" unicode="&#x11e;" horiz-adv-x="537" 
d="M397 516c-1.33301 18.667 -4.16699 36.502 -8.5 53.502s-11 31.833 -20 44.5s-20.833 22.834 -35.5 30.501s-33 11.5 -55 11.5c-30.667 0 -55 -7.83301 -73 -23.5s-31.833 -37 -41.5 -64s-16 -58.667 -19 -95s-4.5 -75.166 -4.5 -116.499s1.5 -80.166 4.5 -116.499
s9.33301 -68 19 -95s23.5 -48.333 41.5 -64s42.333 -23.5 73 -23.5s54.667 8.16699 72 24.5s30.333 36.5 39 60.5s14.167 50 16.5 78s3.5 54 3.5 78h-141v72h221v-371h-66v97h-2c-9.33301 -30.667 -27.333 -56.834 -54 -78.501s-60 -32.5 -100 -32.5
c-46.667 0 -84.334 10.333 -113.001 31s-50.834 48.167 -66.501 82.5s-26.167 73.833 -31.5 118.5s-8 91 -8 139c0 44.667 2.66699 89.167 8 133.5s16.333 84.166 33 119.499s40 63.833 70 85.5s69.667 32.5 119 32.5c34 0 62.833 -4.33301 86.5 -13
s43.334 -19.834 59.001 -33.501s27.834 -28.834 36.501 -45.501s15.167 -32.834 19.5 -48.501s7 -30 8 -43s1.5 -22.5 1.5 -28.5h-92zM204.999 908.002c0 -9.33301 2.33301 -18 7 -26s10.667 -15 18 -21s15.5 -10.833 24.5 -14.5s18.167 -5.5 27.5 -5.5
c8.66699 0 17.667 1.83301 27 5.5s17.666 8.5 24.999 14.5s13.333 13 18 21s7 16.667 7 26h48c0 -10 -1.83301 -22.333 -5.5 -37s-10.167 -28.667 -19.5 -42s-22.166 -24.666 -38.499 -33.999s-36.833 -14 -61.5 -14c-25.333 0 -46 4.66699 -62 14
s-28.667 20.666 -38 33.999s-15.833 27.333 -19.5 42s-5.5 27 -5.5 37h48z" />
    <glyph glyph-name="gbreve" unicode="&#x11f;" 
d="M408 34c0 -40 -4.50098 -73.8301 -13.501 -101.497s-21.5 -50.167 -37.5 -67.5s-35.167 -29.833 -57.5 -37.5s-46.833 -11.5 -73.5 -11.5c-8 0 -21.167 0.666992 -39.5 2s-37 6.16602 -56 14.499s-36.333 21.666 -52 39.999s-25.167 44.166 -28.5 77.499h84
c2 -24.667 11.333 -42.167 28 -52.5s36 -15.5 58 -15.5c26.667 0 47.167 4.5 61.5 13.5s24.666 19.833 30.999 32.5s9.83301 25.834 10.5 39.501s1 25.167 1 34.5v70h-2c-9.33301 -22.667 -25.166 -40.334 -47.499 -53.001s-46.833 -19 -73.5 -19c-26 0 -48.167 5 -66.5 15
s-33.666 23 -45.999 39s-22 33.833 -29 53.5s-12.333 39.5 -16 59.5s-6 38.833 -7 56.5s-1.5 32.5 -1.5 44.5c0 36 2.66699 71 8 105s14.833 64.167 28.5 90.5s31.667 47.333 54 63s50.5 23.5 84.5 23.5c14.667 0 28.5 -2.33301 41.5 -7s24.5 -10.667 34.5 -18
s18.5 -16 25.5 -26s11.833 -20.333 14.5 -31h2v68h80v-502zM220.999 478.003c-19.333 0 -35.334 -5 -48.001 -15s-22.667 -24 -30 -42s-12.5 -40 -15.5 -66s-4.5 -55 -4.5 -87c0 -22 1.16699 -44.5 3.5 -67.5s6.83301 -44 13.5 -63s16.334 -34.667 29.001 -47
s29.667 -18.5 51 -18.5c22.667 0 41.167 5 55.5 15s25.5 23.833 33.5 41.5s13.333 38.5 16 62.5s4 49.667 4 77c0 26 -1.33301 51.5 -4 76.5s-8 47.5 -16 67.5s-19 36 -33 48s-32.333 18 -55 18zM165.998 744.003c0 -9.33301 2.33301 -18 7 -26s10.667 -15 18 -21
s15.5 -10.833 24.5 -14.5s18.167 -5.5 27.5 -5.5c8.66699 0 17.667 1.83301 27 5.5s17.666 8.5 24.999 14.5s13.333 13 18 21s7 16.667 7 26h48c0 -10 -1.83301 -22.333 -5.5 -37s-10.167 -28.667 -19.5 -42s-22.166 -24.666 -38.499 -33.999s-36.833 -14 -61.5 -14
c-25.333 0 -46 4.66699 -62 14s-28.667 20.666 -38 33.999s-15.833 27.333 -19.5 42s-5.5 27 -5.5 37h48z" />
    <glyph glyph-name="Gdotaccent" unicode="&#x120;" horiz-adv-x="537" 
d="M397 516c-1.33301 18.667 -4.16699 36.502 -8.5 53.502s-11 31.833 -20 44.5s-20.833 22.834 -35.5 30.501s-33 11.5 -55 11.5c-30.667 0 -55 -7.83301 -73 -23.5s-31.833 -37 -41.5 -64s-16 -58.667 -19 -95s-4.5 -75.166 -4.5 -116.499s1.5 -80.166 4.5 -116.499
s9.33301 -68 19 -95s23.5 -48.333 41.5 -64s42.333 -23.5 73 -23.5s54.667 8.16699 72 24.5s30.333 36.5 39 60.5s14.167 50 16.5 78s3.5 54 3.5 78h-141v72h221v-371h-66v97h-2c-9.33301 -30.667 -27.333 -56.834 -54 -78.501s-60 -32.5 -100 -32.5
c-46.667 0 -84.334 10.333 -113.001 31s-50.834 48.167 -66.501 82.5s-26.167 73.833 -31.5 118.5s-8 91 -8 139c0 44.667 2.66699 89.167 8 133.5s16.333 84.166 33 119.499s40 63.833 70 85.5s69.667 32.5 119 32.5c34 0 62.833 -4.33301 86.5 -13
s43.334 -19.834 59.001 -33.501s27.834 -28.834 36.501 -45.501s15.167 -32.834 19.5 -48.501s7 -30 8 -43s1.5 -22.5 1.5 -28.5h-92zM243.999 895.002h78v-101h-78v101z" />
    <glyph glyph-name="gdotaccent" unicode="&#x121;" 
d="M408 34c0 -40 -4.50098 -73.8301 -13.501 -101.497s-21.5 -50.167 -37.5 -67.5s-35.167 -29.833 -57.5 -37.5s-46.833 -11.5 -73.5 -11.5c-8 0 -21.167 0.666992 -39.5 2s-37 6.16602 -56 14.499s-36.333 21.666 -52 39.999s-25.167 44.166 -28.5 77.499h84
c2 -24.667 11.333 -42.167 28 -52.5s36 -15.5 58 -15.5c26.667 0 47.167 4.5 61.5 13.5s24.666 19.833 30.999 32.5s9.83301 25.834 10.5 39.501s1 25.167 1 34.5v70h-2c-9.33301 -22.667 -25.166 -40.334 -47.499 -53.001s-46.833 -19 -73.5 -19c-26 0 -48.167 5 -66.5 15
s-33.666 23 -45.999 39s-22 33.833 -29 53.5s-12.333 39.5 -16 59.5s-6 38.833 -7 56.5s-1.5 32.5 -1.5 44.5c0 36 2.66699 71 8 105s14.833 64.167 28.5 90.5s31.667 47.333 54 63s50.5 23.5 84.5 23.5c14.667 0 28.5 -2.33301 41.5 -7s24.5 -10.667 34.5 -18
s18.5 -16 25.5 -26s11.833 -20.333 14.5 -31h2v68h80v-502zM220.999 478.003c-19.333 0 -35.334 -5 -48.001 -15s-22.667 -24 -30 -42s-12.5 -40 -15.5 -66s-4.5 -55 -4.5 -87c0 -22 1.16699 -44.5 3.5 -67.5s6.83301 -44 13.5 -63s16.334 -34.667 29.001 -47
s29.667 -18.5 51 -18.5c22.667 0 41.167 5 55.5 15s25.5 23.833 33.5 41.5s13.333 38.5 16 62.5s4 49.667 4 77c0 26 -1.33301 51.5 -4 76.5s-8 47.5 -16 67.5s-19 36 -33 48s-32.333 18 -55 18zM199.998 731.003h78v-101h-78v101z" />
    <glyph glyph-name="Gcommaaccent" unicode="&#x122;" horiz-adv-x="537" 
d="M397 516c-1.33301 18.667 -4.16699 36.502 -8.5 53.502s-11 31.833 -20 44.5s-20.833 22.834 -35.5 30.501s-33 11.5 -55 11.5c-30.667 0 -55 -7.83301 -73 -23.5s-31.833 -37 -41.5 -64s-16 -58.667 -19 -95s-4.5 -75.166 -4.5 -116.499s1.5 -80.166 4.5 -116.499
s9.33301 -68 19 -95s23.5 -48.333 41.5 -64s42.333 -23.5 73 -23.5s54.667 8.16699 72 24.5s30.333 36.5 39 60.5s14.167 50 16.5 78s3.5 54 3.5 78h-141v72h221v-371h-66v97h-2c-9.33301 -30.667 -27.333 -56.834 -54 -78.501s-60 -32.5 -100 -32.5
c-46.667 0 -84.334 10.333 -113.001 31s-50.834 48.167 -66.501 82.5s-26.167 73.833 -31.5 118.5s-8 91 -8 139c0 44.667 2.66699 89.167 8 133.5s16.333 84.166 33 119.499s40 63.833 70 85.5s69.667 32.5 119 32.5c34 0 62.833 -4.33301 86.5 -13
s43.334 -19.834 59.001 -33.501s27.834 -28.834 36.501 -45.501s15.167 -32.834 19.5 -48.501s7 -30 8 -43s1.5 -22.5 1.5 -28.5h-92zM232.999 -49.998l83.001 -0.00195312v-80c0 -27.333 -6.5 -47 -19.5 -59s-32.5 -19 -58.5 -21v26
c8.66699 2.66699 16.167 6.33398 22.5 11.001s10.166 15.334 11.499 32.001h-39v91z" />
    <glyph glyph-name="gcommaaccent" unicode="&#x123;" 
d="M408 34c0 -40 -4.50098 -73.8301 -13.501 -101.497s-21.5 -50.167 -37.5 -67.5s-35.167 -29.833 -57.5 -37.5s-46.833 -11.5 -73.5 -11.5c-8 0 -21.167 0.666992 -39.5 2s-37 6.16602 -56 14.499s-36.333 21.666 -52 39.999s-25.167 44.166 -28.5 77.499h84
c2 -24.667 11.333 -42.167 28 -52.5s36 -15.5 58 -15.5c26.667 0 47.167 4.5 61.5 13.5s24.666 19.833 30.999 32.5s9.83301 25.834 10.5 39.501s1 25.167 1 34.5v70h-2c-9.33301 -22.667 -25.166 -40.334 -47.499 -53.001s-46.833 -19 -73.5 -19c-26 0 -48.167 5 -66.5 15
s-33.666 23 -45.999 39s-22 33.833 -29 53.5s-12.333 39.5 -16 59.5s-6 38.833 -7 56.5s-1.5 32.5 -1.5 44.5c0 36 2.66699 71 8 105s14.833 64.167 28.5 90.5s31.667 47.333 54 63s50.5 23.5 84.5 23.5c14.667 0 28.5 -2.33301 41.5 -7s24.5 -10.667 34.5 -18
s18.5 -16 25.5 -26s11.833 -20.333 14.5 -31h2v68h80v-502zM220.999 478.003c-19.333 0 -35.334 -5 -48.001 -15s-22.667 -24 -30 -42s-12.5 -40 -15.5 -66s-4.5 -55 -4.5 -87c0 -22 1.16699 -44.5 3.5 -67.5s6.83301 -44 13.5 -63s16.334 -34.667 29.001 -47
s29.667 -18.5 51 -18.5c22.667 0 41.167 5 55.5 15s25.5 23.833 33.5 41.5s13.333 38.5 16 62.5s4 49.667 4 77c0 26 -1.33301 51.5 -4 76.5s-8 47.5 -16 67.5s-19 36 -33 48s-32.333 18 -55 18zM269.998 623.003l-83.001 0.00195312v85c0 46 26 71 78 75v-26
c-8.66699 -2.66699 -16.167 -6.33398 -22.5 -11.001s-10.166 -15.334 -11.499 -32.001h39v-91z" />
    <glyph glyph-name="Hcircumflex" unicode="&#x124;" horiz-adv-x="537" 
d="M479 0h-88v344h-245v-344h-88v714h88v-292h245v292h88v-714zM232 915h77l100 -142h-78l-61 88l-61 -88h-78z" />
    <glyph glyph-name="hcircumflex" unicode="&#x125;" 
d="M55 714h83.998v-239h2c5.33301 10.667 12.833 20.667 22.5 30s20.334 17.333 32.001 24s24 11.834 37 15.501s25.5 5.5 37.5 5.5c34.667 0 61.334 -5.83301 80.001 -17.5s32.334 -26.167 41.001 -43.5s13.667 -35.833 15 -55.5s2 -37.5 2 -53.5v-380h-84v370
c0 10 -0.5 21.333 -1.5 34s-4.16699 24.5 -9.5 35.5s-13.333 20.167 -24 27.5s-25.334 11 -44.001 11c-11.333 0 -23.166 -2 -35.499 -6s-23.833 -10.333 -34.5 -19s-19.334 -19.834 -26.001 -33.501s-10 -30.167 -10 -49.5v-370h-84v714zM193.998 915h77l100 -142h-78
l-61 88l-61 -88h-78z" />
    <glyph glyph-name="Hbar" unicode="&#x126;" horiz-adv-x="537" 
d="M479 0h-88v334h-245v-334h-88v714h88v-178h245v178h88v-714zM391 412v75h-245v-75h245z" />
    <glyph glyph-name="hbar" unicode="&#x127;" horiz-adv-x="478" 
d="M-3 640h72.998v74h84v-74h107v-49h-107v-116h2c5.33301 10.667 12.833 20.667 22.5 30s20.334 17.333 32.001 24s24 11.834 37 15.501s25.5 5.5 37.5 5.5c34.667 0 61.334 -5.83301 80.001 -17.5s32.334 -26.167 41.001 -43.5s13.667 -35.833 15 -55.5s2 -37.5 2 -53.5
v-380h-84v370c0 10 -0.5 21.333 -1.5 34s-4.16699 24.5 -9.5 35.5s-13.333 20.167 -24 27.5s-25.334 11 -44.001 11c-11.333 0 -23.166 -2 -35.499 -6s-23.833 -10.333 -34.5 -19s-19.334 -19.834 -26.001 -33.501s-10 -30.167 -10 -49.5v-370h-84v591h-73v49z" />
    <glyph glyph-name="Itilde" unicode="&#x128;" horiz-adv-x="204" 
d="M58 714h88v-714h-88v714zM249 903c0 -12.667 -1.83105 -25.499 -5.49805 -38.499s-9 -24.833 -16 -35.5s-16 -19.5 -27 -26.5s-23.5 -10.5 -37.5 -10.5c-10.667 0 -21.667 2 -33 6s-22.166 8.33301 -32.499 13l-28.5 13c-8.66699 4 -15.667 6 -21 6
c-13.333 0 -22.833 -5.16699 -28.5 -15.5s-9.16699 -20.166 -10.5 -29.499h-54c0 14.667 2.33301 28.667 7 42s11.167 25.166 19.5 35.499s18.166 18.5 29.499 24.5s23.666 9 36.999 9c9.33301 0 19.166 -1.83301 29.499 -5.5s20.5 -8.16699 30.5 -13.5l28.5 -13
c9 -4 16.833 -6 23.5 -6c12.667 0 21.167 5.16699 25.5 15.5s7.5 20.166 9.5 29.499h54z" />
    <glyph glyph-name="itilde" unicode="&#x129;" horiz-adv-x="204" 
d="M60 536h84v-536h-84v536zM249 739c0 -12.667 -1.83105 -25.499 -5.49805 -38.499s-9 -24.833 -16 -35.5s-16 -19.5 -27 -26.5s-23.5 -10.5 -37.5 -10.5c-10.667 0 -21.667 2 -33 6s-22.166 8.33301 -32.499 13l-28.5 13c-8.66699 4 -15.667 6 -21 6
c-13.333 0 -22.833 -5.16699 -28.5 -15.5s-9.16699 -20.166 -10.5 -29.499h-54c0 14.667 2.33301 28.667 7 42s11.167 25.166 19.5 35.499s18.166 18.5 29.499 24.5s23.666 9 36.999 9c9.33301 0 19.166 -1.83301 29.499 -5.5s20.5 -8.16699 30.5 -13.5l28.5 -13
c9 -4 16.833 -6 23.5 -6c12.667 0 21.167 5.16699 25.5 15.5s7.5 20.166 9.5 29.499h54z" />
    <glyph glyph-name="Imacron" unicode="&#x12a;" horiz-adv-x="204" 
d="M58 714h88v-714h-88v714zM-30 871h264v-54h-264v54z" />
    <glyph glyph-name="imacron" unicode="&#x12b;" horiz-adv-x="204" 
d="M60 536h84v-536h-84v536zM-30 707h264v-54h-264v54z" />
    <glyph glyph-name="Iogonek" unicode="&#x12e;" horiz-adv-x="204" 
d="M146 0c-18.667 -16 -33.832 -30.167 -45.499 -42.5s-20.667 -23.333 -27 -33s-10.5 -18.5 -12.5 -26.5s-3 -15.667 -3 -23c0 -25.333 11.333 -38 34 -38c11.333 0 21 1.33301 29 4s17 6.66699 27 12l15 -35c-14 -10 -28.833 -17.167 -44.5 -21.5
s-29.834 -6.5 -42.501 -6.5c-28 0 -48.333 7 -61 21s-19 33 -19 57c0 48.667 35 92.667 105 132h-43v714h88v-714z" />
    <glyph glyph-name="iogonek" unicode="&#x12f;" horiz-adv-x="204" 
d="M144 0c-19.333 -16 -34.8311 -30 -46.498 -42s-20.667 -23 -27 -33s-10.666 -19 -12.999 -27s-3.5 -15.667 -3.5 -23c0 -25.333 11.667 -38 35 -38c11.333 0 21.166 1.33301 29.499 4s17.5 6.66699 27.5 12l15 -35c-14.667 -10 -29.834 -17.167 -45.501 -21.5
s-29.834 -6.5 -42.501 -6.5c-28 0 -48.5 7 -61.5 21s-19.5 33 -19.5 57c0 49.333 35.333 93.333 106 132h-38v536h84v-536zM60.002 714h84v-96h-84v96z" />
    <glyph glyph-name="Idotaccent" unicode="&#x130;" horiz-adv-x="204" 
d="M58 714h88v-714h-88v714zM63 895h78v-101h-78v101z" />
    <glyph glyph-name="dotlessi" unicode="&#x131;" horiz-adv-x="204" 
d="M60 536h84v-536h-84v536z" />
    <glyph glyph-name="Jcircumflex" unicode="&#x134;" horiz-adv-x="426" 
d="M368 205c0 -32 -2.50098 -61.335 -7.50098 -88.002s-14 -49.667 -27 -69s-31.167 -34.5 -54.5 -45.5s-53.333 -16.5 -90 -16.5c-30 0 -55.5 4.5 -76.5 13.5s-38.167 21 -51.5 36s-23.166 32.333 -29.499 52s-9.5 40.167 -9.5 61.5v59h84v-52
c0 -30 6.16699 -53.833 18.5 -71.5s33.5 -26.5 63.5 -26.5c20 0 36 3.16699 48 9.5s21.333 15.833 28 28.5s11 28.334 13 47.001s3 40.334 3 65.001v506h88v-509zM281.999 914.998h77l100 -142h-78l-61 88l-61 -88h-78z" />
    <glyph glyph-name="jcircumflex" unicode="&#x135;" horiz-adv-x="204" 
d="M144 -52c0 -44 -9.83301 -77 -29.5 -99s-52.5 -33 -98.5 -33c-6.66699 0 -13.167 0.333008 -19.5 1l-19.5 2v72l15.5 -2c5 -0.666992 10.167 -1 15.5 -1c12.667 0 22.667 2.33301 30 7s12.5 11 15.5 19s4.83301 17.5 5.5 28.5s1 22.833 1 35.5v558h84v-588zM62 751h77
l100 -142h-78l-61 88l-61 -88h-78z" />
    <glyph glyph-name="Kcommaaccent" unicode="&#x136;" horiz-adv-x="500" 
d="M58 714h88v-346h2l247 346h98l-216 -298l234 -416h-98l-193 344l-74 -101v-243h-88v714zM214 -50l83.001 -0.00195312v-80c0 -27.333 -6.5 -47 -19.5 -59s-32.5 -19 -58.5 -21v26c8.66699 2.66699 16.167 6.33398 22.5 11.001s10.166 15.334 11.499 32.001h-39v91z" />
    <glyph glyph-name="kcommaaccent" unicode="&#x137;" horiz-adv-x="444" 
d="M455 0h-98l-149 265l-69 -84v-181h-84v714h84v-425h2l188 247h98l-163 -202zM192 -50l83.001 -0.00195312v-80c0 -27.333 -6.5 -47 -19.5 -59s-32.5 -19 -58.5 -21v26c8.66699 2.66699 16.167 6.33398 22.5 11.001s10.166 15.334 11.499 32.001h-39v91z" />
    <glyph glyph-name="Lacute" unicode="&#x139;" horiz-adv-x="444" 
d="M58 714h88v-636h290v-78h-378v714zM140 915h98l-108 -142h-60z" />
    <glyph glyph-name="lacute" unicode="&#x13a;" horiz-adv-x="204" 
d="M60 714h84v-714h-84v714zM130 915h98l-108 -142h-60z" />
    <glyph glyph-name="Lcommaaccent" unicode="&#x13b;" horiz-adv-x="444" 
d="M58 714h88v-636h290v-78h-378v714zM198 -50l83.001 -0.00195312v-80c0 -27.333 -6.5 -47 -19.5 -59s-32.5 -19 -58.5 -21v26c8.66699 2.66699 16.167 6.33398 22.5 11.001s10.166 15.334 11.499 32.001h-39v91z" />
    <glyph glyph-name="lcommaaccent" unicode="&#x13c;" horiz-adv-x="204" 
d="M60 714h84v-714h-84v714zM62 -50l83.001 -0.00195312v-80c0 -27.333 -6.5 -47 -19.5 -59s-32.5 -19 -58.5 -21v26c8.66699 2.66699 16.167 6.33398 22.5 11.001s10.166 15.334 11.499 32.001h-39v91z" />
    <glyph glyph-name="Lcaron" unicode="&#x13d;" horiz-adv-x="444" 
d="M58 714h88v-636h290v-78h-378v714zM247 714h87l-59 -142h-54z" />
    <glyph glyph-name="lcaron" unicode="&#x13e;" horiz-adv-x="259" 
d="M60 714h84v-714h-84v714zM212 714h87l-59 -142h-54z" />
    <glyph glyph-name="Ldot" unicode="&#x13f;" horiz-adv-x="444" 
d="M58 714h88v-636h290v-78h-378v714zM237 537h78v-101h-78v101z" />
    <glyph glyph-name="ldot" unicode="&#x140;" horiz-adv-x="293" 
d="M60 714h84v-714h-84v714zM200 537h78v-101h-78v101z" />
    <glyph glyph-name="Lslash" unicode="&#x141;" horiz-adv-x="444" 
d="M-8 269l66 47v398h88v-335l194 139v-72l-194 -139v-229h290v-78h-378v244l-66 -47v72z" />
    <glyph glyph-name="lslash" unicode="&#x142;" horiz-adv-x="204" 
d="M60 276l-60 -64v78l60 64v360h84v-271l60 63v-78l-60 -63v-365h-84v276z" />
    <glyph glyph-name="Nacute" unicode="&#x143;" horiz-adv-x="556" 
d="M58 714h87h27l236 -596h2v596h88v-714h-87h-34l-229 578h-2v-578h-88v714zM315 915h98l-108 -142h-60z" />
    <glyph glyph-name="nacute" unicode="&#x144;" 
d="M55 536l80.001 0.000976562v-63h2c11.333 24.667 29.333 43.667 54 57s50 20 76 20c35.333 0 62.5 -5.83301 81.5 -17.5s33 -26.167 42 -43.5s14.167 -35.833 15.5 -55.5s2 -37.5 2 -53.5v-380h-84v370c0 10 -0.5 21.333 -1.5 34s-4.16699 24.5 -9.5 35.5
s-13.333 20.167 -24 27.5s-25.334 11 -44.001 11c-11.333 0 -23.166 -2 -35.499 -6s-23.833 -10.333 -34.5 -19s-19.334 -19.834 -26.001 -33.501s-10 -30.167 -10 -49.5v-370h-84v536zM258.001 751.001h98l-108 -142h-60z" />
    <glyph glyph-name="Ncommaaccent" unicode="&#x145;" horiz-adv-x="556" 
d="M58 714h87h27l236 -596h2v596h88v-714h-87h-34l-229 578h-2v-578h-88v714zM232 -50l83.001 -0.00195312v-80c0 -27.333 -6.5 -47 -19.5 -59s-32.5 -19 -58.5 -21v26c8.66699 2.66699 16.167 6.33398 22.5 11.001s10.166 15.334 11.499 32.001h-39v91z" />
    <glyph glyph-name="ncommaaccent" unicode="&#x146;" 
d="M55 536l80.001 0.000976562v-63h2c11.333 24.667 29.333 43.667 54 57s50 20 76 20c35.333 0 62.5 -5.83301 81.5 -17.5s33 -26.167 42 -43.5s14.167 -35.833 15.5 -55.5s2 -37.5 2 -53.5v-380h-84v370c0 10 -0.5 21.333 -1.5 34s-4.16699 24.5 -9.5 35.5
s-13.333 20.167 -24 27.5s-25.334 11 -44.001 11c-11.333 0 -23.166 -2 -35.499 -6s-23.833 -10.333 -34.5 -19s-19.334 -19.834 -26.001 -33.501s-10 -30.167 -10 -49.5v-370h-84v536zM190.001 -49.999l83.001 -0.00195312v-80c0 -27.333 -6.5 -47 -19.5 -59
s-32.5 -19 -58.5 -21v26c8.66699 2.66699 16.167 6.33398 22.5 11.001s10.166 15.334 11.499 32.001h-39v91z" />
    <glyph glyph-name="Ncaron" unicode="&#x147;" horiz-adv-x="556" 
d="M58 714h87h27l236 -596h2v596h88v-714h-87h-34l-229 578h-2v-578h-88v714zM315 773h-77l-100 142h78l61 -88l61 88h78z" />
    <glyph glyph-name="ncaron" unicode="&#x148;" 
d="M55 536l80.001 0.000976562v-63h2c11.333 24.667 29.333 43.667 54 57s50 20 76 20c35.333 0 62.5 -5.83301 81.5 -17.5s33 -26.167 42 -43.5s14.167 -35.833 15.5 -55.5s2 -37.5 2 -53.5v-380h-84v370c0 10 -0.5 21.333 -1.5 34s-4.16699 24.5 -9.5 35.5
s-13.333 20.167 -24 27.5s-25.334 11 -44.001 11c-11.333 0 -23.166 -2 -35.499 -6s-23.833 -10.333 -34.5 -19s-19.334 -19.834 -26.001 -33.501s-10 -30.167 -10 -49.5v-370h-84v536zM268.001 609.001h-77l-100 142h78l61 -88l61 88h78z" />
    <glyph glyph-name="Omacron" unicode="&#x14c;" horiz-adv-x="556" 
d="M278 656c-30.667 0 -55 -7.83301 -73 -23.5s-31.833 -37 -41.5 -64s-16 -58.667 -19 -95s-4.5 -75.166 -4.5 -116.499s1.5 -80.166 4.5 -116.499s9.33301 -68 19 -95s23.5 -48.333 41.5 -64s42.333 -23.5 73 -23.5s55 7.83301 73 23.5s31.833 37 41.5 64s16 58.667 19 95
s4.5 75.166 4.5 116.499s-1.5 80.166 -4.5 116.499s-9.33301 68 -19 95s-23.5 48.333 -41.5 64s-42.333 23.5 -73 23.5zM278 728c49.333 0 89 -10.833 119 -32.5s53.333 -50.167 70 -85.5s27.667 -75.166 33 -119.499s8 -88.833 8 -133.5c0 -45.333 -2.66699 -90 -8 -134
s-16.333 -83.667 -33 -119s-40 -63.833 -70 -85.5s-69.667 -32.5 -119 -32.5s-89 10.833 -119 32.5s-53.333 50.167 -70 85.5s-27.667 75 -33 119s-8 88.667 -8 134c0 44.667 2.66699 89.167 8 133.5s16.333 84.166 33 119.499s40 63.833 70 85.5s69.667 32.5 119 32.5z
M147 871h264v-54h-264v54z" />
    <glyph glyph-name="omacron" unicode="&#x14d;" horiz-adv-x="444" 
d="M29 268c0 38 2.83594 74 8.50293 108s15.667 63.833 30 89.5s34 46.167 59 61.5s56.833 23 95.5 23s70.5 -7.66699 95.5 -23s44.667 -35.833 59 -61.5s24.333 -55.5 30 -89.5s8.5 -70 8.5 -108s-2.83301 -74 -8.5 -108s-15.834 -63.833 -30.501 -89.5
s-34.334 -46.167 -59.001 -61.5s-56.334 -23 -95.001 -23s-70.5 7.66699 -95.5 23s-44.667 35.833 -59 61.5s-24.333 55.5 -30 89.5s-8.5 70 -8.5 108zM220.003 52c22 0 40.001 5.83301 54.001 17.5s25 27.334 33 47.001s13.333 42.5 16 68.5s4 53.667 4 83
c0 28.667 -1.33301 56.167 -4 82.5s-7.83398 49.333 -15.501 69s-18.5 35.334 -32.5 47.001s-32.333 17.5 -55 17.5c-21.333 0 -38.666 -5.83301 -51.999 -17.5s-23.833 -27.334 -31.5 -47.001s-12.834 -42.667 -15.501 -69s-4 -53.833 -4 -82.5
c0 -29.333 1.33301 -57 4 -83s7.66699 -48.833 15 -68.5s17.833 -35.334 31.5 -47.001s31.167 -17.5 52.5 -17.5zM91.0039 707h264v-54h-264v54z" />
    <glyph glyph-name="Obreve" unicode="&#x14e;" horiz-adv-x="556" 
d="M278 656c-30.667 0 -55 -7.83301 -73 -23.5s-31.833 -37 -41.5 -64s-16 -58.667 -19 -95s-4.5 -75.166 -4.5 -116.499s1.5 -80.166 4.5 -116.499s9.33301 -68 19 -95s23.5 -48.333 41.5 -64s42.333 -23.5 73 -23.5s55 7.83301 73 23.5s31.833 37 41.5 64s16 58.667 19 95
s4.5 75.166 4.5 116.499s-1.5 80.166 -4.5 116.499s-9.33301 68 -19 95s-23.5 48.333 -41.5 64s-42.333 23.5 -73 23.5zM278 728c49.333 0 89 -10.833 119 -32.5s53.333 -50.167 70 -85.5s27.667 -75.166 33 -119.499s8 -88.833 8 -133.5c0 -45.333 -2.66699 -90 -8 -134
s-16.333 -83.667 -33 -119s-40 -63.833 -70 -85.5s-69.667 -32.5 -119 -32.5s-89 10.833 -119 32.5s-53.333 50.167 -70 85.5s-27.667 75 -33 119s-8 88.667 -8 134c0 44.667 2.66699 89.167 8 133.5s16.333 84.166 33 119.499s40 63.833 70 85.5s69.667 32.5 119 32.5z
M200 908c0 -9.33301 2.33301 -18 7 -26s10.667 -15 18 -21s15.5 -10.833 24.5 -14.5s18.167 -5.5 27.5 -5.5c8.66699 0 17.667 1.83301 27 5.5s17.666 8.5 24.999 14.5s13.333 13 18 21s7 16.667 7 26h48c0 -10 -1.83301 -22.333 -5.5 -37s-10.167 -28.667 -19.5 -42
s-22.166 -24.666 -38.499 -33.999s-36.833 -14 -61.5 -14c-25.333 0 -46 4.66699 -62 14s-28.667 20.666 -38 33.999s-15.833 27.333 -19.5 42s-5.5 27 -5.5 37h48z" />
    <glyph glyph-name="obreve" unicode="&#x14f;" horiz-adv-x="444" 
d="M29 268c0 38 2.83594 74 8.50293 108s15.667 63.833 30 89.5s34 46.167 59 61.5s56.833 23 95.5 23s70.5 -7.66699 95.5 -23s44.667 -35.833 59 -61.5s24.333 -55.5 30 -89.5s8.5 -70 8.5 -108s-2.83301 -74 -8.5 -108s-15.834 -63.833 -30.501 -89.5
s-34.334 -46.167 -59.001 -61.5s-56.334 -23 -95.001 -23s-70.5 7.66699 -95.5 23s-44.667 35.833 -59 61.5s-24.333 55.5 -30 89.5s-8.5 70 -8.5 108zM220.003 52c22 0 40.001 5.83301 54.001 17.5s25 27.334 33 47.001s13.333 42.5 16 68.5s4 53.667 4 83
c0 28.667 -1.33301 56.167 -4 82.5s-7.83398 49.333 -15.501 69s-18.5 35.334 -32.5 47.001s-32.333 17.5 -55 17.5c-21.333 0 -38.666 -5.83301 -51.999 -17.5s-23.833 -27.334 -31.5 -47.001s-12.834 -42.667 -15.501 -69s-4 -53.833 -4 -82.5
c0 -29.333 1.33301 -57 4 -83s7.66699 -48.833 15 -68.5s17.833 -35.334 31.5 -47.001s31.167 -17.5 52.5 -17.5zM144.004 744c0 -9.33301 2.33301 -18 7 -26s10.667 -15 18 -21s15.5 -10.833 24.5 -14.5s18.167 -5.5 27.5 -5.5c8.66699 0 17.667 1.83301 27 5.5
s17.666 8.5 24.999 14.5s13.333 13 18 21s7 16.667 7 26h48c0 -10 -1.83301 -22.333 -5.5 -37s-10.167 -28.667 -19.5 -42s-22.166 -24.666 -38.499 -33.999s-36.833 -14 -61.5 -14c-25.333 0 -46 4.66699 -62 14s-28.667 20.666 -38 33.999s-15.833 27.333 -19.5 42
s-5.5 27 -5.5 37h48z" />
    <glyph glyph-name="Ohungarumlaut" unicode="&#x150;" horiz-adv-x="556" 
d="M278 656c-30.667 0 -55 -7.83301 -73 -23.5s-31.833 -37 -41.5 -64s-16 -58.667 -19 -95s-4.5 -75.166 -4.5 -116.499s1.5 -80.166 4.5 -116.499s9.33301 -68 19 -95s23.5 -48.333 41.5 -64s42.333 -23.5 73 -23.5s55 7.83301 73 23.5s31.833 37 41.5 64s16 58.667 19 95
s4.5 75.166 4.5 116.499s-1.5 80.166 -4.5 116.499s-9.33301 68 -19 95s-23.5 48.333 -41.5 64s-42.333 23.5 -73 23.5zM278 728c49.333 0 89 -10.833 119 -32.5s53.333 -50.167 70 -85.5s27.667 -75.166 33 -119.499s8 -88.833 8 -133.5c0 -45.333 -2.66699 -90 -8 -134
s-16.333 -83.667 -33 -119s-40 -63.833 -70 -85.5s-69.667 -32.5 -119 -32.5s-89 10.833 -119 32.5s-53.333 50.167 -70 85.5s-27.667 75 -33 119s-8 88.667 -8 134c0 44.667 2.66699 89.167 8 133.5s16.333 84.166 33 119.499s40 63.833 70 85.5s69.667 32.5 119 32.5z
M398 915h98l-108 -142h-60zM234 915h98l-108 -142h-60z" />
    <glyph glyph-name="ohungarumlaut" unicode="&#x151;" horiz-adv-x="444" 
d="M29 268c0 38 2.83594 74 8.50293 108s15.667 63.833 30 89.5s34 46.167 59 61.5s56.833 23 95.5 23s70.5 -7.66699 95.5 -23s44.667 -35.833 59 -61.5s24.333 -55.5 30 -89.5s8.5 -70 8.5 -108s-2.83301 -74 -8.5 -108s-15.834 -63.833 -30.501 -89.5
s-34.334 -46.167 -59.001 -61.5s-56.334 -23 -95.001 -23s-70.5 7.66699 -95.5 23s-44.667 35.833 -59 61.5s-24.333 55.5 -30 89.5s-8.5 70 -8.5 108zM220.003 52c22 0 40.001 5.83301 54.001 17.5s25 27.334 33 47.001s13.333 42.5 16 68.5s4 53.667 4 83
c0 28.667 -1.33301 56.167 -4 82.5s-7.83398 49.333 -15.501 69s-18.5 35.334 -32.5 47.001s-32.333 17.5 -55 17.5c-21.333 0 -38.666 -5.83301 -51.999 -17.5s-23.833 -27.334 -31.5 -47.001s-12.834 -42.667 -15.501 -69s-4 -53.833 -4 -82.5
c0 -29.333 1.33301 -57 4 -83s7.66699 -48.833 15 -68.5s17.833 -35.334 31.5 -47.001s31.167 -17.5 52.5 -17.5zM341.004 751h98l-108 -142h-60zM177.004 751h98l-108 -142h-60z" />
    <glyph glyph-name="OE" unicode="&#x152;" horiz-adv-x="796" 
d="M412 463c0 25.333 -0.832031 49.6641 -2.49902 72.9971s-6.83398 43.833 -15.501 61.5s-22 31.834 -40 42.501s-43.333 16 -76 16c-31.333 0 -56.333 -7.83301 -75 -23.5s-33 -37 -43 -64s-16.5 -58.667 -19.5 -95s-4.5 -75.166 -4.5 -116.499s1.5 -80.166 4.5 -116.499
s9.5 -68 19.5 -95s24.333 -48.333 43 -64s43.667 -23.5 75 -23.5c28.667 0 51.667 4.66699 69 14s30.833 22 40.5 38s16.167 34.5 19.5 55.5s5 43.167 5 66.5v231zM500.001 77.998l272.001 0.00195312v-78h-358v63h-2c-9.33301 -24 -26.5 -42.833 -51.5 -56.5
s-52.5 -20.5 -82.5 -20.5c-49.333 0 -89 10.333 -119 31s-53.333 48.167 -70 82.5s-27.667 73.833 -33 118.5s-8 91 -8 139c0 44.667 2.66699 89.167 8 133.5s16.333 84.166 33 119.499s40 63.833 70 85.5s69.667 32.5 119 32.5c12.667 0 26 -1.5 40 -4.5
s27.167 -7.33301 39.5 -13s23.666 -12.834 33.999 -21.501s18.5 -18.667 24.5 -30h2v55h342v-78h-260v-224h244v-78h-244v-256z" />
    <glyph glyph-name="oe" unicode="&#x153;" horiz-adv-x="722" 
d="M413 324l182.001 -0.00195312v29c0 14.667 -1.33301 29.834 -4 45.501s-7.33398 29.834 -14.001 42.501s-15.834 23 -27.501 31s-26.167 12 -43.5 12c-20.667 0 -37.167 -5.83301 -49.5 -17.5s-21.666 -25.167 -27.999 -40.5s-10.5 -30.833 -12.5 -46.5
s-3 -27.5 -3 -35.5v-20zM332.001 267.998c0 27.333 -1.33301 54 -4 80s-7.83398 49 -15.501 69s-18.334 36.167 -32.001 48.5s-31.5 18.5 -53.5 18.5c-20.667 0 -37.5 -6.16699 -50.5 -18.5s-23.167 -28.5 -30.5 -48.5s-12.333 -43 -15 -69s-4 -52.667 -4 -80
s1.33301 -54 4 -80s7.66699 -49 15 -69s17.5 -36.167 30.5 -48.5s29.833 -18.5 50.5 -18.5c22 0 39.833 6.16699 53.5 18.5s24.334 28.5 32.001 48.5s12.834 43 15.501 69s4 52.667 4 80zM683.001 257.998l-272.998 0.000976562c0 -20.667 0.5 -43 1.5 -67
s4.5 -46.333 10.5 -67s15.333 -37.834 28 -51.501s30.667 -20.5 54 -20.5c20 0 36 4.5 48 13.5s21.167 20 27.5 33s10.5 26.667 12.5 41s3 26.5 3 36.5h84c0 -14 -2.5 -31.833 -7.5 -53.5s-13.833 -42.667 -26.5 -63s-29.834 -37.666 -51.501 -51.999
s-49.5 -21.5 -83.5 -21.5c-28 0 -51.167 4.33301 -69.5 13s-32.666 18.5 -42.999 29.5s-17.666 21.5 -21.999 31.5s-6.83301 16 -7.5 18c-12.667 -28.667 -31.334 -51.167 -56.001 -67.5s-53 -24.5 -85 -24.5c-37.333 0 -68.166 7.83301 -92.499 23.5s-43.5 36.667 -57.5 63
s-23.833 56.5 -29.5 90.5s-8.5 69 -8.5 105s2.83301 71 8.5 105s15.5 64.167 29.5 90.5s33.167 47.333 57.5 63s55.166 23.5 92.499 23.5s67 -7.33301 89 -22s41.333 -37.667 58 -69c12.667 28 31.667 50.167 57 66.5s53 24.5 83 24.5c38.667 0 69.167 -8 91.5 -24
s39.166 -36.5 50.499 -61.5s18.666 -52.833 21.999 -83.5s5 -60.334 5 -89.001v-34z" />
    <glyph glyph-name="Racute" unicode="&#x154;" horiz-adv-x="519" 
d="M146 390l87.001 -0.00195312c12.667 0 27.5 0.666992 44.5 2s33.167 6.33301 48.5 15s28.166 22.334 38.499 41.001s15.5 45.334 15.5 80.001c0 36 -11 64 -33 84s-54 30 -96 30h-105v-252zM58.001 713.998l231.002 -0.00292969c56.667 0 101.334 -15.667 134.001 -47
s49 -75.333 49 -132c0 -19.333 -1.83301 -38.666 -5.5 -57.999s-9.83398 -37.166 -18.501 -53.499s-20 -30.666 -34 -42.999s-31.333 -20.833 -52 -25.5v-2c31.333 -3.33301 55.5 -16.333 72.5 -39s26.5 -49.334 28.5 -80.001l6 -122c0.666992 -20 2 -36.333 4 -49
s4.66699 -23.167 8 -31.5s7.16602 -14.833 11.499 -19.5s9.16602 -8.66699 14.499 -12h-106c-4 4 -7.33301 10 -10 18s-5 16.833 -7 26.5s-3.5 19.667 -4.5 30s-1.83301 19.833 -2.5 28.5l-6 111c-2 24.667 -6.5 43.834 -13.5 57.501s-15.5 24 -25.5 31
s-20.833 11.333 -32.5 13s-23.167 2.5 -34.5 2.5h-119v-318h-88v714zM266.003 914.995h98l-108 -142h-60z" />
    <glyph glyph-name="racute" unicode="&#x155;" horiz-adv-x="296" 
d="M55 536h84v-80h2c6 12.667 12.5 24.667 19.5 36s15.167 21.333 24.5 30s19.833 15.5 31.5 20.5s25.167 7.5 40.5 7.5c16.667 0 29 -2 37 -6v-82l-15.5 2.5c-6.33301 1 -16.166 1.5 -29.499 1.5c-10.667 0 -22.334 -2.5 -35.001 -7.5s-24.5 -12.667 -35.5 -23
s-20.333 -23.5 -28 -39.5s-11.5 -35 -11.5 -57v-339h-84v536zM148 751h98l-108 -142h-60z" />
    <glyph glyph-name="Rcommaaccent" unicode="&#x156;" horiz-adv-x="519" 
d="M146 390l87.001 -0.00195312c12.667 0 27.5 0.666992 44.5 2s33.167 6.33301 48.5 15s28.166 22.334 38.499 41.001s15.5 45.334 15.5 80.001c0 36 -11 64 -33 84s-54 30 -96 30h-105v-252zM58.001 713.998l231.002 -0.00292969c56.667 0 101.334 -15.667 134.001 -47
s49 -75.333 49 -132c0 -19.333 -1.83301 -38.666 -5.5 -57.999s-9.83398 -37.166 -18.501 -53.499s-20 -30.666 -34 -42.999s-31.333 -20.833 -52 -25.5v-2c31.333 -3.33301 55.5 -16.333 72.5 -39s26.5 -49.334 28.5 -80.001l6 -122c0.666992 -20 2 -36.333 4 -49
s4.66699 -23.167 8 -31.5s7.16602 -14.833 11.499 -19.5s9.16602 -8.66699 14.499 -12h-106c-4 4 -7.33301 10 -10 18s-5 16.833 -7 26.5s-3.5 19.667 -4.5 30s-1.83301 19.833 -2.5 28.5l-6 111c-2 24.667 -6.5 43.834 -13.5 57.501s-15.5 24 -25.5 31
s-20.833 11.333 -32.5 13s-23.167 2.5 -34.5 2.5h-119v-318h-88v714zM219.003 -50.0049l83.001 -0.00195312v-80c0 -27.333 -6.5 -47 -19.5 -59s-32.5 -19 -58.5 -21v26c8.66699 2.66699 16.167 6.33398 22.5 11.001s10.166 15.334 11.499 32.001h-39v91z" />
    <glyph glyph-name="rcommaaccent" unicode="&#x157;" horiz-adv-x="296" 
d="M55 536h84v-80h2c6 12.667 12.5 24.667 19.5 36s15.167 21.333 24.5 30s19.833 15.5 31.5 20.5s25.167 7.5 40.5 7.5c16.667 0 29 -2 37 -6v-82l-15.5 2.5c-6.33301 1 -16.166 1.5 -29.499 1.5c-10.667 0 -22.334 -2.5 -35.001 -7.5s-24.5 -12.667 -35.5 -23
s-20.333 -23.5 -28 -39.5s-11.5 -35 -11.5 -57v-339h-84v536zM58 -50l83.001 -0.00195312v-80c0 -27.333 -6.5 -47 -19.5 -59s-32.5 -19 -58.5 -21v26c8.66699 2.66699 16.167 6.33398 22.5 11.001s10.166 15.334 11.499 32.001h-39v91z" />
    <glyph glyph-name="Rcaron" unicode="&#x158;" horiz-adv-x="519" 
d="M146 390l87.001 -0.00195312c12.667 0 27.5 0.666992 44.5 2s33.167 6.33301 48.5 15s28.166 22.334 38.499 41.001s15.5 45.334 15.5 80.001c0 36 -11 64 -33 84s-54 30 -96 30h-105v-252zM58.001 713.998l231.002 -0.00292969c56.667 0 101.334 -15.667 134.001 -47
s49 -75.333 49 -132c0 -19.333 -1.83301 -38.666 -5.5 -57.999s-9.83398 -37.166 -18.501 -53.499s-20 -30.666 -34 -42.999s-31.333 -20.833 -52 -25.5v-2c31.333 -3.33301 55.5 -16.333 72.5 -39s26.5 -49.334 28.5 -80.001l6 -122c0.666992 -20 2 -36.333 4 -49
s4.66699 -23.167 8 -31.5s7.16602 -14.833 11.499 -19.5s9.16602 -8.66699 14.499 -12h-106c-4 4 -7.33301 10 -10 18s-5 16.833 -7 26.5s-3.5 19.667 -4.5 30s-1.83301 19.833 -2.5 28.5l-6 111c-2 24.667 -6.5 43.834 -13.5 57.501s-15.5 24 -25.5 31
s-20.833 11.333 -32.5 13s-23.167 2.5 -34.5 2.5h-119v-318h-88v714zM279.003 770.995h-77l-100 142h78l61 -88l61 88h78z" />
    <glyph glyph-name="rcaron" unicode="&#x159;" horiz-adv-x="296" 
d="M55 536h84v-80h2c6 12.667 12.5 24.667 19.5 36s15.167 21.333 24.5 30s19.833 15.5 31.5 20.5s25.167 7.5 40.5 7.5c16.667 0 29 -2 37 -6v-82l-15.5 2.5c-6.33301 1 -16.166 1.5 -29.499 1.5c-10.667 0 -22.334 -2.5 -35.001 -7.5s-24.5 -12.667 -35.5 -23
s-20.333 -23.5 -28 -39.5s-11.5 -35 -11.5 -57v-339h-84v536zM203 609h-77l-100 142h78l61 -88l61 88h78z" />
    <glyph glyph-name="Sacute" unicode="&#x15a;" horiz-adv-x="500" 
d="M361 529c0 18.667 -1.83105 35.833 -5.49805 51.5s-9.83398 29 -18.501 40s-20.167 19.667 -34.5 26s-31.833 9.5 -52.5 9.5c-38 0 -67.167 -9.83301 -87.5 -29.5s-30.5 -48.5 -30.5 -86.5c0 -33.333 8.33301 -59 25 -77s37.5 -32.333 62.5 -43s52 -20.167 81 -28.5
s56 -19.5 81 -33.5s45.833 -33.333 62.5 -58s25 -58.667 25 -102c0 -41.333 -6.83301 -75.666 -20.5 -102.999s-31.167 -49 -52.5 -65s-45.166 -27.333 -71.499 -34s-52.166 -10 -77.499 -10c-42 0 -76.833 5.33301 -104.5 16s-49.667 26 -66 46s-28 44.833 -35 74.5
s-10.5 63.5 -10.5 101.5h88c0 -20 1 -39.833 3 -59.5s7.33301 -37.5 16 -53.5s22 -28.833 40 -38.5s43 -14.5 75 -14.5c17.333 0 33.666 3 48.999 9s28.5 14.5 39.5 25.5s19.667 24.167 26 39.5s9.5 32.666 9.5 51.999c0 25.333 -4.83301 46 -14.5 62
s-22.334 29.5 -38.001 40.5s-33.667 20 -54 27l-62 21.5c-21 7.33301 -41.667 15.5 -62 24.5s-38.333 20.667 -54 35s-28.334 32.5 -38.001 54.5s-14.5 49.333 -14.5 82c0 16.667 2.33301 36.167 7 58.5s14.5 43.833 29.5 64.5s36.167 38.167 63.5 52.5
s63.666 21.5 108.999 21.5c68.667 0 118.834 -16.5 150.501 -49.5s48.167 -82.833 49.5 -149.5h-88zM286.002 920.999h98l-108 -142h-60z" />
    <glyph glyph-name="sacute" unicode="&#x15b;" horiz-adv-x="407" 
d="M285 379c0 34 -5.50293 60.002 -16.5029 78.002s-31.833 27 -62.5 27c-6.66699 0 -15 -0.833008 -25 -2.5s-19.5 -5.16699 -28.5 -10.5s-16.833 -13.5 -23.5 -24.5s-10 -25.833 -10 -44.5c0 -16 3.83301 -29 11.5 -39s17.667 -18.5 30 -25.5s26.333 -12.833 42 -17.5
l48.5 -15c16 -5.33301 31.833 -11.166 47.5 -17.499s29.667 -15 42 -26s22.333 -25 30 -42s11.5 -38.833 11.5 -65.5c0 -28 -4.33301 -52.5 -13 -73.5s-20.667 -38.5 -36 -52.5s-33.666 -24.5 -54.999 -31.5s-44.333 -10.5 -69 -10.5c-45.333 0 -80.5 7.33301 -105.5 22
s-43.333 32.167 -55 52.5s-18.5 41.166 -20.5 62.499s-3 39 -3 53h84c0 -16 1.33301 -31.5 4 -46.5s7.66699 -28.333 15 -40s17.5 -20.834 30.5 -27.501s29.833 -10 50.5 -10c6.66699 0 15 1 25 3s19.833 6.33301 29.5 13s17.834 15.667 24.501 27s10 26.666 10 45.999
c0 18 -3.83301 32.833 -11.5 44.5s-17.667 21.334 -30 29.001s-26.333 14.167 -42 19.5l-47.5 16c-16 5.33301 -32 11.166 -48 17.499s-30.167 14.833 -42.5 25.5s-22.333 24.667 -30 42s-11.5 39.666 -11.5 66.999c0 24.667 4.5 46.334 13.5 65.001s21.333 34.167 37 46.5
s33.834 21.5 54.501 27.5s42.667 9 66 9c38.667 0 69 -6 91 -18s38.333 -26.667 49 -44s17.167 -35.833 19.5 -55.5s3.5 -37.5 3.5 -53.5h-84zM242.997 751.002h98l-108 -142h-60z" />
    <glyph glyph-name="Scircumflex" unicode="&#x15c;" horiz-adv-x="500" 
d="M361 529c0 18.667 -1.83105 35.833 -5.49805 51.5s-9.83398 29 -18.501 40s-20.167 19.667 -34.5 26s-31.833 9.5 -52.5 9.5c-38 0 -67.167 -9.83301 -87.5 -29.5s-30.5 -48.5 -30.5 -86.5c0 -33.333 8.33301 -59 25 -77s37.5 -32.333 62.5 -43s52 -20.167 81 -28.5
s56 -19.5 81 -33.5s45.833 -33.333 62.5 -58s25 -58.667 25 -102c0 -41.333 -6.83301 -75.666 -20.5 -102.999s-31.167 -49 -52.5 -65s-45.166 -27.333 -71.499 -34s-52.166 -10 -77.499 -10c-42 0 -76.833 5.33301 -104.5 16s-49.667 26 -66 46s-28 44.833 -35 74.5
s-10.5 63.5 -10.5 101.5h88c0 -20 1 -39.833 3 -59.5s7.33301 -37.5 16 -53.5s22 -28.833 40 -38.5s43 -14.5 75 -14.5c17.333 0 33.666 3 48.999 9s28.5 14.5 39.5 25.5s19.667 24.167 26 39.5s9.5 32.666 9.5 51.999c0 25.333 -4.83301 46 -14.5 62
s-22.334 29.5 -38.001 40.5s-33.667 20 -54 27l-62 21.5c-21 7.33301 -41.667 15.5 -62 24.5s-38.333 20.667 -54 35s-28.334 32.5 -38.001 54.5s-14.5 49.333 -14.5 82c0 16.667 2.33301 36.167 7 58.5s14.5 43.833 29.5 64.5s36.167 38.167 63.5 52.5
s63.666 21.5 108.999 21.5c68.667 0 118.834 -16.5 150.501 -49.5s48.167 -82.833 49.5 -149.5h-88zM216.002 914.999h77l100 -142h-78l-61 88l-61 -88h-78z" />
    <glyph glyph-name="scircumflex" unicode="&#x15d;" horiz-adv-x="407" 
d="M285 379c0 34 -5.50293 60.002 -16.5029 78.002s-31.833 27 -62.5 27c-6.66699 0 -15 -0.833008 -25 -2.5s-19.5 -5.16699 -28.5 -10.5s-16.833 -13.5 -23.5 -24.5s-10 -25.833 -10 -44.5c0 -16 3.83301 -29 11.5 -39s17.667 -18.5 30 -25.5s26.333 -12.833 42 -17.5
l48.5 -15c16 -5.33301 31.833 -11.166 47.5 -17.499s29.667 -15 42 -26s22.333 -25 30 -42s11.5 -38.833 11.5 -65.5c0 -28 -4.33301 -52.5 -13 -73.5s-20.667 -38.5 -36 -52.5s-33.666 -24.5 -54.999 -31.5s-44.333 -10.5 -69 -10.5c-45.333 0 -80.5 7.33301 -105.5 22
s-43.333 32.167 -55 52.5s-18.5 41.166 -20.5 62.499s-3 39 -3 53h84c0 -16 1.33301 -31.5 4 -46.5s7.66699 -28.333 15 -40s17.5 -20.834 30.5 -27.501s29.833 -10 50.5 -10c6.66699 0 15 1 25 3s19.833 6.33301 29.5 13s17.834 15.667 24.501 27s10 26.666 10 45.999
c0 18 -3.83301 32.833 -11.5 44.5s-17.667 21.334 -30 29.001s-26.333 14.167 -42 19.5l-47.5 16c-16 5.33301 -32 11.166 -48 17.499s-30.167 14.833 -42.5 25.5s-22.333 24.667 -30 42s-11.5 39.666 -11.5 66.999c0 24.667 4.5 46.334 13.5 65.001s21.333 34.167 37 46.5
s33.834 21.5 54.501 27.5s42.667 9 66 9c38.667 0 69 -6 91 -18s38.333 -26.667 49 -44s17.167 -35.833 19.5 -55.5s3.5 -37.5 3.5 -53.5h-84zM172.997 751.002h77l100 -142h-78l-61 88l-61 -88h-78z" />
    <glyph glyph-name="Scedilla" unicode="&#x15e;" horiz-adv-x="500" 
d="M154 -156c0.666992 0 3.50098 -0.666016 8.50098 -1.99902s10.833 -2.66602 17.5 -3.99902l20.5 -4c7 -1.33301 12.833 -2 17.5 -2c20.667 0 35 4 43 12s12 17 12 27c0 11.333 -4.83301 20.333 -14.5 27s-20.5 10 -32.5 10c-8.66699 0 -16.5 -0.833008 -23.5 -2.5
s-12.5 -3.16699 -16.5 -4.5l-15 18l49 68c-30 2 -56 7 -78 15c-41.333 16 -70.166 42.5 -86.499 79.5s-24.5 84.5 -24.5 142.5h88c0 -20 1 -39.833 3 -59.5s7.33301 -37.5 16 -53.5s22 -28.833 40 -38.5s43 -14.5 75 -14.5c17.333 0 33.666 3 48.999 9s28.5 14.5 39.5 25.5
s19.667 24.167 26 39.5s9.5 32.666 9.5 51.999c0 25.333 -4.83301 46 -14.5 62s-22.334 29.5 -38.001 40.5s-33.667 20 -54 27l-62 21.5c-21 7.33301 -41.667 15.5 -62 24.5s-38.333 20.667 -54 35s-28.334 32.5 -38.001 54.5s-14.5 49.333 -14.5 82
c0 16.667 2.33301 36.167 7 58.5s14.5 43.833 29.5 64.5s36.167 38.167 63.5 52.5s63.666 21.5 108.999 21.5c68.667 0 118.834 -16.5 150.501 -49.5s48.167 -82.833 49.5 -149.5h-88c0 18.667 -1.83301 35.834 -5.5 51.501s-9.83398 29 -18.501 40s-20.167 19.667 -34.5 26
s-31.833 9.5 -52.5 9.5c-38 0 -67.167 -9.83301 -87.5 -29.5s-30.5 -48.5 -30.5 -86.5c0 -33.333 8.33301 -59 25 -77s37.5 -32.333 62.5 -43s52 -20.167 81 -28.5s56 -19.5 81 -33.5s45.833 -33.333 62.5 -58s25 -58.667 25 -102c0 -30.667 -4 -57.5 -12 -80.5
s-18.667 -42.833 -32 -59.5s-28.666 -30 -45.999 -40s-35.666 -17.333 -54.999 -22c-10.667 -2.66699 -21 -4.83398 -31 -6.50098s-20.333 -2.83398 -31 -3.50098l-29 -40l2 -2c5.33301 1.33301 10 2.33301 14 3s9.33301 1 16 1c8.66699 0 17.667 -1.16699 27 -3.5
s18 -6.33301 26 -12s14.5 -13.167 19.5 -22.5s7.5 -21.333 7.5 -36c0 -12 -3 -23 -9 -33s-13.833 -18.833 -23.5 -26.5s-21 -13.667 -34 -18s-26.5 -6.5 -40.5 -6.5c-18.667 0 -37 2 -55 6s-32.667 8.66699 -44 14z" />
    <glyph glyph-name="scedilla" unicode="&#x15f;" horiz-adv-x="407" 
d="M109 -156c0.666992 0 3.49609 -0.666016 8.49609 -1.99902s10.833 -2.66602 17.5 -3.99902l20.5 -4c7 -1.33301 12.833 -2 17.5 -2c20.667 0 35 4 43 12s12 17 12 27c0 11.333 -4.83301 20.333 -14.5 27s-20.5 10 -32.5 10c-8.66699 0 -16.5 -0.833008 -23.5 -2.5
s-12.5 -3.16699 -16.5 -4.5l-15 18l50 69c-30.667 3.33301 -55 10 -73 20c-19.333 11.333 -34.166 24.333 -44.499 39s-18 29.667 -23 45s-8 30.333 -9 45s-1.5 27.667 -1.5 39h84c0 -16 1.33301 -31.5 4 -46.5s7.66699 -28.333 15 -40s17.5 -20.834 30.5 -27.501
s29.833 -10 50.5 -10c6.66699 0 15 1 25 3s19.833 6.33301 29.5 13s17.834 15.667 24.501 27s10 26.666 10 45.999c0 18 -3.83301 32.833 -11.5 44.5s-17.667 21.334 -30 29.001s-26.333 14.167 -42 19.5l-47.5 16c-16 5.33301 -32 11.166 -48 17.499
s-30.167 14.833 -42.5 25.5s-22.333 24.667 -30 42s-11.5 39.666 -11.5 66.999c0 24.667 4.5 46.334 13.5 65.001s21.333 34.167 37 46.5s33.834 21.5 54.501 27.5s42.667 9 66 9c38.667 0 69 -6 91 -18s38.333 -26.667 49 -44s17.167 -35.833 19.5 -55.5
s3.5 -37.5 3.5 -53.5h-84c0 34 -5.5 60 -16.5 78s-31.833 27 -62.5 27c-6.66699 0 -15 -0.833008 -25 -2.5s-19.5 -5.16699 -28.5 -10.5s-16.833 -13.5 -23.5 -24.5s-10 -25.833 -10 -44.5c0 -16 3.83301 -29 11.5 -39s17.667 -18.5 30 -25.5s26.333 -12.833 42 -17.5
l48.5 -15c16 -5.33301 31.833 -11.166 47.5 -17.499s29.667 -15 42 -26s22.333 -25 30 -42s11.5 -38.833 11.5 -65.5c0 -42 -9.33301 -76.167 -28 -102.5s-44 -44.5 -76 -54.5c-9.33301 -3.33301 -19.166 -5.83301 -29.499 -7.5s-20.833 -2.83398 -31.5 -3.50098l-29 -40
l2 -2c5.33301 1.33301 10 2.33301 14 3s9.33301 1 16 1c8.66699 0 17.667 -1.16699 27 -3.5s18 -6.33301 26 -12s14.5 -13.167 19.5 -22.5s7.5 -21.333 7.5 -36c0 -12 -3 -23 -9 -33s-13.833 -18.833 -23.5 -26.5s-21 -13.667 -34 -18s-26.5 -6.5 -40.5 -6.5
c-18.667 0 -37 2 -55 6s-32.667 8.66699 -44 14z" />
    <glyph glyph-name="Scaron" unicode="&#x160;" horiz-adv-x="500" 
d="M361 529c0 18.667 -1.83105 35.833 -5.49805 51.5s-9.83398 29 -18.501 40s-20.167 19.667 -34.5 26s-31.833 9.5 -52.5 9.5c-38 0 -67.167 -9.83301 -87.5 -29.5s-30.5 -48.5 -30.5 -86.5c0 -33.333 8.33301 -59 25 -77s37.5 -32.333 62.5 -43s52 -20.167 81 -28.5
s56 -19.5 81 -33.5s45.833 -33.333 62.5 -58s25 -58.667 25 -102c0 -41.333 -6.83301 -75.666 -20.5 -102.999s-31.167 -49 -52.5 -65s-45.166 -27.333 -71.499 -34s-52.166 -10 -77.499 -10c-42 0 -76.833 5.33301 -104.5 16s-49.667 26 -66 46s-28 44.833 -35 74.5
s-10.5 63.5 -10.5 101.5h88c0 -20 1 -39.833 3 -59.5s7.33301 -37.5 16 -53.5s22 -28.833 40 -38.5s43 -14.5 75 -14.5c17.333 0 33.666 3 48.999 9s28.5 14.5 39.5 25.5s19.667 24.167 26 39.5s9.5 32.666 9.5 51.999c0 25.333 -4.83301 46 -14.5 62
s-22.334 29.5 -38.001 40.5s-33.667 20 -54 27l-62 21.5c-21 7.33301 -41.667 15.5 -62 24.5s-38.333 20.667 -54 35s-28.334 32.5 -38.001 54.5s-14.5 49.333 -14.5 82c0 16.667 2.33301 36.167 7 58.5s14.5 43.833 29.5 64.5s36.167 38.167 63.5 52.5
s63.666 21.5 108.999 21.5c68.667 0 118.834 -16.5 150.501 -49.5s48.167 -82.833 49.5 -149.5h-88zM292.002 772.999h-77l-100 142h78l61 -88l61 88h78z" />
    <glyph glyph-name="scaron" unicode="&#x161;" horiz-adv-x="407" 
d="M285 379c0 34 -5.50293 60.002 -16.5029 78.002s-31.833 27 -62.5 27c-6.66699 0 -15 -0.833008 -25 -2.5s-19.5 -5.16699 -28.5 -10.5s-16.833 -13.5 -23.5 -24.5s-10 -25.833 -10 -44.5c0 -16 3.83301 -29 11.5 -39s17.667 -18.5 30 -25.5s26.333 -12.833 42 -17.5
l48.5 -15c16 -5.33301 31.833 -11.166 47.5 -17.499s29.667 -15 42 -26s22.333 -25 30 -42s11.5 -38.833 11.5 -65.5c0 -28 -4.33301 -52.5 -13 -73.5s-20.667 -38.5 -36 -52.5s-33.666 -24.5 -54.999 -31.5s-44.333 -10.5 -69 -10.5c-45.333 0 -80.5 7.33301 -105.5 22
s-43.333 32.167 -55 52.5s-18.5 41.166 -20.5 62.499s-3 39 -3 53h84c0 -16 1.33301 -31.5 4 -46.5s7.66699 -28.333 15 -40s17.5 -20.834 30.5 -27.501s29.833 -10 50.5 -10c6.66699 0 15 1 25 3s19.833 6.33301 29.5 13s17.834 15.667 24.501 27s10 26.666 10 45.999
c0 18 -3.83301 32.833 -11.5 44.5s-17.667 21.334 -30 29.001s-26.333 14.167 -42 19.5l-47.5 16c-16 5.33301 -32 11.166 -48 17.499s-30.167 14.833 -42.5 25.5s-22.333 24.667 -30 42s-11.5 39.666 -11.5 66.999c0 24.667 4.5 46.334 13.5 65.001s21.333 34.167 37 46.5
s33.834 21.5 54.501 27.5s42.667 9 66 9c38.667 0 69 -6 91 -18s38.333 -26.667 49 -44s17.167 -35.833 19.5 -55.5s3.5 -37.5 3.5 -53.5h-84zM242.997 609.002h-77l-100 142h78l61 -88l61 88h78z" />
    <glyph glyph-name="Tcommaaccent" unicode="&#x162;" 
d="M275 0h-88v636h-179v78h447v-78h-180v-636zM189 -50l83.001 -0.00195312v-80c0 -27.333 -6.5 -47 -19.5 -59s-32.5 -19 -58.5 -21v26c8.66699 2.66699 16.167 6.33398 22.5 11.001s10.166 15.334 11.499 32.001h-39v91z" />
    <glyph glyph-name="tcommaaccent" unicode="&#x163;" horiz-adv-x="259" 
d="M80 692l83.999 -0.00195312v-156h93v-66h-93v-344c0 -21.333 3.66699 -36.666 11 -45.999s22 -14 44 -14c9.33301 0 16.666 0.333008 21.999 1s10.333 1.33398 15 2.00098v-69c-5.33301 -1.33301 -13.666 -2.66602 -24.999 -3.99902s-25.666 -2 -42.999 -2
c-22 0 -40 2.16699 -54 6.5s-25 11 -33 20s-13.5 20.167 -16.5 33.5s-4.5 28.666 -4.5 45.999v370h-78v66h78v156zM119.999 -50.002l83.001 -0.00195312v-80c0 -27.333 -6.5 -47 -19.5 -59s-32.5 -19 -58.5 -21v26c8.66699 2.66699 16.167 6.33398 22.5 11.001
s10.166 15.334 11.499 32.001h-39v91z" />
    <glyph glyph-name="Tcaron" unicode="&#x164;" 
d="M275 0h-88v636h-179v78h447v-78h-180v-636zM269 773h-77l-100 142h78l61 -88l61 88h78z" />
    <glyph glyph-name="tcaron" unicode="&#x165;" horiz-adv-x="322" 
d="M271 714h87l-59 -142h-54zM80 692l83.999 -0.00195312v-156h93v-66h-93v-344c0 -21.333 3.66699 -36.666 11 -45.999s22 -14 44 -14c9.33301 0 16.666 0.333008 21.999 1s10.333 1.33398 15 2.00098v-69c-5.33301 -1.33301 -13.666 -2.66602 -24.999 -3.99902
s-25.666 -2 -42.999 -2c-22 0 -40 2.16699 -54 6.5s-25 11 -33 20s-13.5 20.167 -16.5 33.5s-4.5 28.666 -4.5 45.999v370h-78v66h78v156z" />
    <glyph glyph-name="Tbar" unicode="&#x166;" 
d="M275 0h-88v437h-114v49h114v150h-179v78h447v-78h-180v-150h112v-49h-112v-437z" />
    <glyph glyph-name="tbar" unicode="&#x167;" horiz-adv-x="259" 
d="M-6 346l85.999 -0.00195312v124h-78v66h78v156h84v-156h93v-66h-93v-124h100v-49h-100v-171c0 -21.333 3.66699 -36.666 11 -45.999s22 -14 44 -14c9.33301 0 16.666 0.333008 21.999 1s10.333 1.33398 15 2.00098v-69
c-5.33301 -1.33301 -13.666 -2.66602 -24.999 -3.99902s-25.666 -2 -42.999 -2c-22 0 -40 2.16699 -54 6.5s-25 11 -33 20s-13.5 20.167 -16.5 33.5s-4.5 28.666 -4.5 45.999v197h-86v49z" />
    <glyph glyph-name="Utilde" unicode="&#x168;" horiz-adv-x="519" 
d="M50 714h88v-502c0 -52.667 9.16699 -91.5 27.5 -116.5s49.5 -37.5 93.5 -37.5c46.667 0 78.667 13.167 96 39.5s26 64.5 26 114.5v502h88v-502c0 -68.667 -17.5 -123.5 -52.5 -164.5s-87.5 -61.5 -157.5 -61.5c-72.667 0 -125.667 19 -159 57s-50 94.333 -50 169v502z
M407 903c0 -12.667 -1.83105 -25.499 -5.49805 -38.499s-9 -24.833 -16 -35.5s-16 -19.5 -27 -26.5s-23.5 -10.5 -37.5 -10.5c-10.667 0 -21.667 2 -33 6s-22.166 8.33301 -32.499 13l-28.5 13c-8.66699 4 -15.667 6 -21 6c-13.333 0 -22.833 -5.16699 -28.5 -15.5
s-9.16699 -20.166 -10.5 -29.499h-54c0 14.667 2.33301 28.667 7 42s11.167 25.166 19.5 35.499s18.166 18.5 29.499 24.5s23.666 9 36.999 9c9.33301 0 19.166 -1.83301 29.499 -5.5s20.5 -8.16699 30.5 -13.5l28.5 -13c9 -4 16.833 -6 23.5 -6
c12.667 0 21.167 5.16699 25.5 15.5s7.5 20.166 9.5 29.499h54z" />
    <glyph glyph-name="utilde" unicode="&#x169;" 
d="M408 0l-79.998 -0.000976562v63h-2c-11.333 -24.667 -29.333 -43.667 -54 -57s-50 -20 -76 -20c-35.333 0 -62.5 5.83301 -81.5 17.5s-33 26.167 -42 43.5s-14.167 35.833 -15.5 55.5s-2 37.5 -2 53.5v380h84v-370c0 -10 0.5 -21.333 1.5 -34s4.16699 -24.5 9.5 -35.5
s13.166 -20.167 23.499 -27.5s25.166 -11 44.499 -11c11.333 0 23.166 2 35.499 6s23.833 10.333 34.5 19s19.334 19.834 26.001 33.501s10 30.167 10 49.5v370h84v-536zM380.002 738.999c0 -12.667 -1.83105 -25.499 -5.49805 -38.499s-9 -24.833 -16 -35.5
s-16 -19.5 -27 -26.5s-23.5 -10.5 -37.5 -10.5c-10.667 0 -21.667 2 -33 6s-22.166 8.33301 -32.499 13l-28.5 13c-8.66699 4 -15.667 6 -21 6c-13.333 0 -22.833 -5.16699 -28.5 -15.5s-9.16699 -20.166 -10.5 -29.499h-54c0 14.667 2.33301 28.667 7 42
s11.167 25.166 19.5 35.499s18.166 18.5 29.499 24.5s23.666 9 36.999 9c9.33301 0 19.166 -1.83301 29.499 -5.5s20.5 -8.16699 30.5 -13.5l28.5 -13c9 -4 16.833 -6 23.5 -6c12.667 0 21.167 5.16699 25.5 15.5s7.5 20.166 9.5 29.499h54z" />
    <glyph glyph-name="Umacron" unicode="&#x16a;" horiz-adv-x="519" 
d="M50 714h88v-502c0 -52.667 9.16699 -91.5 27.5 -116.5s49.5 -37.5 93.5 -37.5c46.667 0 78.667 13.167 96 39.5s26 64.5 26 114.5v502h88v-502c0 -68.667 -17.5 -123.5 -52.5 -164.5s-87.5 -61.5 -157.5 -61.5c-72.667 0 -125.667 19 -159 57s-50 94.333 -50 169v502z
M128 871h264v-54h-264v54z" />
    <glyph glyph-name="umacron" unicode="&#x16b;" 
d="M408 0l-79.998 -0.000976562v63h-2c-11.333 -24.667 -29.333 -43.667 -54 -57s-50 -20 -76 -20c-35.333 0 -62.5 5.83301 -81.5 17.5s-33 26.167 -42 43.5s-14.167 35.833 -15.5 55.5s-2 37.5 -2 53.5v380h84v-370c0 -10 0.5 -21.333 1.5 -34s4.16699 -24.5 9.5 -35.5
s13.166 -20.167 23.499 -27.5s25.166 -11 44.499 -11c11.333 0 23.166 2 35.499 6s23.833 10.333 34.5 19s19.334 19.834 26.001 33.501s10 30.167 10 49.5v370h84v-536zM101.002 706.999h264v-54h-264v54z" />
    <glyph glyph-name="Ubreve" unicode="&#x16c;" horiz-adv-x="519" 
d="M50 714h88v-502c0 -52.667 9.16699 -91.5 27.5 -116.5s49.5 -37.5 93.5 -37.5c46.667 0 78.667 13.167 96 39.5s26 64.5 26 114.5v502h88v-502c0 -68.667 -17.5 -123.5 -52.5 -164.5s-87.5 -61.5 -157.5 -61.5c-72.667 0 -125.667 19 -159 57s-50 94.333 -50 169v502z
M183 908c0 -9.33301 2.33301 -18 7 -26s10.667 -15 18 -21s15.5 -10.833 24.5 -14.5s18.167 -5.5 27.5 -5.5c8.66699 0 17.667 1.83301 27 5.5s17.666 8.5 24.999 14.5s13.333 13 18 21s7 16.667 7 26h48c0 -10 -1.83301 -22.333 -5.5 -37s-10.167 -28.667 -19.5 -42
s-22.166 -24.666 -38.499 -33.999s-36.833 -14 -61.5 -14c-25.333 0 -46 4.66699 -62 14s-28.667 20.666 -38 33.999s-15.833 27.333 -19.5 42s-5.5 27 -5.5 37h48z" />
    <glyph glyph-name="ubreve" unicode="&#x16d;" 
d="M408 0l-79.998 -0.000976562v63h-2c-11.333 -24.667 -29.333 -43.667 -54 -57s-50 -20 -76 -20c-35.333 0 -62.5 5.83301 -81.5 17.5s-33 26.167 -42 43.5s-14.167 35.833 -15.5 55.5s-2 37.5 -2 53.5v380h84v-370c0 -10 0.5 -21.333 1.5 -34s4.16699 -24.5 9.5 -35.5
s13.166 -20.167 23.499 -27.5s25.166 -11 44.499 -11c11.333 0 23.166 2 35.499 6s23.833 10.333 34.5 19s19.334 19.834 26.001 33.501s10 30.167 10 49.5v370h84v-536zM155.002 743.999c0 -9.33301 2.33301 -18 7 -26s10.667 -15 18 -21s15.5 -10.833 24.5 -14.5
s18.167 -5.5 27.5 -5.5c8.66699 0 17.667 1.83301 27 5.5s17.666 8.5 24.999 14.5s13.333 13 18 21s7 16.667 7 26h48c0 -10 -1.83301 -22.333 -5.5 -37s-10.167 -28.667 -19.5 -42s-22.166 -24.666 -38.499 -33.999s-36.833 -14 -61.5 -14c-25.333 0 -46 4.66699 -62 14
s-28.667 20.666 -38 33.999s-15.833 27.333 -19.5 42s-5.5 27 -5.5 37h48z" />
    <glyph glyph-name="Uring" unicode="&#x16e;" horiz-adv-x="519" 
d="M50 714h88v-502c0 -52.667 9.16699 -91.5 27.5 -116.5s49.5 -37.5 93.5 -37.5c46.667 0 78.667 13.167 96 39.5s26 64.5 26 114.5v502h88v-502c0 -68.667 -17.5 -123.5 -52.5 -164.5s-87.5 -61.5 -157.5 -61.5c-72.667 0 -125.667 19 -159 57s-50 94.333 -50 169v502z
M203 837c0 -15.333 5.66699 -28.666 17 -39.999s24.666 -17 39.999 -17s28.666 5.66699 39.999 17s17 24.666 17 39.999s-5.66699 28.666 -17 39.999s-24.666 17 -39.999 17s-28.666 -5.66699 -39.999 -17s-17 -24.666 -17 -39.999zM161 837c0 28 9.5 51.5 28.5 70.5
s42.5 28.5 70.5 28.5s51.5 -9.5 70.5 -28.5s28.5 -42.5 28.5 -70.5s-9.5 -51.5 -28.5 -70.5s-42.5 -28.5 -70.5 -28.5s-51.5 9.5 -70.5 28.5s-28.5 42.5 -28.5 70.5z" />
    <glyph glyph-name="uring" unicode="&#x16f;" 
d="M408 0l-79.998 -0.000976562v63h-2c-11.333 -24.667 -29.333 -43.667 -54 -57s-50 -20 -76 -20c-35.333 0 -62.5 5.83301 -81.5 17.5s-33 26.167 -42 43.5s-14.167 35.833 -15.5 55.5s-2 37.5 -2 53.5v380h84v-370c0 -10 0.5 -21.333 1.5 -34s4.16699 -24.5 9.5 -35.5
s13.166 -20.167 23.499 -27.5s25.166 -11 44.499 -11c11.333 0 23.166 2 35.499 6s23.833 10.333 34.5 19s19.334 19.834 26.001 33.501s10 30.167 10 49.5v370h84v-536zM175.002 689.999c0 -15.333 5.66699 -28.666 17 -39.999s24.666 -17 39.999 -17
s28.666 5.66699 39.999 17s17 24.666 17 39.999s-5.66699 28.666 -17 39.999s-24.666 17 -39.999 17s-28.666 -5.66699 -39.999 -17s-17 -24.666 -17 -39.999zM133.002 689.999c0 28 9.5 51.5 28.5 70.5s42.5 28.5 70.5 28.5s51.5 -9.5 70.5 -28.5s28.5 -42.5 28.5 -70.5
s-9.5 -51.5 -28.5 -70.5s-42.5 -28.5 -70.5 -28.5s-51.5 9.5 -70.5 28.5s-28.5 42.5 -28.5 70.5z" />
    <glyph glyph-name="Uhungarumlaut" unicode="&#x170;" horiz-adv-x="519" 
d="M50 714h88v-502c0 -52.667 9.16699 -91.5 27.5 -116.5s49.5 -37.5 93.5 -37.5c46.667 0 78.667 13.167 96 39.5s26 64.5 26 114.5v502h88v-502c0 -68.667 -17.5 -123.5 -52.5 -164.5s-87.5 -61.5 -157.5 -61.5c-72.667 0 -125.667 19 -159 57s-50 94.333 -50 169v502z
M380 915h98l-108 -142h-60zM216 915h98l-108 -142h-60z" />
    <glyph glyph-name="uhungarumlaut" unicode="&#x171;" 
d="M408 0l-79.998 -0.000976562v63h-2c-11.333 -24.667 -29.333 -43.667 -54 -57s-50 -20 -76 -20c-35.333 0 -62.5 5.83301 -81.5 17.5s-33 26.167 -42 43.5s-14.167 35.833 -15.5 55.5s-2 37.5 -2 53.5v380h84v-370c0 -10 0.5 -21.333 1.5 -34s4.16699 -24.5 9.5 -35.5
s13.166 -20.167 23.499 -27.5s25.166 -11 44.499 -11c11.333 0 23.166 2 35.499 6s23.833 10.333 34.5 19s19.334 19.834 26.001 33.501s10 30.167 10 49.5v370h84v-536zM351.002 750.999h98l-108 -142h-60zM187.002 750.999h98l-108 -142h-60z" />
    <glyph glyph-name="Uogonek" unicode="&#x172;" horiz-adv-x="519" 
d="M50 714l87.999 0.00195312v-502c0 -52.667 9.16699 -91.5 27.5 -116.5s49.5 -37.5 93.5 -37.5c46.667 0 78.667 13.167 96 39.5s26 64.5 26 114.5v502h88v-502c0 -68.667 -17.667 -123.667 -53 -165c-22.667 -26.667 -54.334 -44.667 -95.001 -54l-23.5 -18.5
c-7 -5.66699 -13.167 -11.167 -18.5 -16.5c-21.333 -19.333 -35.166 -35 -41.499 -47s-9.5 -24 -9.5 -36c0 -25.333 13.333 -38 40 -38c13.333 0 24.833 1.33301 34.5 4s20.167 6.66699 31.5 12l18 -35c-16.667 -10 -34.167 -17.167 -52.5 -21.5s-34.833 -6.5 -49.5 -6.5
c-32.667 0 -56.5 7 -71.5 21s-22.5 33 -22.5 57c0 43.333 31.667 82.666 95 117.999c-67.333 0.666992 -117.666 19.667 -150.999 57c-33.333 39.333 -50 95.666 -50 168.999v502z" />
    <glyph glyph-name="uogonek" unicode="&#x173;" 
d="M408 0h-31.999c-10 -8 -19.333 -16.5 -28 -25.5s-16.667 -18.167 -24 -27.5c-14.667 -19.333 -23.834 -34 -27.501 -44s-5.5 -20 -5.5 -30c0 -10.667 3 -19.334 9 -26.001s15 -10 27 -10c20.667 0 40.667 5.33301 60 16l16 -35
c-15.333 -10 -31.166 -17.167 -47.499 -21.5s-31.166 -6.5 -44.499 -6.5c-30 0 -51.5 7 -64.5 21s-19.5 31.667 -19.5 53c0 24 7.83301 46.167 23.5 66.5s41.5 43.5 77.5 69.5v63h-2c-11.333 -24.667 -29.333 -43.667 -54 -57s-50 -20 -76 -20
c-35.333 0 -62.5 5.83301 -81.5 17.5s-33 26.167 -42 43.5s-14.167 35.833 -15.5 55.5s-2 37.5 -2 53.5v380h84v-370c0 -10 0.5 -21.333 1.5 -34s4.16699 -24.5 9.5 -35.5s13.166 -20.167 23.499 -27.5s25.166 -11 44.499 -11c11.333 0 23.166 2 35.499 6
s23.833 10.333 34.5 19s19.334 19.834 26.001 33.501s10 30.167 10 49.5v370h84v-536z" />
    <glyph glyph-name="Wcircumflex" unicode="&#x174;" horiz-adv-x="722" 
d="M8 714h88l109 -584h2l101 584h106l101 -584h2l109 584h88l-147 -714h-107l-98 578h-2l-103 -578h-107zM324 915h77l100 -142h-78l-61 88l-61 -88h-78z" />
    <glyph glyph-name="wcircumflex" unicode="&#x175;" horiz-adv-x="648" 
d="M10 536h88l86 -438h2l91 438h99l89 -438h2l83 438h88l-127 -536h-92l-94 438h-2l-90 -438h-98zM290 751h77l100 -142h-78l-61 88l-61 -88h-78z" />
    <glyph glyph-name="Ycircumflex" unicode="&#x176;" horiz-adv-x="462" 
d="M-2 714h97l136 -334l141 334h92l-189 -434v-280h-88v280zM193 915h77l100 -142h-78l-61 88l-61 -88h-78z" />
    <glyph glyph-name="ycircumflex" unicode="&#x177;" horiz-adv-x="406" 
d="M10 536h91.999l106 -430h2l94 430h92l-155 -572c-5.33301 -18.667 -11 -36.334 -17 -53.001s-14.167 -31.5 -24.5 -44.5s-23.5 -23.333 -39.5 -31s-36.667 -11.5 -62 -11.5c-16.667 0 -29.167 0.333008 -37.5 1s-16.166 1.33398 -23.499 2.00098v66
c12 -2 28.333 -3 49 -3c19.333 0 33.833 5 43.5 15s17.167 22.333 22.5 37l16 47zM170.999 751h77l100 -142h-78l-61 88l-61 -88h-78z" />
    <glyph glyph-name="Ydieresis" unicode="&#x178;" horiz-adv-x="462" 
d="M-2 714h97l136 -334l141 334h92l-189 -434v-280h-88v280zM272 895h78v-101h-78v101zM110 895h78v-101h-78v101z" />
    <glyph glyph-name="Zacute" unicode="&#x179;" 
d="M23 74l321 562h-303v78h395v-81l-321 -555h325v-78h-417v74zM272 915h98l-108 -142h-60z" />
    <glyph glyph-name="zacute" unicode="&#x17a;" horiz-adv-x="389" 
d="M39 536h323v-70l-240 -394h238v-72h-333v66l243 398h-231v72zM232 751h98l-108 -142h-60z" />
    <glyph glyph-name="Zdotaccent" unicode="&#x17b;" 
d="M23 74l321 562h-303v78h395v-81l-321 -555h325v-78h-417v74zM194 895h78v-101h-78v101z" />
    <glyph glyph-name="zdotaccent" unicode="&#x17c;" horiz-adv-x="389" 
d="M39 536h323v-70l-240 -394h238v-72h-333v66l243 398h-231v72zM159 731h78v-101h-78v101z" />
    <glyph glyph-name="Zcaron" unicode="&#x17d;" 
d="M23 74l321 562h-303v78h395v-81l-321 -555h325v-78h-417v74zM272 773h-77l-100 142h78l61 -88l61 88h78z" />
    <glyph glyph-name="zcaron" unicode="&#x17e;" horiz-adv-x="389" 
d="M39 536h323v-70l-240 -394h238v-72h-333v66l243 398h-231v72zM236 609h-77l-100 142h78l61 -88l61 88h78z" />
    <glyph glyph-name="florin" unicode="&#x192;" horiz-adv-x="480" 
d="M-3 -106c4 -1.33301 10.498 -2.33301 19.498 -3s18.833 -1 29.5 -1c11.333 0 21.166 1.33301 29.499 4s15.5 7.5 21.5 14.5s11.333 16.333 16 28s8.66699 26.167 12 43.5l79 400h-104l11 60h104l33 156c9.33301 44.667 28.166 75.5 56.499 92.5s64.833 25.5 109.5 25.5
c22 0 38 -1.33301 48 -4l-14 -66c-3.33301 1.33301 -8.16602 2.33301 -14.499 3s-13.166 1 -20.499 1c-18.667 0 -33.5 -2.83301 -44.5 -8.5s-19.833 -14 -26.5 -25s-12 -24.667 -16 -41s-8 -34.833 -12 -55.5l-15 -78h109l-11 -60h-109l-80 -411
c-9.33301 -48 -27.166 -84.167 -53.499 -108.5s-64.5 -36.5 -114.5 -36.5c-10 0 -19.667 0.333008 -29 1s-18.666 1.66699 -27.999 3z" />
    <glyph glyph-name="Scommaaccent" unicode="&#x218;" horiz-adv-x="500" 
d="M361 529c0 18.667 -1.83105 35.833 -5.49805 51.5s-9.83398 29 -18.501 40s-20.167 19.667 -34.5 26s-31.833 9.5 -52.5 9.5c-38 0 -67.167 -9.83301 -87.5 -29.5s-30.5 -48.5 -30.5 -86.5c0 -33.333 8.33301 -59 25 -77s37.5 -32.333 62.5 -43s52 -20.167 81 -28.5
s56 -19.5 81 -33.5s45.833 -33.333 62.5 -58s25 -58.667 25 -102c0 -41.333 -6.83301 -75.666 -20.5 -102.999s-31.167 -49 -52.5 -65s-45.166 -27.333 -71.499 -34s-52.166 -10 -77.499 -10c-42 0 -76.833 5.33301 -104.5 16s-49.667 26 -66 46s-28 44.833 -35 74.5
s-10.5 63.5 -10.5 101.5h88c0 -20 1 -39.833 3 -59.5s7.33301 -37.5 16 -53.5s22 -28.833 40 -38.5s43 -14.5 75 -14.5c17.333 0 33.666 3 48.999 9s28.5 14.5 39.5 25.5s19.667 24.167 26 39.5s9.5 32.666 9.5 51.999c0 25.333 -4.83301 46 -14.5 62
s-22.334 29.5 -38.001 40.5s-33.667 20 -54 27l-62 21.5c-21 7.33301 -41.667 15.5 -62 24.5s-38.333 20.667 -54 35s-28.334 32.5 -38.001 54.5s-14.5 49.333 -14.5 82c0 16.667 2.33301 36.167 7 58.5s14.5 43.833 29.5 64.5s36.167 38.167 63.5 52.5
s63.666 21.5 108.999 21.5c68.667 0 118.834 -16.5 150.501 -49.5s48.167 -82.833 49.5 -149.5h-88zM207.002 -50.001l83.001 -0.00195312v-80c0 -27.333 -6.5 -47 -19.5 -59s-32.5 -19 -58.5 -21v26c8.66699 2.66699 16.167 6.33398 22.5 11.001
s10.166 15.334 11.499 32.001h-39v91z" />
    <glyph glyph-name="scommaaccent" unicode="&#x219;" horiz-adv-x="407" 
d="M285 379c0 34 -5.50293 60.002 -16.5029 78.002s-31.833 27 -62.5 27c-6.66699 0 -15 -0.833008 -25 -2.5s-19.5 -5.16699 -28.5 -10.5s-16.833 -13.5 -23.5 -24.5s-10 -25.833 -10 -44.5c0 -16 3.83301 -29 11.5 -39s17.667 -18.5 30 -25.5s26.333 -12.833 42 -17.5
l48.5 -15c16 -5.33301 31.833 -11.166 47.5 -17.499s29.667 -15 42 -26s22.333 -25 30 -42s11.5 -38.833 11.5 -65.5c0 -28 -4.33301 -52.5 -13 -73.5s-20.667 -38.5 -36 -52.5s-33.666 -24.5 -54.999 -31.5s-44.333 -10.5 -69 -10.5c-45.333 0 -80.5 7.33301 -105.5 22
s-43.333 32.167 -55 52.5s-18.5 41.166 -20.5 62.499s-3 39 -3 53h84c0 -16 1.33301 -31.5 4 -46.5s7.66699 -28.333 15 -40s17.5 -20.834 30.5 -27.501s29.833 -10 50.5 -10c6.66699 0 15 1 25 3s19.833 6.33301 29.5 13s17.834 15.667 24.501 27s10 26.666 10 45.999
c0 18 -3.83301 32.833 -11.5 44.5s-17.667 21.334 -30 29.001s-26.333 14.167 -42 19.5l-47.5 16c-16 5.33301 -32 11.166 -48 17.499s-30.167 14.833 -42.5 25.5s-22.333 24.667 -30 42s-11.5 39.666 -11.5 66.999c0 24.667 4.5 46.334 13.5 65.001s21.333 34.167 37 46.5
s33.834 21.5 54.501 27.5s42.667 9 66 9c38.667 0 69 -6 91 -18s38.333 -26.667 49 -44s17.167 -35.833 19.5 -55.5s3.5 -37.5 3.5 -53.5h-84zM162.997 -49.998l83.001 -0.00195312v-80c0 -27.333 -6.5 -47 -19.5 -59s-32.5 -19 -58.5 -21v26
c8.66699 2.66699 16.167 6.33398 22.5 11.001s10.166 15.334 11.499 32.001h-39v91z" />
    <glyph glyph-name="uni021A" unicode="&#x21a;" 
d="M275 0h-88v636h-179v78h447v-78h-180v-636zM189 -50l83.001 -0.00195312v-80c0 -27.333 -6.5 -47 -19.5 -59s-32.5 -19 -58.5 -21v26c8.66699 2.66699 16.167 6.33398 22.5 11.001s10.166 15.334 11.499 32.001h-39v91z" />
    <glyph glyph-name="uni021B" unicode="&#x21b;" horiz-adv-x="259" 
d="M80 692l83.999 -0.00195312v-156h93v-66h-93v-344c0 -21.333 3.66699 -36.666 11 -45.999s22 -14 44 -14c9.33301 0 16.666 0.333008 21.999 1s10.333 1.33398 15 2.00098v-69c-5.33301 -1.33301 -13.666 -2.66602 -24.999 -3.99902s-25.666 -2 -42.999 -2
c-22 0 -40 2.16699 -54 6.5s-25 11 -33 20s-13.5 20.167 -16.5 33.5s-4.5 28.666 -4.5 45.999v370h-78v66h78v156zM119.999 -50.002l83.001 -0.00195312v-80c0 -27.333 -6.5 -47 -19.5 -59s-32.5 -19 -58.5 -21v26c8.66699 2.66699 16.167 6.33398 22.5 11.001
s10.166 15.334 11.499 32.001h-39v91z" />
    <glyph glyph-name="circumflex" unicode="&#x2c6;" horiz-adv-x="204" 
d="M64 751h77l100 -142h-78l-61 88l-61 -88h-78z" />
    <glyph glyph-name="caron" unicode="&#x2c7;" horiz-adv-x="204" 
d="M140 609h-77l-100 142h78l61 -88l61 88h78z" />
    <glyph glyph-name="uni02C9" unicode="&#x2c9;" horiz-adv-x="204" 
d="M-30 707h264v-54h-264v54z" />
    <glyph glyph-name="breve" unicode="&#x2d8;" horiz-adv-x="204" 
d="M25 744c0 -9.33301 2.33301 -18 7 -26s10.667 -15 18 -21s15.5 -10.833 24.5 -14.5s18.167 -5.5 27.5 -5.5c8.66699 0 17.667 1.83301 27 5.5s17.666 8.5 24.999 14.5s13.333 13 18 21s7 16.667 7 26h48c0 -10 -1.83301 -22.333 -5.5 -37s-10.167 -28.667 -19.5 -42
s-22.166 -24.666 -38.499 -33.999s-36.833 -14 -61.5 -14c-25.333 0 -46 4.66699 -62 14s-28.667 20.666 -38 33.999s-15.833 27.333 -19.5 42s-5.5 27 -5.5 37h48z" />
    <glyph glyph-name="dotaccent" unicode="&#x2d9;" horiz-adv-x="204" 
d="M63 731h78v-101h-78v101z" />
    <glyph glyph-name="ring" unicode="&#x2da;" horiz-adv-x="204" 
d="M45 690c0 -15.333 5.66699 -28.666 17 -39.999s24.666 -17 39.999 -17s28.666 5.66699 39.999 17s17 24.666 17 39.999s-5.66699 28.666 -17 39.999s-24.666 17 -39.999 17s-28.666 -5.66699 -39.999 -17s-17 -24.666 -17 -39.999zM3 690c0 28 9.5 51.5 28.5 70.5
s42.5 28.5 70.5 28.5s51.5 -9.5 70.5 -28.5s28.5 -42.5 28.5 -70.5s-9.5 -51.5 -28.5 -70.5s-42.5 -28.5 -70.5 -28.5s-51.5 9.5 -70.5 28.5s-28.5 42.5 -28.5 70.5z" />
    <glyph glyph-name="ogonek" unicode="&#x2db;" horiz-adv-x="204" 
d="M180 0c-22 -16 -39.666 -30.167 -52.999 -42.5s-23.833 -23.333 -31.5 -33s-12.834 -18.5 -15.501 -26.5s-4 -15.667 -4 -23c0 -25.333 13.333 -38 40 -38c13.333 0 24.833 1.33301 34.5 4s20.167 6.66699 31.5 12l18 -35c-16.667 -10 -34.167 -17.167 -52.5 -21.5
s-34.833 -6.5 -49.5 -6.5c-32.667 0 -56.5 7 -71.5 21s-22.5 33 -22.5 57c0 48.667 41 92.667 123 132h53z" />
    <glyph glyph-name="tilde" unicode="&#x2dc;" horiz-adv-x="204" 
d="M249 739c0 -12.667 -1.83105 -25.499 -5.49805 -38.499s-9 -24.833 -16 -35.5s-16 -19.5 -27 -26.5s-23.5 -10.5 -37.5 -10.5c-10.667 0 -21.667 2 -33 6s-22.166 8.33301 -32.499 13l-28.5 13c-8.66699 4 -15.667 6 -21 6c-13.333 0 -22.833 -5.16699 -28.5 -15.5
s-9.16699 -20.166 -10.5 -29.499h-54c0 14.667 2.33301 28.667 7 42s11.167 25.166 19.5 35.499s18.166 18.5 29.499 24.5s23.666 9 36.999 9c9.33301 0 19.166 -1.83301 29.499 -5.5s20.5 -8.16699 30.5 -13.5l28.5 -13c9 -4 16.833 -6 23.5 -6
c12.667 0 21.167 5.16699 25.5 15.5s7.5 20.166 9.5 29.499h54z" />
    <glyph glyph-name="hungarumlaut" unicode="&#x2dd;" horiz-adv-x="204" 
d="M184 751h98l-108 -142h-60zM20 751h98l-108 -142h-60z" />
    <glyph glyph-name="uni0394" unicode="&#x394;" horiz-adv-x="674" 
d="M333 628l-213 -556h430zM13 0l279 712h83l287 -712h-649z" />
    <glyph glyph-name="uni03A9" unicode="&#x3a9;" horiz-adv-x="748" 
d="M432 0l-0.00195312 183.001c58 11.333 101.833 37.5 131.5 78.5s44.5 90.5 44.5 148.5c0 34.667 -6 66.5 -18 95.5s-28.667 54.167 -50 75.5s-46.666 38 -75.999 50s-61.333 18 -96 18c-34 0 -65.833 -6 -95.5 -18s-55.167 -28.667 -76.5 -50
s-38.166 -46.666 -50.499 -75.999s-18.5 -61 -18.5 -95c0 -28 3.83301 -54.833 11.5 -80.5s18.834 -48.5 33.501 -68.5s33 -36.833 55 -50.5s47.667 -22.834 77 -27.501v-183h-257v67h193v72c-31.333 8.66699 -58.833 21.834 -82.5 39.501s-43.834 38.667 -60.501 63
s-29.167 51.166 -37.5 80.499s-12.5 59.666 -12.5 90.999c0 44.667 8.5 86 25.5 124s40.167 70.5 69.5 97.5s63.333 48.167 102 63.5s80 23 124 23s85.333 -7.5 124 -22.5s72.5 -36 101.5 -63s52 -59.333 69 -97s25.5 -78.834 25.5 -123.501
c0 -32 -4.16699 -62.667 -12.5 -92s-20.5 -56.166 -36.5 -80.499s-36 -45.5 -60 -63.5s-51.667 -31.333 -83 -40v-72h192v-67h-256z" />
    <glyph glyph-name="uni03BC" unicode="&#x3bc;" 
d="M408 0l-79.998 -0.000976562v63h-2c-11.333 -24.667 -29.333 -43.667 -54 -57s-50 -20 -76 -20c-11.333 0 -21.833 1 -31.5 3s-18.167 5.66699 -25.5 11v-176h-84v712h84v-370c0 -10 0.5 -21.333 1.5 -34s4.16699 -24.5 9.5 -35.5s13.166 -20.167 23.499 -27.5
s25.166 -11 44.499 -11c11.333 0 23.166 2 35.499 6s23.833 10.333 34.5 19s19.334 19.834 26.001 33.501s10 30.167 10 49.5v370h84v-536z" />
    <glyph glyph-name="pi" unicode="&#x3c0;" horiz-adv-x="570" 
d="M547 11c-11.333 -5.33301 -22.332 -9.5 -32.999 -12.5s-22.667 -4.5 -36 -4.5c-20 0 -35.833 3.16699 -47.5 9.5s-20.334 15 -26.001 26s-9.16699 23.833 -10.5 38.5s-2 30 -2 46v296h-246v-410h-75v410h-69v69h541v-69h-76v-299c0 -14.667 2 -27.167 6 -37.5
s14.667 -15.5 32 -15.5c14 0 28 3.33301 42 10v-57z" />
    <glyph glyph-name="endash" unicode="&#x2013;" horiz-adv-x="500" 
d="M0 320h500v-72h-500v72z" />
    <glyph glyph-name="emdash" unicode="&#x2014;" horiz-adv-x="1000" 
d="M0 320h1000v-72h-1000v72z" />
    <glyph glyph-name="quoteleft" unicode="&#x2018;" horiz-adv-x="240" 
d="M166 460l-91.999 -0.00195312v87c0 18.667 0.833008 36.834 2.5 54.501s5.5 33.834 11.5 48.501s15.167 27.5 27.5 38.5s29.166 19.5 50.499 25.5v-47c-17.333 -8.66699 -29 -18.667 -35 -30s-9 -27 -9 -47v-24h44v-106z" />
    <glyph glyph-name="quoteright" unicode="&#x2019;" horiz-adv-x="240" 
d="M74 714l91.999 -0.000976562v-87c0 -19.333 -0.833008 -37.666 -2.5 -54.999s-5.5 -33.333 -11.5 -48s-15.167 -27.5 -27.5 -38.5s-29.166 -19.5 -50.499 -25.5v47c17.333 8.66699 29 18.667 35 30s9 27 9 47v24h-44v106z" />
    </font>
</defs>
</svg>
